<svg width="62" height="67" viewBox="0 0 62 67" fill="none" xmlns="http://www.w3.org/2000/svg"><path d="M59.006 45.469A34.191 34.191 0 0061 33.912c0-4.59-.9-8.96-2.51-12.912M30.421 32.851h.05c.004-.152.004-.31.009-.463h-.074c.01.153.01.31.015.463z" stroke="#646B5C" stroke-width="1.3" stroke-miterlimit="10" stroke-linecap="round" stroke-linejoin="round"/><path d="M30.442 33.913c0-.359.015-.712.025-1.066h-.049c.01.359.024.713.024 1.066zm-.114-1.53c-10.49-.27-19.643-6.322-24.794-15.314-2.573-4.496-4.15-9.72-4.395-15.32 5.338.122 10.337 1.737 14.638 4.486 5.51 3.52 9.88 8.881 12.37 15.298 0 0-12.29 4.227-19.51-10.918m51.761-8.881c-5.334 0-10.338 1.504-14.674 4.132-8.726 5.282-14.742 15.124-15.238 26.522.192.005.378.016.565.016 10.789 0 20.247-6.137 25.516-15.335 2.573-4.496 4.15-9.72 4.395-15.32-.186-.005-.378-.015-.565-.015z" stroke="#646B5C" stroke-width="1.3" stroke-miterlimit="10" stroke-linecap="round" stroke-linejoin="round"/><path d="M30.421 33.031h.05c.004.153.004.311.009.464h-.074c.01-.148.01-.306.015-.464z" stroke="#646B5C" stroke-width="1.3" stroke-miterlimit="10" stroke-linecap="round" stroke-linejoin="round"/><path d="M30.442 31.972c0 .358.015.712.025 1.066h-.049c.01-.36.024-.707.024-1.066zM5.534 48.82c-2.573 4.496-4.15 9.72-4.395 15.32 5.338-.122 10.337-1.737 14.638-4.486 8.403-5.367 14.153-15.019 14.64-26.148-10.53.233-19.717 6.296-24.883 15.314zm26.952-5.155c2.529 6.955 7.238 12.728 13.234 16.358 4.336 2.623 9.34 4.132 14.673 4.132.192 0 .379-.01.565-.016-.245-5.598-1.822-10.823-4.395-15.319-5.27-9.197-14.727-15.335-25.516-15.335-.064 0-.128 0-.192.006M2.994 45.469A34.191 34.191 0 011 33.912c0-4.59.899-8.96 2.51-12.912M19.617 3.142A28.015 28.015 0 0130.367 1c4.272 0 8.338.966 12.016 2.697M19.617 63.332a28.015 28.015 0 0010.75 2.142 28.13 28.13 0 0012.016-2.696" stroke="#646B5C" stroke-width="1.3" stroke-miterlimit="10" stroke-linecap="round" stroke-linejoin="round"/></svg>