<svg width="60" height="59" viewBox="0 0 60 59" fill="none" xmlns="http://www.w3.org/2000/svg"><path fill-rule="evenodd" clip-rule="evenodd" d="M27.373.408C24.76 1.43 22.911 3.69 22.351 6.55c-.761 3.885 1.622 9.13 5.135 11.3 1.383.855 3.272.908 4.759.135 2.05-1.066 3.86-3.534 4.834-6.59.767-2.405.713-5.002-.14-6.802-.748-1.58-2.289-3.162-3.779-3.881-1.694-.818-4.146-.947-5.787-.304zm5.263 2.158c1.497.79 2.245 1.668 2.848 3.348.779 2.168.086 5.825-1.521 8.032-2.95 4.052-6.498 3.423-8.903-1.578-.929-1.931-.977-2.13-.98-4.088-.002-1.509.101-2.262.387-2.823C26.16 2.13 29.54.935 32.636 2.567zm-3.807 17.325c-1.185 1.157-1.244 4.126-.152 7.638l.454 1.457-.723 1.378c-.767 1.463-2.136 3.387-2.41 3.387-.09 0-.278-1.208-.418-2.685-.265-2.802-1.162-5.842-2.09-7.085-1.568-2.102-4.302-.743-6.8 3.381-2.68 4.42-4.38 10.585-3.747 13.573.535 2.518 1.85 3.344 4.188 2.628 1.734-.532 2.668-1.051 4.46-2.482.818-.652 1.532-1.186 1.587-1.186.475 0-1.146 5.34-2.256 7.433-1.26 2.376-1.17 2.374-3.426.082-1.082-1.1-2.67-2.435-3.528-2.966C7.898 40.684.407 42.107.015 47.096c-.328 4.171 4.866 8.143 10.667 8.155 2.709.006 6.095-1.012 7.917-2.38l.678-.51 1.609 1.679c2.084 2.175 2.822 2.747 4.858 3.766 1.426.713 1.98.857 3.645.946 3.472.186 6.24-1.15 9.554-4.613l1.654-1.73 1.058.716c2.672 1.807 6.94 2.557 10.284 1.805 2.513-.564 5.158-2.013 6.393-3.501 1.641-1.978 2.077-3.933 1.282-5.745-.535-1.217-1.424-2.084-2.825-2.757-.962-.462-1.487-.537-3.699-.532-2.206.005-2.827.097-4.305.638-2.257.826-4.432 2.318-6.603 4.529-.966.983-1.857 1.747-1.98 1.697-.748-.301-2.998-5.855-3.588-8.856l-.156-.792 1.648 1.298c3.679 2.898 6.35 3.65 7.791 2.196.99-1 1.218-1.972 1.076-4.604-.315-5.877-4.597-14.237-7.876-15.378-.953-.332-1.796-.074-2.559.782-1.098 1.233-2.272 5.292-2.28 7.886-.005 1.853-.24 1.915-1.44.38-.586-.753-1.265-1.777-1.507-2.278l-.44-.91.574-2.536c.843-3.714.705-5.652-.471-6.627-.765-.634-1.447-.611-2.145.07zm1.395 3.181c-.004 1.822-.3 2.64-.526 1.453-.185-.977-.185-2.939 0-3.134.348-.366.529.214.526 1.681zm-7.866 2.373c.25.37.71 1.605 1.024 2.744.479 1.742.57 2.555.57 5.126v3.056l-1.066 1.2c-1.992 2.248-5.42 4.443-6.943 4.448-1.19.004-1.49-.747-1.35-3.372.29-5.355 4.533-13.846 6.933-13.871.208-.003.582.298.832.669zm16.986-.215c2.18 1.402 5.318 8.126 5.92 12.689.36 2.726-.07 4.103-1.278 4.103-1.429 0-4.61-1.949-6.724-4.118-1.434-1.472-1.59-2.241-1.26-6.24.244-2.975.907-5.485 1.68-6.36.571-.649.755-.657 1.662-.074zm-8.573 7.415c.435.692 1.303 1.82 1.928 2.508 1.557 1.712 1.704 2.006 2.016 4.033.581 3.777 2.22 8.388 3.81 10.724.872 1.279.824 1.402-1.373 3.546-5.126 5.004-10.865 4.521-15.602-1.31l-.945-1.163.72-1c1.495-2.072 3.11-6.548 3.944-10.93.395-2.072.4-2.081 2.402-4.642.752-.96 1.545-2.034 1.763-2.385.218-.351.43-.638.47-.638.042 0 .431.566.867 1.257zM10.983 44.838c.696.279 1.907.944 2.69 1.477 1.719 1.17 4.45 3.907 4.45 4.46 0 .54-2.255 1.778-4.055 2.225-2.804.697-6.57.321-8.833-.882-4.159-2.21-4.847-6.245-1.304-7.644 1.29-.508 5.404-.296 7.052.364zm45.354-.09c1.048.543 1.909 1.785 1.909 2.753 0 2.232-2.542 4.543-6.068 5.518-1.882.52-5.581.36-7.405-.32-1.264-.47-3.114-1.573-3.114-1.856 0-.383 1.214-1.759 2.612-2.962 1.86-1.6 4.23-3.002 5.773-3.413 1.697-.454 5.18-.3 6.293.28z" fill="#646B5C"/></svg>