<svg width="36" height="35" viewBox="0 0 36 35" fill="none" xmlns="http://www.w3.org/2000/svg"><path d="M19.85.002c1.314-.005 2.627.008 3.94.039l.35.012c.403.014.8.031 1.281.052 1.915.088 3.222.382 4.369.814a8.787 8.787 0 013.189 2.02 8.568 8.568 0 012.075 3.099c.445 1.114.747 2.387.837 4.249.022.465.04.853.054 1.245l.011.34c.032 1.276.046 2.553.041 3.829L36 17.006V19.3c.005 1.277-.01 2.554-.041 3.83l-.011.34c-.014.392-.032.779-.054 1.246-.09 1.862-.396 3.132-.839 4.247a8.526 8.526 0 01-2.075 3.1 8.876 8.876 0 01-3.19 2.019c-1.146.432-2.453.726-4.368.813-.48.021-.878.039-1.281.053l-.35.01a146.6 146.6 0 01-3.94.04L18.508 35h-2.356c-1.314.005-2.627-.009-3.94-.04l-.35-.01c-.427-.016-.854-.033-1.281-.053-1.915-.087-3.222-.385-4.37-.816a8.83 8.83 0 01-3.188-2.017 8.563 8.563 0 01-2.077-3.101c-.445-1.115-.747-2.385-.837-4.247-.02-.415-.038-.83-.054-1.246l-.009-.34a134.501 134.501 0 01-.045-3.83v-3.6c-.005-1.277.008-2.553.04-3.829l.012-.34c.015-.392.033-.78.054-1.245.09-1.864.393-3.133.837-4.25a8.522 8.522 0 012.08-3.097A8.842 8.842 0 016.212.92C7.359.486 8.664.192 10.58.104l1.281-.052.35-.009A146.35 146.35 0 0116.15 0l3.7.002zM18 8.752a9.226 9.226 0 00-3.483.63 9.027 9.027 0 00-2.963 1.888 8.74 8.74 0 00-1.983 2.854 8.54 8.54 0 000 6.754 8.742 8.742 0 001.983 2.853 9.027 9.027 0 002.963 1.888 9.226 9.226 0 003.483.63 9.131 9.131 0 006.364-2.562A8.628 8.628 0 0027 17.5c0-2.32-.948-4.546-2.636-6.187A9.13 9.13 0 0018 8.752zm0 3.5a5.536 5.536 0 012.097.371 5.416 5.416 0 011.785 1.131 5.246 5.246 0 011.196 1.715 5.125 5.125 0 01.001 4.062 5.245 5.245 0 01-1.196 1.715 5.418 5.418 0 01-1.785 1.132 5.536 5.536 0 01-2.096.372 5.48 5.48 0 01-3.818-1.538 5.177 5.177 0 01-1.582-3.712 5.18 5.18 0 011.582-3.712 5.48 5.48 0 013.818-1.538l-.002.002zm9.45-6.125a2.28 2.28 0 00-1.533.67c-.402.408-.627.95-.627 1.516 0 .565.225 1.108.627 1.515a2.28 2.28 0 001.533.67 2.28 2.28 0 001.59-.64c.422-.41.66-.967.66-1.547s-.238-1.137-.66-1.547a2.283 2.283 0 00-1.59-.64v.003z" fill="#C9CDCA"/></svg>