<svg width="36" height="31" viewBox="0 0 36 31" fill="none" xmlns="http://www.w3.org/2000/svg"><path fill-rule="evenodd" clip-rule="evenodd" d="M31.609.206a2.631 2.631 0 013.617 2.853l-3.979 24.135c-.386 2.328-2.94 3.663-5.075 2.503-1.786-.97-4.439-2.465-6.825-4.024-1.193-.781-4.847-3.281-4.398-5.06.386-1.521 6.526-7.237 10.035-10.635 1.377-1.335.75-2.105-.877-.877-4.04 3.049-10.523 7.686-12.667 8.991-1.891 1.15-2.877 1.347-4.056 1.15-2.15-.357-4.146-.911-5.774-1.587-2.2-.912-2.093-3.937-.001-4.817l30-12.632z" fill="#C9CDCA"/></svg>