<svg width="26" height="26" viewBox="0 0 26 26" fill="none" xmlns="http://www.w3.org/2000/svg"><path d="M10.834 16.25L16.456 13l-5.622-3.25v6.5zm12.523-8.483c.14.51.238 1.192.303 2.059.076.866.109 1.614.109 2.264l.065.91c0 2.372-.174 4.116-.477 5.232-.27.975-.9 1.604-1.874 1.875-.51.14-1.441.238-2.871.303a72.138 72.138 0 01-3.89.108L13 20.583c-4.539 0-7.366-.173-8.482-.476-.975-.271-1.604-.9-1.874-1.875-.141-.509-.239-1.191-.304-2.058a26.064 26.064 0 01-.108-2.264L2.167 13c0-2.373.173-4.117.477-5.233.27-.975.899-1.603 1.874-1.874.509-.14 1.44-.238 2.87-.303a72.198 72.198 0 013.89-.109L13 5.417c4.54 0 7.367.173 8.483.476.975.271 1.603.9 1.874 1.874z" fill="#C9CDCA"/></svg>