<svg width="26" height="26" viewBox="0 0 26 26" fill="none" xmlns="http://www.w3.org/2000/svg">
<path d="M10.8337 16.2498L16.4562 12.9998L10.8337 9.74984V16.2498ZM23.357 7.76734C23.4978 8.2765 23.5953 8.959 23.6603 9.82567C23.7362 10.6923 23.7687 11.4398 23.7687 12.0898L23.8337 12.9998C23.8337 15.3723 23.6603 17.1165 23.357 18.2323C23.0862 19.2073 22.4578 19.8357 21.4828 20.1065C20.9737 20.2473 20.042 20.3448 18.612 20.4098C17.2037 20.4857 15.9145 20.5182 14.7228 20.5182L13.0003 20.5832C8.46116 20.5832 5.63366 20.4098 4.51783 20.1065C3.54283 19.8357 2.91449 19.2073 2.64366 18.2323C2.50283 17.7232 2.40533 17.0407 2.34033 16.174C2.26449 15.3073 2.23199 14.5598 2.23199 13.9098L2.16699 12.9998C2.16699 10.6273 2.34033 8.88317 2.64366 7.76734C2.91449 6.79234 3.54283 6.164 4.51783 5.89317C5.02699 5.75234 5.95866 5.65484 7.38866 5.58984C8.79699 5.514 10.0862 5.4815 11.2778 5.4815L13.0003 5.4165C17.5395 5.4165 20.367 5.58984 21.4828 5.89317C22.4578 6.164 23.0862 6.79234 23.357 7.76734Z" fill="#C9CDCA"/>
</svg>
