<svg width="183" height="44" viewBox="0 0 183 44" fill="none" xmlns="http://www.w3.org/2000/svg"><path d="M43.969 2.018c1.4-.456 1.725.179.976 1.904C38.565 9 31.241 17.252 22.973 28.678l-7.276 8.935c-1.432 2.084-3.222 3.32-5.37 3.711-2.117.39-2.54-.472-1.27-2.588L20.97 24.381l2.197-3.809C12.784 23.47 6.355 26.497 3.881 29.654c-1.92 0-2.881-.57-2.881-1.709-.033-1.172 4.069-3.58 12.305-7.226l9.521-4.834c1.498-.749 3.63-1.823 6.397-3.223L43.969 2.018zm21.24.341c5.794-1.562 9.017-.374 9.668 3.565.684 3.939-.667 7.568-4.053 10.889-3.385 3.287-6.461 5.37-9.228 6.25-2.767.878-5.192 1.595-7.276 2.148-2.05.52-3.906 2.962-5.566 7.324-1.66 4.362-4.59 7.21-8.79 8.545-7.844 1.563-11.034-1.204-9.57-8.3.554-2.214 6.006-5.437 16.358-9.669 1.986-2.409 3.792-6.12 5.42-11.133 2.897-4.85 7.243-8.056 13.037-9.619zM53.246 21.402c3.776-.325 7.129-1.4 10.059-3.222 2.93-1.856 5.322-4.753 7.177-8.692 1.14-3.125-.455-4.313-4.785-3.564-7.096 2.604-11.247 7.763-12.45 15.478zM34.35 34.098c-1.237 2.8.065 4.02 3.906 3.662 3.288-.554 5.892-3.044 7.812-7.47l1.807-3.419c-4.688 1.172-9.196 3.58-13.525 7.227zm69.58-32.08c4.004.944 6.233 2.718 6.689 5.322.456 2.604-.423 6.217-2.637 10.84-2.213 4.59-6.933 9.26-14.16 14.013-7.194 4.753-12.093 7.552-14.697 8.399-2.572.814-4.785 1.253-6.64 1.318-1.823.033-3.484-.325-4.981-1.074-1.498-.781-2.246-2.441-2.246-4.98 9.928-22.56 22.819-33.838 38.672-33.838zM71.41 31.314c-1.986 3.744-1.758 5.925.684 6.543 2.474.586 7.568-1.448 15.283-6.103 7.747-4.655 12.744-8.659 14.99-12.012 2.279-3.385 3.402-6.51 3.369-9.375 0-2.897-2.539-4.215-7.617-3.955-5.078.26-11.23 4.395-18.457 12.402-3.483 4.59-6.234 8.757-8.252 12.5zm78.125-29.296c4.004.944 6.234 2.718 6.69 5.322.455 2.604-.424 6.217-2.637 10.84-2.214 4.59-6.934 9.26-14.16 14.013-7.194 4.753-12.093 7.552-14.698 8.399-2.571.814-4.785 1.253-6.64 1.318-1.823.033-3.483-.325-4.981-1.074-1.497-.781-2.246-2.441-2.246-4.98 9.929-22.56 22.819-33.838 38.672-33.838zm-32.519 29.296c-1.986 3.744-1.758 5.925.683 6.543 2.474.586 7.569-1.448 15.283-6.103 7.748-4.655 12.745-8.659 14.991-12.012 2.278-3.385 3.401-6.51 3.369-9.375 0-2.897-2.539-4.215-7.617-3.955-5.079.26-11.231 4.395-18.457 12.402-3.483 4.59-6.234 8.757-8.252 12.5zm59.619-16.992c.716-.195 1.188.05 1.416.733.26.65-.228 2.002-1.465 4.052l-2.295 5.079 1.709.146 5.371.977c.651.976.488 1.66-.488 2.05-5.827-1.27-9.538.163-11.133 4.297l-2.051 3.418c-.586.39-1.074.26-1.465-.39-.065-1.79.603-4.102 2.002-6.934l-6.396-.488h-2.93c-1.139-.651-.944-1.465.586-2.442l4.053-.244 3.174-.244 3.613-.39 2.637-5.176c1.757-2.8 2.978-4.281 3.662-4.444z" fill="#3A4143"/></svg>