<svg width="223" height="42" viewBox="0 0 223 42" fill="none" xmlns="http://www.w3.org/2000/svg"><path d="M11.305 14.348c2.995 2.246 8.04 4.524 15.136 6.836 3.907.878 5.86 1.692 5.86 2.441-.521 1.92-4.427 4.2-11.719 6.836a95.935 95.935 0 00-5.762 2.441c-4.752 1.237-8.528 3.516-11.328 6.836-2.311 1.465-3.45.977-3.418-1.465 2.67-3.19 5.436-5.468 8.301-6.836l9.424-3.466c2.279-.521 3.857-1.319 4.736-2.393v-.488c-.39-1.4-1.97-2.62-4.736-3.662-2.734-1.075-4.915-2.018-6.543-2.832-1.628-.847-2.702-2.051-3.223-3.614-.488-1.595.602-1.806 3.272-.634zM85.523 1.31c1.856-.293 3.646-.212 5.371.244 1.726.455 2.898 1.725 3.516 3.808v1.074c0 6.641-7.161 13.884-21.484 21.729-1.693 2.344-.88 4.362 2.441 6.055 4.427-1.856 7.96-3.744 10.596-5.664 2.637-1.953 3.939-2.084 3.906-.391-6.9 6.51-12.549 9.766-16.943 9.766-2.311-2.019-4.2-4.2-5.664-6.543-5.176 5.24-10.84 8.138-16.992 8.691-1.14-.325-1.889-1.042-2.247-2.148 0-6.218 8.676-11.296 26.026-15.235 8.724-3.548 14.225-8.61 16.504-15.185-.098-1.498-.993-2.344-2.686-2.54-6.38.13-10.205 1.628-11.474 4.493-1.237 2.864-3.158 4.02-5.762 3.467-.814-.782-.96-2.344-.44-4.688.554-2.376 5.665-4.687 15.332-6.933zM57.057 31.389c-3.386 2.05-4.965 3.597-4.737 4.638.26 1.042 3.272 0 9.033-3.125 1.889-1.953 1.612-2.75-.83-2.392l-3.466.879zm72.265-15.137c4.916-2.832 6.576-2.718 4.981.342-1.921 1.823-7.731 6.12-17.432 12.89-1.107 2.116-1.66 3.744-1.66 4.883 0 1.107 1.465 1.107 4.394 0 2.963-1.14 6.755-3.483 11.377-7.031.977.13 1.351.879 1.123 2.246-.195 1.335-2.294 3.027-6.298 5.078-3.972 2.018-7.194 3.174-9.668 3.467-2.442.26-3.776.016-4.004-.733-.196-.78 0-2.718.586-5.81L96.119 40.08c-1.79.39-2.62-.31-2.49-2.1 2.344-6.217 4.004-9.407 4.98-9.57 1.921-.13 2.474.928 1.661 3.174-2.963 3.874-2.963 4.932 0 3.174 12.239-5.86 21.923-12.028 29.052-18.506zm27.637.488c2.767-1.204 5.485-1.578 8.154-1.123 2.67.423 4.02 2.214 4.053 5.371 0 4.46-8.691 7.634-26.074 9.522-3.646 1.041-5.436 2.311-5.371 3.808.097 1.498.765 2.41 2.002 2.735a30.37 30.37 0 004.004.635c1.432.097 6.787-.766 16.064-2.588 9.277-1.856 13.851-2.49 13.721-1.905-.098.554-4.492 1.953-13.184 4.2-8.659 2.213-15.755 3.108-21.289 2.685-3.711-1.042-5.192-3.141-4.443-6.299l.39-2.197h-3.271c-.261-.781.293-1.497 1.66-2.148 1.4-.684 9.261-4.916 23.584-12.696zm-5.713 6.348c-10.124 4.33-9.635 5.436 1.465 3.32 8.952-2.213 13.428-4.118 13.428-5.713 0-1.595-1.953-2.18-5.86-1.758l-9.033 4.15zm22.266-7.422l46.972.928c1.27.879 1.156 1.79-.341 2.734-1.498.944-7.015 1.286-16.553 1.026l-8.154-.196c-2.084.13-7.504-.423-16.26-1.66 2.506 2.702 3.76 7.08 3.76 13.135 7.128-5.632 12.125-8.447 14.99-8.447 1.172.097 1.497.716.976 1.855l-20.654 15.04c-1.302-.034-1.937-.652-1.904-1.856l2.832-3.76c0-8.757-2.507-14.714-7.52-17.871-.097-.814.521-1.123 1.856-.928z" fill="#3A4143"/></svg>