<svg width="153" height="40" viewBox="0 0 153 40" fill="none" xmlns="http://www.w3.org/2000/svg"><path d="M40.941.018c3.158 0 5.078.732 5.762 2.197.684 1.465.781 3.125.293 4.98-1.595 2.442-3.548 4.379-5.86 5.81-3.906 2.117-5.712 4.167-5.42 6.153-1.073 7.585-3.808 12.582-8.202 14.99-4.362 2.377-9.44 4.02-15.235 4.932-3.483-.52-6.168-1.432-8.056-2.734C1.683 35.499.609 34.035 1 31.95c.358-2.083 1.514-3.157 3.467-3.223l2.637 4.932 5.615 1.27C18.61 34.31 23.038 32.846 26 30.535c2.995-2.344 4.704-5.094 5.127-8.252l-1.172-3.125-1.611-2.002C36.742 11.688 41.38 8.45 42.26 7.44c.781-3.645-1.677-4.345-7.373-2.1-4.818 3.647-7.194 6.072-7.13 7.276.098 1.172-.292 1.79-1.171 1.856-.879.032-1.595-.537-2.148-1.71.162-2.18 2.018-4.98 5.566-8.398C33.389 1.466 37.035.018 40.94.018zm50.684 3.76c-3.874-.098-7.992.08-12.353.536-4.656.228-8.008 1.71-10.06 4.444l-5.37 7.275c2.67-.358 5.875-.13 9.619.684 3.776.781 5.664 3.141 5.664 7.08-3.809 6.478-9.766 11.214-17.871 14.209l-5.518 1.367c-5.078.13-8.138-.928-9.18-3.174-.162-1.758.83-2.718 2.98-2.88 1.236 2.018 3.515 2.896 6.835 2.636 4.264-.781 7.47-2.002 9.62-3.662 4.166-2.441 6.868-4.606 8.105-6.494 1.27-1.888 1.578-3.353.927-4.395-.65-1.041-2.587-1.823-5.81-2.343l-5.322-.05-3.516 2.882c-1.53.162-2.523-.472-2.978-1.905v-1.953c3.743-5.37 8.024-10.628 12.841-15.771C71.443 1.124 79.532.669 94.506.896c.065 1.335-.895 2.295-2.881 2.881zm28.223-3.76c4.004.944 6.233 2.718 6.689 5.322.456 2.604-.423 6.217-2.637 10.84-2.213 4.59-6.933 9.26-14.16 14.013-7.194 4.753-12.093 7.552-14.697 8.399-2.572.814-4.785 1.253-6.64 1.318-1.824.033-3.484-.325-4.981-1.074-1.498-.781-2.246-2.441-2.246-4.98C91.104 11.296 103.995.017 119.848.017zm-32.52 29.296c-1.986 3.744-1.758 5.925.684 6.543 2.474.586 7.568-1.448 15.283-6.103 7.747-4.655 12.744-8.659 14.99-12.012 2.279-3.385 3.402-6.51 3.369-9.375 0-2.897-2.539-4.215-7.617-3.955-5.078.26-11.23 4.395-18.457 12.402-3.483 4.59-6.234 8.757-8.252 12.5zm59.619-16.992c.716-.195 1.188.05 1.416.733.261.65-.228 2.002-1.465 4.052l-2.294 5.079 1.708.146 5.372.977c.651.976.488 1.66-.489 2.05-5.827-1.27-9.537.163-11.133 4.297l-2.05 3.418c-.586.39-1.074.26-1.465-.39-.065-1.79.602-4.102 2.002-6.934l-6.397-.488h-2.929c-1.14-.651-.944-1.465.586-2.442l4.052-.244 3.174-.244 3.613-.39 2.637-5.176c1.758-2.8 2.979-4.281 3.662-4.444z" fill="#3A4143"/></svg>