<svg width="212" height="41" viewBox="0 0 212 41" fill="none" xmlns="http://www.w3.org/2000/svg"><path d="M11.305 13.348c2.995 2.246 8.04 4.524 15.136 6.836 3.907.878 5.86 1.692 5.86 2.441-.521 1.92-4.427 4.2-11.719 6.836a95.935 95.935 0 00-5.762 2.441c-4.752 1.237-8.528 3.516-11.328 6.836-2.311 1.465-3.45.977-3.418-1.465 2.67-3.19 5.436-5.468 8.301-6.836l9.424-3.466c2.279-.521 3.857-1.319 4.736-2.393v-.488c-.39-1.4-1.97-2.62-4.736-3.662-2.734-1.075-4.915-2.018-6.543-2.832-1.628-.847-2.702-2.051-3.223-3.614-.488-1.595.602-1.806 3.272-.634zm81.836-9.57c-3.874-.098-7.992.08-12.354.536-4.655.228-8.008 1.71-10.059 4.444l-5.37 7.275c2.669-.358 5.875-.13 9.619.684 3.776.781 5.664 3.141 5.664 7.08-3.809 6.478-9.766 11.214-17.872 14.209l-5.517 1.367c-5.078.13-8.138-.928-9.18-3.174-.163-1.758.83-2.718 2.979-2.88 1.237 2.018 3.515 2.896 6.836 2.636 4.264-.781 7.47-2.002 9.619-3.662 4.166-2.441 6.868-4.606 8.105-6.494 1.27-1.888 1.58-3.353.928-4.395-.651-1.041-2.588-1.823-5.81-2.343l-5.323-.05-3.515 2.882c-1.53.162-2.523-.472-2.979-1.905v-1.953c3.744-5.37 8.024-10.628 12.842-15.771C72.958 1.124 81.047.669 96.02.896c.066 1.335-.895 2.295-2.88 2.881zm25.244 11.474c4.915-2.832 6.575-2.718 4.98.342-1.92 1.823-7.731 6.12-17.431 12.89-1.107 2.116-1.661 3.744-1.661 4.883 0 1.107 1.465 1.107 4.395 0 2.962-1.14 6.755-3.483 11.377-7.031.976.13 1.351.879 1.123 2.246-.195 1.335-2.295 3.027-6.299 5.078-3.971 2.018-7.194 3.174-9.668 3.467-2.441.26-3.776.016-4.004-.733-.195-.78 0-2.718.586-5.81L85.182 39.08c-1.79.39-2.62-.31-2.49-2.1 2.343-6.217 4.003-9.407 4.98-9.57 1.92-.13 2.474.928 1.66 3.174-2.962 3.874-2.962 4.932 0 3.174 12.24-5.86 21.924-12.028 29.053-18.506zm27.636.488c2.767-1.204 5.486-1.579 8.155-1.123 2.669.423 4.02 2.214 4.053 5.371 0 4.46-8.692 7.634-26.075 9.522-3.646 1.041-5.436 2.311-5.371 3.808.098 1.498.765 2.41 2.002 2.735 1.27.293 2.604.504 4.004.635 1.432.097 6.787-.766 16.065-2.588 9.277-1.856 13.85-2.49 13.72-1.905-.097.554-4.492 1.953-13.183 4.2-8.659 2.213-15.756 3.108-21.289 2.685-3.711-1.042-5.192-3.141-4.444-6.299l.391-2.197h-3.272c-.26-.781.293-1.497 1.661-2.148 1.399-.684 9.261-4.916 23.583-12.696zm-5.712 6.348c-10.124 4.33-9.636 5.436 1.464 3.32 8.952-2.213 13.428-4.118 13.428-5.713 0-1.595-1.953-2.18-5.859-1.758l-9.033 4.15zm22.265-7.422l46.973.928c1.269.879 1.155 1.79-.342 2.734s-7.015 1.286-16.553 1.026l-8.154-.196c-2.083.13-7.503-.423-16.26-1.66 2.507 2.702 3.76 7.08 3.76 13.135 7.129-5.632 12.126-8.447 14.99-8.447 1.172.097 1.498.716.977 1.855l-20.654 15.04c-1.303-.034-1.937-.652-1.905-1.856l2.832-3.76c0-8.757-2.506-14.714-7.519-17.871-.098-.814.521-1.123 1.855-.928z" fill="#3A4143"/></svg>