<svg width="61" height="42" viewBox="0 0 61 42" fill="none" xmlns="http://www.w3.org/2000/svg"><path d="M23.552 40.118a19.8 19.8 0 01-2.932.218C9.783 40.336 1 31.486 1 20.668m0 0c0-.056 0 .056 0 0zm0 0C1 9.85 9.783 1 20.62 1c10.838 0 19.62 8.767 19.62 19.585m0 0v.166m0-.166v.166m0 0c0 6.941-3.62 13.041-9.076 16.52m-9.975-17.545l9.271 7.88m-7.522-15.781s3.326 2.603 7.518 6.529m9.274 1.372l-9.27 7.88m7.52-15.781s-3.327 2.603-7.52 6.529" stroke="#F7F7F6" stroke-width="2" stroke-miterlimit="10" stroke-linecap="round" stroke-linejoin="round"/><path d="M37.505 1.21c.937-.139 1.897-.21 2.875-.21C51.217 1 60 9.767 60 20.585m0 0v.166m0-.166v.166m0 0c0 10.818-8.783 19.585-19.62 19.585-10.837 0-19.62-8.85-19.62-19.668m0 0c0-.056 0 .056 0 0zm0 0c0-7.14 3.827-13.421 9.543-16.87m.157.166v33.24" stroke="#F7F7F6" stroke-width="2" stroke-miterlimit="10" stroke-linecap="round" stroke-linejoin="round"/></svg>