<svg width="42" height="41" viewBox="0 0 42 41" fill="none" xmlns="http://www.w3.org/2000/svg"><path d="M38.771 27.899a19.368 19.368 0 001.299-6.99 19.4 19.4 0 00-1.635-7.811m-18.277 7.169h.032c.003-.093.003-.188.006-.28h-.048c.007.092.007.187.01.28z" stroke="#F7F7F6" stroke-width="2" stroke-miterlimit="10" stroke-linecap="round" stroke-linejoin="round"/><path d="M20.173 20.909c0-.218.01-.431.016-.645h-.032c.007.217.016.43.016.645zm-.076-.926A19.492 19.492 0 013.952 10.72 19.363 19.363 0 011.09 1.453a19.424 19.424 0 019.532 2.714 19.542 19.542 0 018.055 9.253s-8.004 2.557-12.704-6.604m33.703-5.373c-3.472 0-6.73.91-9.554 2.5-5.683 3.195-9.6 9.148-9.923 16.043.125.003.246.01.368.01 7.025 0 13.184-3.713 16.615-9.277a19.363 19.363 0 002.862-9.266c-.121-.003-.246-.01-.368-.01z" stroke="#F7F7F6" stroke-width="2" stroke-miterlimit="10" stroke-linecap="round" stroke-linejoin="round"/><path d="M20.158 20.376h.032c.003.092.003.188.006.28h-.048c.007-.088.007-.184.01-.28z" stroke="#F7F7F6" stroke-width="2" stroke-miterlimit="10" stroke-linecap="round" stroke-linejoin="round"/><path d="M20.173 19.734c0 .217.01.431.016.645h-.032c.007-.217.016-.428.016-.645zM3.952 29.926a19.363 19.363 0 00-2.862 9.267 19.424 19.424 0 009.532-2.713c5.471-3.247 9.216-9.085 9.533-15.817a19.48 19.48 0 00-16.203 9.263zm17.551-3.118a19.552 19.552 0 008.618 9.895 19.45 19.45 0 009.555 2.5c.124 0 .246-.007.367-.01a19.363 19.363 0 00-2.862-9.267c-3.43-5.563-9.59-9.276-16.615-9.276-.041 0-.083 0-.125.004M2.298 27.899A19.368 19.368 0 011 20.909a19.4 19.4 0 011.634-7.811M13.122 2.296a19.458 19.458 0 017-1.296c2.782 0 5.43.584 7.825 1.631M13.123 38.704a19.46 19.46 0 007 1.296c2.782 0 5.43-.584 7.825-1.63" stroke="#F7F7F6" stroke-width="2" stroke-miterlimit="10" stroke-linecap="round" stroke-linejoin="round"/></svg>