<svg width="42" height="41" viewBox="0 0 42 41" fill="none" xmlns="http://www.w3.org/2000/svg"><path d="M34.564 23.988c-24.278-6.2-14.158-19.533-14.158-19.533s3.757 3.876.083 11.874m-1.406 2.377c-2.318 3.065-6.57 4.875-12.634 5.274" stroke="#F7F7F6" stroke-width="2" stroke-miterlimit="10" stroke-linecap="round" stroke-linejoin="round"/><path d="M6.45 17.98c24.277 6.2 14.157 19.533 14.157 19.533s-3.756-3.877-.083-11.874m1.606-2.633c2.36-2.911 6.541-4.628 12.433-5.016M3.491 30.038A19.384 19.384 0 011 20.5c0-3.064.708-5.961 1.97-8.542m35.129-.003a19.38 19.38 0 011.97 8.542c0 3.464-.903 6.719-2.49 9.538M11.266 3.487A19.473 19.473 0 0120.82 1c3.07 0 5.972.707 8.557 1.967m.001 35.066A19.473 19.473 0 0120.821 40c-3.47 0-6.73-.903-9.555-2.487" stroke="#F7F7F6" stroke-width="2" stroke-miterlimit="10" stroke-linecap="round" stroke-linejoin="round"/></svg>