<svg width="61" height="42" viewBox="0 0 61 42" fill="none" xmlns="http://www.w3.org/2000/svg">
<path d="M23.5516 40.1181C22.5958 40.2608 21.6175 40.336 20.6203 40.336C9.78283 40.336 1 31.4861 1 20.668M1 20.668C1 20.6116 1 20.7243 1 20.668ZM1 20.668C1 9.84984 9.78283 1 20.6203 1C31.4577 1 40.2405 9.7672 40.2405 20.5853M40.2405 20.5853C40.2405 20.6417 40.2405 20.6943 40.2405 20.7506M40.2405 20.5853V20.7506M40.2405 20.7506C40.2405 27.6923 36.6205 33.7925 31.1642 37.2708" stroke="#F7F7F6" stroke-width="2" stroke-miterlimit="10" stroke-linecap="round" stroke-linejoin="round"/>
<path d="M21.1885 19.7256L30.4605 27.6063" stroke="#F7F7F6" stroke-width="2" stroke-miterlimit="10" stroke-linecap="round" stroke-linejoin="round"/>
<path d="M22.9375 11.8252C22.9375 11.8252 26.264 14.4283 30.456 18.3536" stroke="#F7F7F6" stroke-width="2" stroke-miterlimit="10" stroke-linecap="round" stroke-linejoin="round"/>
<path d="M39.7292 19.7256L30.4609 27.6063" stroke="#F7F7F6" stroke-width="2" stroke-miterlimit="10" stroke-linecap="round" stroke-linejoin="round"/>
<path d="M37.9794 11.8252C37.9794 11.8252 34.6529 14.4283 30.4609 18.3536" stroke="#F7F7F6" stroke-width="2" stroke-miterlimit="10" stroke-linecap="round" stroke-linejoin="round"/>
<path d="M37.5051 1.21035C38.4421 1.07137 39.4016 1 40.38 1C51.2174 1 60.0003 9.7672 60.0003 20.5853M60.0003 20.5853C60.0003 20.6417 60.0003 20.6943 60.0003 20.7506M60.0003 20.5853V20.7506M60.0003 20.7506C60.0003 31.5688 51.2174 40.336 40.38 40.336C29.5426 40.336 20.7598 31.4861 20.7598 20.668M20.7598 20.668C20.7598 20.6116 20.7598 20.7243 20.7598 20.668ZM20.7598 20.668C20.7598 13.5273 24.5867 7.24672 30.3027 3.79844" stroke="#F7F7F6" stroke-width="2" stroke-miterlimit="10" stroke-linecap="round" stroke-linejoin="round"/>
<path d="M30.4609 3.96387V37.2034" stroke="#F7F7F6" stroke-width="2" stroke-miterlimit="10" stroke-linecap="round" stroke-linejoin="round"/>
</svg>
