<svg width="183" height="44" viewBox="0 0 183 44" fill="none" xmlns="http://www.w3.org/2000/svg">
<path d="M55.09 17L60.886 4.4H61.804L67.6 17H66.61L61.138 4.976H61.534L56.08 17H55.09ZM57.214 13.454L57.52 12.68H65.062L65.368 13.454H57.214ZM69.8874 17V4.4H70.6614L79.6434 15.866H79.2294V4.4H80.1474V17H79.3914L70.3914 5.534H70.8054V17H69.8874ZM82.4416 17L88.2376 4.4H89.1556L94.9516 17H93.9616L88.4896 4.976H88.8856L83.4316 17H82.4416ZM84.5656 13.454L84.8716 12.68H92.4136L92.7196 13.454H84.5656ZM100.551 17.09C99.615 17.09 98.727 16.934 97.887 16.622C97.059 16.298 96.417 15.884 95.961 15.38L96.375 14.696C96.807 15.14 97.395 15.518 98.139 15.83C98.895 16.13 99.693 16.28 100.533 16.28C101.373 16.28 102.057 16.172 102.585 15.956C103.125 15.728 103.521 15.428 103.773 15.056C104.037 14.684 104.169 14.27 104.169 13.814C104.169 13.274 104.025 12.842 103.737 12.518C103.449 12.194 103.071 11.936 102.603 11.744C102.135 11.552 101.625 11.39 101.073 11.258C100.521 11.126 99.963 10.988 99.399 10.844C98.835 10.688 98.319 10.49 97.851 10.25C97.383 10.01 97.005 9.686 96.717 9.278C96.441 8.858 96.303 8.318 96.303 7.658C96.303 7.058 96.459 6.506 96.771 6.002C97.083 5.498 97.569 5.09 98.229 4.778C98.889 4.466 99.735 4.31 100.767 4.31C101.463 4.31 102.147 4.412 102.819 4.616C103.503 4.82 104.085 5.096 104.565 5.444L104.223 6.182C103.695 5.822 103.125 5.558 102.513 5.39C101.913 5.21 101.331 5.12 100.767 5.12C99.963 5.12 99.297 5.234 98.769 5.462C98.241 5.69 97.851 5.996 97.599 6.38C97.347 6.752 97.221 7.172 97.221 7.64C97.221 8.18 97.359 8.612 97.635 8.936C97.923 9.26 98.301 9.518 98.769 9.71C99.237 9.902 99.753 10.064 100.317 10.196C100.881 10.328 101.439 10.472 101.991 10.628C102.543 10.772 103.053 10.964 103.521 11.204C103.989 11.444 104.367 11.768 104.655 12.176C104.943 12.584 105.087 13.112 105.087 13.76C105.087 14.348 104.925 14.9 104.601 15.416C104.277 15.92 103.779 16.328 103.107 16.64C102.447 16.94 101.595 17.09 100.551 17.09ZM110.444 17V5.228H105.908V4.4H115.898V5.228H111.362V17H110.444ZM115.436 17L121.232 4.4H122.15L127.946 17H126.956L121.484 4.976H121.88L116.426 17H115.436ZM117.56 13.454L117.866 12.68H125.408L125.714 13.454H117.56ZM133.545 17.09C132.609 17.09 131.721 16.934 130.881 16.622C130.053 16.298 129.411 15.884 128.955 15.38L129.369 14.696C129.801 15.14 130.389 15.518 131.133 15.83C131.889 16.13 132.687 16.28 133.527 16.28C134.367 16.28 135.051 16.172 135.579 15.956C136.119 15.728 136.515 15.428 136.767 15.056C137.031 14.684 137.163 14.27 137.163 13.814C137.163 13.274 137.019 12.842 136.731 12.518C136.443 12.194 136.065 11.936 135.597 11.744C135.129 11.552 134.619 11.39 134.067 11.258C133.515 11.126 132.957 10.988 132.393 10.844C131.829 10.688 131.313 10.49 130.845 10.25C130.377 10.01 129.999 9.686 129.711 9.278C129.435 8.858 129.297 8.318 129.297 7.658C129.297 7.058 129.453 6.506 129.765 6.002C130.077 5.498 130.563 5.09 131.223 4.778C131.883 4.466 132.729 4.31 133.761 4.31C134.457 4.31 135.141 4.412 135.813 4.616C136.497 4.82 137.079 5.096 137.559 5.444L137.217 6.182C136.689 5.822 136.119 5.558 135.507 5.39C134.907 5.21 134.325 5.12 133.761 5.12C132.957 5.12 132.291 5.234 131.763 5.462C131.235 5.69 130.845 5.996 130.593 6.38C130.341 6.752 130.215 7.172 130.215 7.64C130.215 8.18 130.353 8.612 130.629 8.936C130.917 9.26 131.295 9.518 131.763 9.71C132.231 9.902 132.747 10.064 133.311 10.196C133.875 10.328 134.433 10.472 134.985 10.628C135.537 10.772 136.047 10.964 136.515 11.204C136.983 11.444 137.361 11.768 137.649 12.176C137.937 12.584 138.081 13.112 138.081 13.76C138.081 14.348 137.919 14.9 137.595 15.416C137.271 15.92 136.773 16.328 136.101 16.64C135.441 16.94 134.589 17.09 133.545 17.09ZM141.202 17V4.4H142.12V17H141.202ZM144.404 17L150.2 4.4H151.118L156.914 17H155.924L150.452 4.976H150.848L145.394 17H144.404ZM146.528 13.454L146.834 12.68H154.376L154.682 13.454H146.528ZM60.508 39.09C59.572 39.09 58.684 38.934 57.844 38.622C57.016 38.298 56.374 37.884 55.918 37.38L56.332 36.696C56.764 37.14 57.352 37.518 58.096 37.83C58.852 38.13 59.65 38.28 60.49 38.28C61.33 38.28 62.014 38.172 62.542 37.956C63.082 37.728 63.478 37.428 63.73 37.056C63.994 36.684 64.126 36.27 64.126 35.814C64.126 35.274 63.982 34.842 63.694 34.518C63.406 34.194 63.028 33.936 62.56 33.744C62.092 33.552 61.582 33.39 61.03 33.258C60.478 33.126 59.92 32.988 59.356 32.844C58.792 32.688 58.276 32.49 57.808 32.25C57.34 32.01 56.962 31.686 56.674 31.278C56.398 30.858 56.26 30.318 56.26 29.658C56.26 29.058 56.416 28.506 56.728 28.002C57.04 27.498 57.526 27.09 58.186 26.778C58.846 26.466 59.692 26.31 60.724 26.31C61.42 26.31 62.104 26.412 62.776 26.616C63.46 26.82 64.042 27.096 64.522 27.444L64.18 28.182C63.652 27.822 63.082 27.558 62.47 27.39C61.87 27.21 61.288 27.12 60.724 27.12C59.92 27.12 59.254 27.234 58.726 27.462C58.198 27.69 57.808 27.996 57.556 28.38C57.304 28.752 57.178 29.172 57.178 29.64C57.178 30.18 57.316 30.612 57.592 30.936C57.88 31.26 58.258 31.518 58.726 31.71C59.194 31.902 59.71 32.064 60.274 32.196C60.838 32.328 61.396 32.472 61.948 32.628C62.5 32.772 63.01 32.964 63.478 33.204C63.946 33.444 64.324 33.768 64.612 34.176C64.9 34.584 65.044 35.112 65.044 35.76C65.044 36.348 64.882 36.9 64.558 37.416C64.234 37.92 63.736 38.328 63.064 38.64C62.404 38.94 61.552 39.09 60.508 39.09ZM77.5068 26.4H78.4248V39H77.5068V26.4ZM69.0828 39H68.1648V26.4H69.0828V39ZM77.6148 33.006H68.9748V32.196H77.6148V33.006ZM80.7189 39L86.5149 26.4H87.4329L93.2289 39H92.2389L86.7669 26.976H87.1629L81.7089 39H80.7189ZM82.8429 35.454L83.1489 34.68H90.6909L90.9969 35.454H82.8429ZM95.5163 39V26.4H96.2903L105.272 37.866H104.858V26.4H105.776V39H105.02L96.0203 27.534H96.4343V39H95.5163ZM110.176 39V26.4H115.162C116.494 26.4 117.664 26.67 118.672 27.21C119.68 27.75 120.46 28.494 121.012 29.442C121.576 30.39 121.858 31.476 121.858 32.7C121.858 33.924 121.576 35.01 121.012 35.958C120.46 36.906 119.68 37.65 118.672 38.19C117.664 38.73 116.494 39 115.162 39H110.176ZM111.094 38.172H115.09C116.278 38.172 117.31 37.938 118.186 37.47C119.062 37.002 119.74 36.36 120.22 35.544C120.7 34.716 120.94 33.768 120.94 32.7C120.94 31.632 120.7 30.69 120.22 29.874C119.74 29.046 119.062 28.398 118.186 27.93C117.31 27.462 116.278 27.228 115.09 27.228H111.094V38.172ZM125.048 39V26.4H129.566C130.622 26.4 131.528 26.568 132.284 26.904C133.04 27.24 133.622 27.726 134.03 28.362C134.438 28.986 134.642 29.748 134.642 30.648C134.642 31.524 134.438 32.28 134.03 32.916C133.622 33.54 133.04 34.026 132.284 34.374C131.528 34.71 130.622 34.878 129.566 34.878H125.552L125.966 34.446V39H125.048ZM133.796 39L130.52 34.428H131.564L134.84 39H133.796ZM125.966 34.5L125.552 34.068H129.566C130.922 34.068 131.948 33.768 132.644 33.168C133.352 32.568 133.706 31.728 133.706 30.648C133.706 29.556 133.352 28.716 132.644 28.128C131.948 27.528 130.922 27.228 129.566 27.228H125.552L125.966 26.778V34.5ZM135.897 39L141.693 26.4H142.611L148.407 39H147.417L141.945 26.976H142.341L136.887 39H135.897ZM138.021 35.454L138.327 34.68H145.869L146.175 35.454H138.021Z" fill="#202020"/>
<path fill-rule="evenodd" clip-rule="evenodd" d="M20.5301 0.28434C18.5697 0.998332 17.1835 2.57535 16.7634 4.56928C16.1925 7.28018 17.9798 10.9393 20.6146 12.4535C21.6514 13.0493 23.0685 13.0866 24.1834 12.5472C25.7211 11.8035 27.0793 10.0814 27.8096 7.9495C28.3843 6.27192 28.3441 4.45998 27.7047 3.20411C27.1435 2.10237 25.9876 0.998167 24.8703 0.49651C23.5996 -0.074058 21.7606 -0.163905 20.5301 0.28434ZM24.4768 1.7903C25.6001 2.34076 26.1609 2.95386 26.6133 4.12599C27.197 5.63854 26.6775 8.19002 25.4722 9.72962C23.2592 12.5562 20.5992 12.1177 18.7952 8.62887C18.0984 7.28117 18.0625 7.1422 18.0602 5.77636C18.0585 4.72392 18.1358 4.19819 18.35 3.80699C19.6203 1.48697 22.155 0.652628 24.4768 1.7903ZM21.6218 13.8767C20.7331 14.6844 20.6889 16.7558 21.5081 19.2056L21.8482 20.2224L21.3062 21.1838C20.731 22.2043 19.7043 23.5464 19.499 23.5464C19.4313 23.5464 19.2901 22.7036 19.1852 21.6735C18.986 19.7184 18.3135 17.5979 17.6177 16.7306C16.4415 15.264 14.391 16.2121 12.5169 19.0892C10.5079 22.1731 9.2319 26.4741 9.70765 28.5583C10.1086 30.3152 11.0954 30.8912 12.8481 30.3915C14.1484 30.0208 14.8491 29.6583 16.1937 28.6604C16.8069 28.2051 17.3425 27.8326 17.3839 27.8326C17.7399 27.8326 16.5242 31.5587 15.6919 33.0184C14.7462 34.6763 14.8137 34.6748 13.1218 33.0754C12.3102 32.3082 11.1196 31.3771 10.4759 31.0061C5.92299 28.3831 0.305258 29.3764 0.0110659 32.8566C-0.235047 35.7667 3.66107 38.5373 8.01175 38.5458C10.043 38.55 12.5827 37.8396 13.9494 36.8854L14.4581 36.5301L15.6643 37.7011C17.2275 39.2188 17.7806 39.6174 19.3082 40.3283C20.3772 40.8256 20.793 40.926 22.0414 40.9882C24.6456 41.1181 26.7215 40.1857 29.2069 37.7699L30.448 36.5636L31.2414 37.063C33.2451 38.3238 36.4462 38.8464 38.9546 38.3223C40.8389 37.9284 42.8226 36.9177 43.7489 35.8793C44.9798 34.4994 45.3069 33.1354 44.7103 31.8716C44.3095 31.0225 43.6428 30.4173 42.5915 29.9479C41.8701 29.6258 41.4767 29.5732 39.8176 29.5767C38.1633 29.5803 37.6974 29.6446 36.5891 30.0219C34.8962 30.5984 33.2644 31.6395 31.6362 33.1816C30.912 33.8677 30.2438 34.4007 30.1513 34.3659C29.5907 34.1555 27.9032 30.2809 27.4602 28.1871L27.3434 27.6348L28.5793 28.5402C31.3387 30.5618 33.3419 31.0871 34.4228 30.0722C35.1652 29.3752 35.3358 28.6965 35.2299 26.8603C34.9936 22.7605 31.782 16.9276 29.3229 16.1318C28.6079 15.9004 27.9762 16.08 27.4039 16.6773C26.5798 17.5375 25.6998 20.3693 25.6939 22.1794C25.6897 23.4719 25.5135 23.5151 24.614 22.4435C24.1737 21.9191 23.6646 21.2041 23.4829 20.8549L23.1526 20.2198L23.5839 18.4507C24.2157 15.8598 24.1123 14.5076 23.2304 13.8273C22.6572 13.3853 22.1453 13.401 21.6218 13.8767ZM22.6679 16.0964C22.6649 17.3671 22.4428 17.9381 22.2739 17.1097C22.1348 16.4281 22.1347 15.0596 22.2735 14.9234C22.5341 14.6679 22.6703 15.0728 22.6679 16.0964ZM16.7686 17.7515C16.956 18.0099 17.3017 18.8712 17.5365 19.6658C17.8956 20.8812 17.9634 21.4486 17.9634 23.2422V25.374L17.1648 26.2118C15.6703 27.7797 13.1001 29.3114 11.9573 29.3147C11.0648 29.3173 10.8394 28.7934 10.9454 26.9622C11.162 23.2259 14.3445 17.3023 16.1447 17.2846C16.3002 17.2832 16.581 17.4932 16.7686 17.7515ZM29.508 17.602C31.1435 18.5801 33.4962 23.2707 33.9476 26.454C34.2174 28.3559 33.8958 29.3164 32.9894 29.3164C31.9178 29.3164 29.5315 27.9571 27.9467 26.4441C26.8707 25.4168 26.7542 24.8802 27.0011 22.0904C27.1849 20.0147 27.6821 18.2636 28.2611 17.6528C28.6898 17.2007 28.8275 17.1951 29.508 17.602ZM23.0783 22.7752C23.4049 23.2579 24.0557 24.0449 24.5244 24.5243C25.692 25.7187 25.8023 25.9238 26.0363 27.3381C26.4721 29.9733 27.7011 33.1901 28.8944 34.8198C29.5476 35.7118 29.5118 35.798 27.8642 37.2939C24.0197 40.7844 19.7152 40.4479 16.1622 36.3791L15.454 35.568L15.9941 34.871C17.1147 33.4252 18.326 30.3025 18.952 27.2453C19.2479 25.8001 19.2518 25.7934 20.7533 24.007C21.317 23.3365 21.9119 22.5877 22.0755 22.3429C22.2391 22.0981 22.3979 21.8978 22.4287 21.8978C22.4593 21.8978 22.7516 22.2927 23.0783 22.7752ZM8.23753 31.2814C8.75951 31.476 9.6673 31.9397 10.2548 32.3118C11.5439 33.1283 13.5925 35.0377 13.5925 35.4226C13.5925 35.7998 11.901 36.6635 10.5509 36.9756C8.44783 37.4617 5.62409 37.1995 3.92618 36.3602C0.807234 34.8188 0.290968 32.0033 2.94845 31.0277C3.91592 30.6726 7.00125 30.8205 8.23753 31.2814ZM42.2531 31.2181C43.0386 31.5976 43.6842 32.4641 43.6842 33.139C43.6842 34.6963 41.7781 36.3086 39.1333 36.9884C37.7222 37.3511 34.9475 37.24 33.5798 36.7659C32.6315 36.4372 31.244 35.6679 31.244 35.4708C31.244 35.2037 32.1544 34.2437 33.2034 33.4045C34.5982 32.2884 36.3763 31.3103 37.5327 31.0229C38.806 30.7064 41.4177 30.8144 42.2531 31.2181Z" fill="#414733"/>
</svg>
