<svg width="299" height="156" viewBox="0 0 299 156" fill="none" xmlns="http://www.w3.org/2000/svg"><path d="M16.568 12.459v-11.2h4.656c1.184 0 2.112.245 2.784.736.682.48 1.024 1.19 1.024 2.128 0 .928-.326 1.632-.976 2.112-.651.47-1.504.704-2.56.704l.272-.4c1.248 0 2.197.245 2.848.736.65.49.976 1.21.976 2.16 0 .96-.342 1.707-1.024 2.24-.672.523-1.686.784-3.04.784h-4.96zm1.168-.944h3.792c.949 0 1.669-.176 2.16-.528.49-.352.736-.896.736-1.632 0-.725-.246-1.259-.736-1.6-.491-.341-1.211-.512-2.16-.512h-3.792v4.272zm0-5.184h3.424c.864 0 1.525-.17 1.984-.512.469-.352.704-.87.704-1.552 0-.683-.235-1.195-.704-1.536-.459-.352-1.12-.528-1.984-.528h-3.424v4.128zM31.8 12.539c-.832 0-1.579-.181-2.24-.544a4.118 4.118 0 01-1.536-1.52c-.373-.65-.56-1.392-.56-2.224 0-.843.187-1.584.56-2.224a4 4 0 011.536-1.504c.661-.363 1.408-.544 2.24-.544.715 0 1.36.139 1.936.416a3.13 3.13 0 011.36 1.248l-.848.576a2.666 2.666 0 00-1.072-.944 3.203 3.203 0 00-1.392-.304c-.597 0-1.136.139-1.616.416-.48.267-.859.645-1.136 1.136-.277.49-.416 1.067-.416 1.728s.139 1.237.416 1.728c.277.49.656.875 1.136 1.152.48.267 1.019.4 1.616.4a3.2 3.2 0 001.392-.304 2.706 2.706 0 001.072-.928l.848.576a3.27 3.27 0 01-1.36 1.248c-.576.277-1.221.416-1.936.416zm8.955 0c-.875 0-1.643-.181-2.304-.544a4.085 4.085 0 01-1.552-1.52c-.373-.65-.56-1.392-.56-2.224 0-.832.176-1.568.528-2.208a3.986 3.986 0 011.472-1.504 4.06 4.06 0 012.112-.56c.79 0 1.488.181 2.096.544a3.733 3.733 0 011.456 1.504c.352.64.528 1.381.528 2.224 0 .053-.005.112-.016.176v.176h-7.312v-.848h6.704l-.448.336c0-.608-.133-1.147-.4-1.616a2.815 2.815 0 00-1.056-1.12c-.448-.267-.965-.4-1.552-.4a3.03 3.03 0 00-1.552.4 2.78 2.78 0 00-1.072 1.12c-.256.48-.384 1.03-.384 1.648v.176c0 .64.139 1.205.416 1.696.288.48.683.859 1.184 1.136.512.267 1.093.4 1.744.4.512 0 .987-.09 1.424-.272a2.962 2.962 0 001.152-.832l.64.736c-.373.448-.843.79-1.408 1.024a4.676 4.676 0 01-1.84.352zm10.478-.08v-8.4h1.152l3.808 6.448h-.48l3.872-6.448h1.056v8.4h-1.04V5.355l.208.096-3.616 5.984h-.512l-3.648-6.048.24-.048v7.12h-1.04zm16.24.08c-.874 0-1.642-.181-2.303-.544a4.086 4.086 0 01-1.552-1.52c-.373-.65-.56-1.392-.56-2.224 0-.832.176-1.568.528-2.208a3.987 3.987 0 011.472-1.504 4.06 4.06 0 012.112-.56c.79 0 1.488.181 2.096.544a3.732 3.732 0 011.456 1.504c.352.64.528 1.381.528 2.224 0 .053-.005.112-.016.176v.176h-7.312v-.848h6.704l-.448.336c0-.608-.133-1.147-.4-1.616a2.815 2.815 0 00-1.056-1.12c-.448-.267-.965-.4-1.552-.4a3.03 3.03 0 00-1.552.4 2.78 2.78 0 00-1.072 1.12c-.256.48-.384 1.03-.384 1.648v.176c0 .64.138 1.205.416 1.696.288.48.682.859 1.184 1.136.512.267 1.093.4 1.744.4.512 0 .987-.09 1.424-.272a2.962 2.962 0 001.152-.832l.64.736c-.373.448-.843.79-1.408 1.024a4.676 4.676 0 01-1.84.352zm11.88-.624V5.051h-4.048l-.096 1.872c-.022.565-.06 1.12-.112 1.664a8.881 8.881 0 01-.24 1.504c-.107.448-.262.816-.464 1.104a1.127 1.127 0 01-.784.48l-1.136-.208c.33.01.602-.107.816-.352.213-.256.378-.603.496-1.04.117-.437.202-.933.256-1.488a43.86 43.86 0 00.128-1.728l.112-2.8h6.208v7.856h-1.136zm-7.232 2.576v-3.024h9.68v3.024h-1.072v-2.032h-7.536v2.032H72.12zm11.893-2.032v-8.4h1.136v6.672l5.616-6.672h1.008v8.4h-1.136V5.771l-5.6 6.688h-1.024zm12.616 0V4.747l.288.304h-3.472v-.992h7.504v.992h-3.472l.288-.304v7.712H96.63zm11.179 0v-1.856l-.048-.304V7.195c0-.715-.203-1.264-.608-1.648-.395-.384-.987-.576-1.776-.576-.544 0-1.062.09-1.552.272a3.947 3.947 0 00-1.248.72l-.512-.848c.426-.363.938-.64 1.536-.832a5.832 5.832 0 011.888-.304c1.088 0 1.925.272 2.512.816.597.533.896 1.35.896 2.448v5.216h-1.088zm-2.896.08c-.63 0-1.179-.101-1.648-.304-.459-.213-.811-.501-1.056-.864a2.273 2.273 0 01-.368-1.28c0-.437.101-.832.304-1.184.213-.363.554-.65 1.024-.864.48-.224 1.12-.336 1.92-.336h2.896v.848h-2.864c-.811 0-1.376.144-1.696.432-.31.288-.464.645-.464 1.072 0 .48.186.864.56 1.152.373.288.896.432 1.568.432.64 0 1.189-.144 1.648-.432.469-.299.81-.725 1.024-1.28l.256.784a2.663 2.663 0 01-1.12 1.328c-.523.33-1.184.496-1.984.496zm7.008-.08v-8.4h1.136v7.408h5.136V4.059h1.136v8.4h-7.408zm7.696 2.032v-2.128l.288.096h-1.712v-.992h2.496v3.024h-1.072zm3.241-2.032v-8.4h1.136v6.672l5.616-6.672h1.008v8.4h-1.136V5.771l-5.6 6.688h-1.024zm11.016 0v-8.4h1.136v6.672l5.616-6.672h1.008v8.4h-1.136V5.771l-5.6 6.688h-1.024zm15.203 0v-8.4h1.136v6.672l5.616-6.672h1.008v8.4h-1.136V5.771l-5.6 6.688h-1.024zm11.016 0v-8.4h1.152l3.808 6.448h-.48l3.872-6.448h1.056v8.4h-1.04V5.355l.208.096-3.616 5.984h-.512l-3.648-6.048.24-.048v7.12h-1.04zm16.24.08c-.874 0-1.642-.181-2.304-.544a4.093 4.093 0 01-1.552-1.52c-.373-.65-.56-1.392-.56-2.224 0-.832.176-1.568.528-2.208a3.994 3.994 0 011.472-1.504 4.064 4.064 0 012.112-.56c.79 0 1.488.181 2.096.544a3.73 3.73 0 011.456 1.504c.352.64.528 1.381.528 2.224 0 .053-.005.112-.016.176v.176h-7.312v-.848h6.704l-.448.336c0-.608-.133-1.147-.4-1.616a2.815 2.815 0 00-1.056-1.12c-.448-.267-.965-.4-1.552-.4-.576 0-1.093.133-1.552.4-.458.267-.816.64-1.072 1.12-.256.48-.384 1.03-.384 1.648v.176c0 .64.139 1.205.416 1.696.288.48.683.859 1.184 1.136.512.267 1.094.4 1.744.4.512 0 .987-.09 1.424-.272a2.962 2.962 0 001.152-.832l.64.736c-.373.448-.842.79-1.408 1.024a4.673 4.673 0 01-1.84.352zm6.291-.08v-8.4h1.136v3.616h2.56v1.04h-2.56v3.744h-1.136zm7.232.08c-.8 0-1.52-.181-2.16-.544a4.06 4.06 0 01-1.488-1.52c-.363-.65-.544-1.392-.544-2.224 0-.843.181-1.584.544-2.224a3.942 3.942 0 011.488-1.504c.64-.363 1.36-.544 2.16-.544s1.514.181 2.144.544a3.956 3.956 0 011.488 1.504c.362.64.544 1.381.544 2.224 0 .832-.182 1.573-.544 2.224a4.075 4.075 0 01-1.488 1.52c-.63.363-1.344.544-2.144.544zm0-.992c.586 0 1.109-.139 1.568-.416a2.986 2.986 0 001.088-1.152c.266-.501.4-1.077.4-1.728 0-.661-.134-1.237-.4-1.728a2.87 2.87 0 00-1.088-1.136 2.973 2.973 0 00-1.568-.416c-.576 0-1.099.139-1.568.416a2.857 2.857 0 00-1.088 1.136c-.267.49-.4 1.067-.4 1.728 0 .65.133 1.227.4 1.728.266.49.629.875 1.088 1.152.469.277.992.416 1.568.416zm7.899.912V4.747l.288.304h-3.472v-.992h7.504v.992h-3.472l.288-.304v7.712h-1.136zm10.15 0v-8.4h5.952v.992h-5.104l.288-.288v7.696h-1.136zm5.542-.016l.08-.976c.075.01.144.027.208.048.075.01.139.016.192.016a.985.985 0 00.816-.384c.214-.256.374-.597.48-1.024.107-.427.182-.907.224-1.44.043-.544.08-1.088.112-1.632l.144-2.992h6.16v8.4h-1.136V4.715l.288.336h-4.576l.272-.352-.128 2.432c-.032.725-.09 1.419-.176 2.08a8.273 8.273 0 01-.368 1.744c-.16.501-.384.896-.672 1.184-.288.277-.656.416-1.104.416a2.64 2.64 0 01-.4-.032 9.4 9.4 0 01-.416-.08zm11.79 3.2c-.395 0-.774-.064-1.136-.192a2.462 2.462 0 01-.912-.576l.528-.848c.213.203.442.357.688.464.256.117.538.176.848.176.373 0 .693-.107.96-.32.277-.203.538-.565.784-1.088l.544-1.232.128-.176 3.456-7.792h1.12l-4.208 9.408c-.235.544-.496.976-.784 1.296-.278.32-.582.544-.912.672a2.83 2.83 0 01-1.104.208zm2.24-2.944l-3.872-8.64h1.184l3.424 7.712-.736.928zm10.188-.144c-.682 0-1.29-.112-1.824-.336a3.495 3.495 0 01-1.344-1.024c-.373-.459-.656-1.024-.848-1.696-.192-.683-.288-1.472-.288-2.368 0-.8.075-1.499.224-2.096.15-.608.358-1.13.624-1.568a4.52 4.52 0 01.928-1.104c.363-.31.752-.555 1.168-.736a6.524 6.524 0 011.312-.432l3.776-.88.192 1.056-3.552.8c-.224.053-.496.128-.816.224-.309.096-.629.24-.96.432a3.47 3.47 0 00-.896.8c-.277.341-.501.784-.672 1.328-.16.533-.24 1.2-.24 2 0 .17.006.31.016.416.011.096.022.203.032.32.022.107.038.267.048.48l-.496-.416a3.94 3.94 0 01.72-1.696 3.69 3.69 0 011.36-1.136 4.057 4.057 0 011.84-.416c.779 0 1.472.17 2.08.512.608.33 1.083.795 1.424 1.392.352.597.528 1.29.528 2.08 0 .779-.181 1.477-.544 2.096a3.73 3.73 0 01-1.504 1.456c-.65.341-1.413.512-2.288.512zm.128-.944c.598 0 1.126-.133 1.584-.4a2.92 2.92 0 001.072-1.12c.267-.47.4-.997.4-1.584 0-.576-.133-1.088-.4-1.536a2.755 2.755 0 00-1.072-1.056c-.458-.267-.992-.4-1.6-.4-.597 0-1.125.128-1.584.384a2.764 2.764 0 00-1.088 1.04c-.256.448-.384.965-.384 1.552 0 .587.128 1.115.384 1.584.267.47.63.843 1.088 1.12a3.09 3.09 0 001.6.416zm10.099.928c-.81 0-1.541-.181-2.192-.544a4.16 4.16 0 01-1.52-1.52c-.373-.65-.56-1.392-.56-2.224 0-.843.187-1.584.56-2.224.374-.64.88-1.141 1.52-1.504s1.371-.544 2.192-.544c.832 0 1.568.181 2.208.544a3.882 3.882 0 011.52 1.504c.374.64.56 1.381.56 2.224 0 .832-.186 1.573-.56 2.224a3.993 3.993 0 01-1.52 1.52c-.65.363-1.386.544-2.208.544zm0-1.008c.608 0 1.147-.133 1.616-.4.47-.277.838-.661 1.104-1.152.278-.501.416-1.077.416-1.728 0-.661-.138-1.237-.416-1.728a2.822 2.822 0 00-1.104-1.136 3.083 3.083 0 00-1.6-.416 3.09 3.09 0 00-1.6.416 2.947 2.947 0 00-1.12 1.136c-.277.49-.416 1.067-.416 1.728 0 .65.139 1.227.416 1.728.278.49.651.875 1.12 1.152.47.267.998.4 1.584.4zm12.876.928l-3.456-4.16.944-.56 3.856 4.72h-1.344zm-6.16 0v-8.4h1.136v8.4h-1.136zm.784-3.744v-.976h2.704v.976h-2.704zm2.96-.336l-1.056-.16 3.344-4.16h1.232l-3.52 4.32zm5.553 4.08v-8.4h1.136v6.672l5.616-6.672h1.008v8.4h-1.136V5.771l-5.6 6.688h-1.024zm11.016 0v-8.4h1.136v6.672l5.616-6.672h1.008v8.4h-1.136V5.771l-5.6 6.688h-1.024zm3.808-9.616c-.704 0-1.275-.176-1.712-.528-.427-.363-.651-.88-.672-1.552h.816c.01.427.16.763.448 1.008.288.245.661.368 1.12.368.458 0 .832-.123 1.12-.368.298-.245.453-.581.464-1.008h.816c-.011.672-.235 1.19-.672 1.552-.438.352-1.014.528-1.728.528zM43.716 32.459v-7.712l.288.304h-3.472v-.992h7.504v.992h-3.472l.288-.304v7.712h-1.136zm9.172.08c-.875 0-1.643-.181-2.304-.544a4.085 4.085 0 01-1.552-1.52c-.373-.65-.56-1.392-.56-2.224 0-.832.176-1.568.528-2.208a3.986 3.986 0 011.472-1.504 4.061 4.061 0 012.112-.56c.79 0 1.488.181 2.096.544a3.732 3.732 0 011.456 1.504c.352.64.528 1.381.528 2.224 0 .053-.006.112-.016.176v.176h-7.312v-.848h6.704l-.448.336c0-.608-.133-1.147-.4-1.616a2.815 2.815 0 00-1.056-1.12c-.448-.267-.966-.4-1.552-.4a3.03 3.03 0 00-1.552.4 2.78 2.78 0 00-1.072 1.12c-.256.48-.384 1.03-.384 1.648v.176c0 .64.139 1.205.416 1.696.288.48.683.859 1.184 1.136.512.267 1.093.4 1.744.4.512 0 .986-.09 1.424-.272a2.962 2.962 0 001.152-.832l.64.736c-.373.448-.843.79-1.408 1.024a4.676 4.676 0 01-1.84.352zm10.627 0a3.938 3.938 0 01-1.968-.496 3.775 3.775 0 01-1.408-1.456c-.342-.64-.513-1.419-.513-2.336 0-.917.171-1.69.513-2.32.34-.64.805-1.125 1.392-1.456.586-.33 1.248-.496 1.983-.496.8 0 1.515.181 2.145.544.64.352 1.14.853 1.503 1.504.363.64.544 1.381.544 2.224 0 .853-.18 1.6-.544 2.24a3.919 3.919 0 01-1.504 1.504c-.629.363-1.344.544-2.144.544zm-4.337 3.024V24.059h1.089v2.528l-.113 1.68.16 1.696v5.6h-1.136zm4.257-4.032c.597 0 1.13-.133 1.6-.4a3.06 3.06 0 001.12-1.152c.277-.501.415-1.077.415-1.728 0-.65-.138-1.221-.415-1.712a3.058 3.058 0 00-1.12-1.152 3.085 3.085 0 00-1.6-.416c-.598 0-1.137.139-1.617.416a3.06 3.06 0 00-1.12 1.152c-.266.49-.4 1.061-.4 1.712 0 .65.134 1.227.4 1.728.278.49.651.875 1.12 1.152.48.267 1.02.4 1.617.4zm11.881.928v-1.856l-.048-.304v-3.104c0-.715-.202-1.264-.608-1.648-.394-.384-.986-.576-1.776-.576-.544 0-1.061.09-1.552.272-.49.181-.906.421-1.248.72l-.512-.848c.427-.363.939-.64 1.536-.832a5.835 5.835 0 011.888-.304c1.088 0 1.926.272 2.512.816.598.533.896 1.35.896 2.448v5.216h-1.088zm-2.896.08c-.629 0-1.178-.101-1.648-.304-.458-.213-.81-.501-1.056-.864a2.277 2.277 0 01-.368-1.28c0-.437.102-.832.304-1.184.214-.363.555-.65 1.024-.864.48-.224 1.12-.336 1.92-.336h2.896v.848h-2.864c-.81 0-1.376.144-1.696.432a1.406 1.406 0 00-.464 1.072c0 .48.187.864.56 1.152.374.288.896.432 1.568.432.64 0 1.19-.144 1.648-.432a2.55 2.55 0 001.024-1.28l.256.784a2.659 2.659 0 01-1.12 1.328c-.522.33-1.184.496-1.984.496zm7.008-.08v-8.4h7.553v8.4h-1.136v-7.712l.287.304h-5.856l.288-.304v7.712H79.43zm14.382.08c-.875 0-1.643-.181-2.304-.544a4.085 4.085 0 01-1.552-1.52c-.374-.65-.56-1.392-.56-2.224 0-.832.176-1.568.528-2.208a3.986 3.986 0 011.472-1.504 4.061 4.061 0 012.112-.56c.79 0 1.488.181 2.096.544a3.732 3.732 0 011.456 1.504c.352.64.528 1.381.528 2.224 0 .053-.006.112-.016.176v.176h-7.312v-.848h6.704l-.448.336c0-.608-.134-1.147-.4-1.616a2.815 2.815 0 00-1.056-1.12c-.448-.267-.966-.4-1.552-.4a3.03 3.03 0 00-1.552.4 2.78 2.78 0 00-1.072 1.12c-.256.48-.384 1.03-.384 1.648v.176c0 .64.138 1.205.416 1.696.288.48.682.859 1.184 1.136.512.267 1.093.4 1.744.4.512 0 .986-.09 1.424-.272a2.962 2.962 0 001.152-.832l.64.736c-.374.448-.843.79-1.408 1.024a4.676 4.676 0 01-1.84.352zm6.29-.08v-8.4h3.712c.95 0 1.696.181 2.24.544.555.363.832.896.832 1.6 0 .683-.261 1.21-.784 1.584-.522.363-1.21.544-2.064.544l.224-.336c1.003 0 1.739.187 2.208.56.47.373.704.912.704 1.616 0 .725-.266 1.29-.8 1.696-.522.395-1.338.592-2.448.592H100.1zm1.104-.896h2.672c.715 0 1.254-.112 1.616-.336.374-.235.56-.608.56-1.12 0-.512-.165-.885-.496-1.12-.33-.235-.853-.352-1.568-.352h-2.784v2.928zm0-3.776h2.528c.651 0 1.147-.123 1.488-.368.352-.245.528-.603.528-1.072 0-.47-.176-.821-.528-1.056-.341-.235-.837-.352-1.488-.352h-2.528v2.848zm10.231 4.672v-7.712l.288.304h-3.472v-.992h7.504v.992h-3.472l.288-.304v7.712h-1.136zm5.962 0v-8.4h1.136v6.672l5.616-6.672h1.008v8.4h-1.136v-6.688l-5.6 6.688h-1.024zm16.328-3.552a9.852 9.852 0 01-1.488.512 6.311 6.311 0 01-1.472.176c-.992 0-1.776-.224-2.352-.672-.576-.459-.864-1.163-.864-2.112v-2.752h1.12v2.688c0 .64.208 1.12.624 1.44.416.32.976.48 1.68.48a6.06 6.06 0 001.344-.16 8.72 8.72 0 001.424-.496l-.016.896zm-.096 3.552v-8.4h1.136v8.4h-1.136zm7.962.08c-.875 0-1.643-.181-2.304-.544a4.086 4.086 0 01-1.552-1.52c-.373-.65-.56-1.392-.56-2.224 0-.832.176-1.568.528-2.208a3.987 3.987 0 011.472-1.504 4.06 4.06 0 012.112-.56c.789 0 1.488.181 2.096.544a3.73 3.73 0 011.456 1.504c.352.64.528 1.381.528 2.224 0 .053-.005.112-.016.176v.176h-7.312v-.848h6.704l-.448.336c0-.608-.133-1.147-.4-1.616a2.815 2.815 0 00-1.056-1.12c-.448-.267-.965-.4-1.552-.4-.576 0-1.093.133-1.552.4a2.78 2.78 0 00-1.072 1.12c-.256.48-.384 1.03-.384 1.648v.176c0 .64.139 1.205.416 1.696.288.48.683.859 1.184 1.136.512.267 1.093.4 1.744.4.512 0 .987-.09 1.424-.272a2.962 2.962 0 001.152-.832l.64.736c-.373.448-.843.79-1.408 1.024a4.677 4.677 0 01-1.84.352zm9.811 0c-.832 0-1.579-.181-2.24-.544a4.114 4.114 0 01-1.536-1.52c-.374-.65-.56-1.392-.56-2.224 0-.843.186-1.584.56-2.224a3.997 3.997 0 011.536-1.504c.661-.363 1.408-.544 2.24-.544.714 0 1.36.139 1.936.416a3.139 3.139 0 011.36 1.248l-.848.576a2.67 2.67 0 00-1.072-.944 3.204 3.204 0 00-1.392-.304 3.17 3.17 0 00-1.616.416c-.48.267-.859.645-1.136 1.136-.278.49-.416 1.067-.416 1.728s.138 1.237.416 1.728c.277.49.656.875 1.136 1.152.48.267 1.018.4 1.616.4a3.2 3.2 0 001.392-.304 2.71 2.71 0 001.072-.928l.848.576c-.331.544-.784.96-1.36 1.248-.576.277-1.222.416-1.936.416zm11.655-.08l-3.456-4.16.944-.56 3.856 4.72h-1.344zm-6.16 0v-8.4h1.136v8.4h-1.136zm.784-3.744v-.976h2.704v.976h-2.704zm2.96-.336l-1.056-.16 3.344-4.16h1.232l-3.52 4.32zm5.553 4.08v-8.4h1.136v6.672l5.616-6.672h1.008v8.4h-1.136v-6.688l-5.6 6.688h-1.024zm11.016 0v-8.4h1.136v6.672l5.616-6.672h1.008v8.4h-1.136v-6.688l-5.6 6.688h-1.024zm3.808-9.616c-.704 0-1.275-.176-1.712-.528-.427-.363-.651-.88-.672-1.552h.816c.01.427.16.763.448 1.008.288.245.661.368 1.12.368.458 0 .832-.123 1.12-.368.298-.245.453-.581.464-1.008h.816c-.011.672-.235 1.19-.672 1.552-.438.352-1.014.528-1.728.528zm12.563 5.776v-.864h4.88v.864h-4.88zm1.12-4.64c.853 0 1.616.187 2.288.56.672.363 1.2.87 1.584 1.52.395.64.592 1.37.592 2.192 0 .821-.197 1.557-.592 2.208a4.136 4.136 0 01-1.584 1.536c-.672.373-1.435.56-2.288.56a5.716 5.716 0 01-1.936-.32 4.067 4.067 0 01-1.488-.96l.672-.672a3.63 3.63 0 001.232.768c.459.16.949.24 1.472.24.661 0 1.248-.144 1.76-.432a3.327 3.327 0 001.232-1.2 3.362 3.362 0 00.448-1.728c0-.64-.149-1.21-.448-1.712a3.172 3.172 0 00-1.232-1.2c-.512-.288-1.099-.432-1.76-.432a4.18 4.18 0 00-1.472.256 3.43 3.43 0 00-1.232.752l-.672-.656a3.811 3.811 0 011.488-.96 5.716 5.716 0 011.936-.32zm11.573 8.576h-.272c-1.664-.01-2.96-.39-3.888-1.136-.928-.747-1.392-1.808-1.392-3.184 0-1.355.464-2.4 1.392-3.136.938-.747 2.256-1.125 3.952-1.136h.24c1.706.01 3.034.39 3.984 1.136.949.736 1.424 1.781 1.424 3.136 0 1.387-.48 2.453-1.44 3.2-.95.747-2.283 1.12-4 1.12zm-.016-.992c.949 0 1.744-.128 2.384-.384.64-.267 1.125-.645 1.456-1.136.33-.49.496-1.093.496-1.808 0-.693-.166-1.28-.496-1.76-.331-.49-.816-.864-1.456-1.12-.64-.256-1.435-.384-2.384-.384h-.176c-.928 0-1.707.133-2.336.4-.63.256-1.104.624-1.424 1.104-.32.48-.48 1.067-.48 1.76 0 .704.16 1.301.48 1.792.33.49.81.87 1.44 1.136.629.256 1.402.39 2.32.4h.176zm-.608 4V20.587h1.104v14.976h-1.104zm13.186-3.008h-.272c-1.664-.01-2.96-.39-3.888-1.136-.928-.747-1.392-1.808-1.392-3.184 0-1.355.464-2.4 1.392-3.136.939-.747 2.256-1.125 3.952-1.136h.24c1.707.01 3.035.39 3.984 1.136.949.736 1.424 1.781 1.424 3.136 0 1.387-.48 2.453-1.44 3.2-.949.747-2.283 1.12-4 1.12zm-.016-.992c.949 0 1.744-.128 2.384-.384.64-.267 1.125-.645 1.456-1.136.331-.49.496-1.093.496-1.808 0-.693-.165-1.28-.496-1.76-.331-.49-.816-.864-1.456-1.12-.64-.256-1.435-.384-2.384-.384h-.176c-.928 0-1.707.133-2.336.4-.629.256-1.104.624-1.424 1.104-.32.48-.48 1.067-.48 1.76 0 .704.16 1.301.48 1.792.331.49.811.87 1.44 1.136.629.256 1.403.39 2.32.4h.176zm-.608 4V20.587h1.104v14.976h-1.104zm12.067-3.024c-.875 0-1.643-.181-2.304-.544a4.079 4.079 0 01-1.552-1.52c-.374-.65-.56-1.392-.56-2.224 0-.832.176-1.568.528-2.208a3.98 3.98 0 011.472-1.504 4.06 4.06 0 012.112-.56c.789 0 1.488.181 2.096.544a3.736 3.736 0 011.456 1.504c.352.64.528 1.381.528 2.224 0 .053-.006.112-.016.176v.176h-7.312v-.848h6.704l-.448.336c0-.608-.134-1.147-.4-1.616a2.815 2.815 0 00-1.056-1.12c-.448-.267-.966-.4-1.552-.4-.576 0-1.094.133-1.552.4a2.78 2.78 0 00-1.072 1.12c-.256.48-.384 1.03-.384 1.648v.176c0 .64.138 1.205.416 1.696.288.48.682.859 1.184 1.136.512.267 1.093.4 1.744.4.512 0 .986-.09 1.424-.272a2.962 2.962 0 001.152-.832l.64.736a3.6 3.6 0 01-1.408 1.024 4.677 4.677 0 01-1.84.352zm12.45-.08l-3.456-4.16.944-.56 3.856 4.72h-1.344zm-6.16 0v-8.4h1.136v8.4h-1.136zm.784-3.744v-.976h2.704v.976h-2.704zm2.96-.336l-1.056-.16 3.344-4.16h1.232l-3.52 4.32zm6.981 4.08v-7.712l.288.304h-3.472v-.992h7.504v.992h-3.472l.288-.304v7.712h-1.136zm5.324.08a.83.83 0 01-.608-.256.879.879 0 01-.24-.624c0-.256.08-.464.24-.624a.859.859 0 01.608-.24c.235 0 .432.08.592.24.171.16.256.368.256.624a.848.848 0 01-.256.624.779.779 0 01-.592.256zM24.04 47.243v-.976h6.192v.976H24.04zm1.408-6.08c.8 0 1.536.144 2.208.432a5.227 5.227 0 011.76 1.184 5.322 5.322 0 011.184 1.808c.277.693.416 1.45.416 2.272a6.07 6.07 0 01-.416 2.272 5.322 5.322 0 01-1.184 1.808 5.432 5.432 0 01-1.76 1.2 5.733 5.733 0 01-2.208.416 6.707 6.707 0 01-2.384-.416 4.63 4.63 0 01-1.84-1.232l.736-.752c.47.48.992.827 1.568 1.04.576.203 1.2.304 1.872.304.63 0 1.21-.117 1.744-.352a4.224 4.224 0 001.408-.976c.405-.416.72-.901.944-1.456a4.995 4.995 0 00.336-1.856c0-.672-.112-1.285-.336-1.84a4.414 4.414 0 00-.944-1.472 4.224 4.224 0 00-1.408-.976 4.282 4.282 0 00-1.744-.352 5.35 5.35 0 00-1.872.32 4.337 4.337 0 00-1.568 1.024l-.736-.752a4.63 4.63 0 011.84-1.232 6.707 6.707 0 012.384-.416zm9.495 11.296v-7.712l.288.304h-3.472v-.992h7.504v.992H35.79l.288-.304v7.712h-1.136zm9.027.08c-.81 0-1.54-.181-2.192-.544a4.155 4.155 0 01-1.52-1.52c-.373-.65-.56-1.392-.56-2.224 0-.843.187-1.584.56-2.224.374-.64.88-1.141 1.52-1.504s1.371-.544 2.192-.544c.832 0 1.568.181 2.208.544a3.884 3.884 0 011.52 1.504c.374.64.56 1.381.56 2.224 0 .832-.186 1.573-.56 2.224a4 4 0 01-1.52 1.52c-.65.363-1.386.544-2.208.544zm0-1.008c.608 0 1.147-.133 1.616-.4a2.94 2.94 0 001.104-1.152c.278-.501.416-1.077.416-1.728 0-.661-.138-1.237-.416-1.728a2.83 2.83 0 00-1.104-1.136 3.085 3.085 0 00-1.6-.416 3.09 3.09 0 00-1.6.416 2.94 2.94 0 00-1.12 1.136c-.277.49-.416 1.067-.416 1.728 0 .65.14 1.227.416 1.728.278.49.651.875 1.12 1.152.47.267.998.4 1.584.4zm10.904.928v-8.4h1.136v3.712h5.296v-3.712h1.136v8.4h-1.136v-3.712H56.01v3.712h-1.136zm14.397.08c-.875 0-1.643-.181-2.304-.544a4.086 4.086 0 01-1.552-1.52c-.374-.65-.56-1.392-.56-2.224 0-.832.176-1.568.528-2.208a3.987 3.987 0 011.472-1.504 4.061 4.061 0 012.112-.56c.789 0 1.488.181 2.096.544a3.732 3.732 0 011.456 1.504c.352.64.528 1.381.528 2.224 0 .053-.006.112-.016.176v.176h-7.312v-.848h6.704l-.448.336c0-.608-.134-1.147-.4-1.616a2.815 2.815 0 00-1.056-1.12c-.448-.267-.966-.4-1.552-.4a3.03 3.03 0 00-1.552.4 2.78 2.78 0 00-1.072 1.12c-.256.48-.384 1.03-.384 1.648v.176c0 .64.138 1.205.416 1.696.288.48.682.859 1.184 1.136.512.267 1.093.4 1.744.4.512 0 .986-.09 1.424-.272a2.962 2.962 0 001.152-.832l.64.736c-.374.448-.843.79-1.408 1.024a4.676 4.676 0 01-1.84.352zm10.478-.08v-8.4H87.3v8.4h-1.136v-7.712l.288.304h-5.856l.288-.304v7.712h-1.136zm15.117.08a3.937 3.937 0 01-1.968-.496 3.775 3.775 0 01-1.408-1.456c-.341-.64-.512-1.419-.512-2.336 0-.917.17-1.69.512-2.32.341-.64.805-1.125 1.392-1.456.587-.33 1.248-.496 1.984-.496.8 0 1.515.181 2.144.544.64.352 1.141.853 1.504 1.504.363.64.544 1.381.544 2.224 0 .853-.181 1.6-.544 2.24a3.919 3.919 0 01-1.504 1.504c-.63.363-1.344.544-2.144.544zm-4.336 3.024V44.059h1.088v2.528l-.112 1.68.16 1.696v5.6H90.53zm4.256-4.032c.597 0 1.13-.133 1.6-.4.47-.277.843-.661 1.12-1.152.277-.501.416-1.077.416-1.728 0-.65-.139-1.221-.416-1.712a3.059 3.059 0 00-1.12-1.152 3.086 3.086 0 00-1.6-.416c-.597 0-1.136.139-1.616.416-.47.277-.843.661-1.12 1.152-.267.49-.4 1.061-.4 1.712 0 .65.133 1.227.4 1.728.277.49.65.875 1.12 1.152.48.267 1.019.4 1.616.4zm10.169 1.008c-.811 0-1.542-.181-2.192-.544a4.152 4.152 0 01-1.52-1.52c-.374-.65-.56-1.392-.56-2.224 0-.843.186-1.584.56-2.224.373-.64.88-1.141 1.52-1.504s1.37-.544 2.192-.544c.832 0 1.568.181 2.208.544.65.363 1.157.864 1.52 1.504.373.64.56 1.381.56 2.224 0 .832-.187 1.573-.56 2.224a4.007 4.007 0 01-1.52 1.52c-.651.363-1.387.544-2.208.544zm0-1.008c.608 0 1.146-.133 1.616-.4a2.946 2.946 0 001.104-1.152c.277-.501.416-1.077.416-1.728 0-.661-.139-1.237-.416-1.728a2.835 2.835 0 00-1.104-1.136 3.088 3.088 0 00-1.6-.416c-.598 0-1.131.139-1.6.416-.47.267-.843.645-1.12 1.136-.278.49-.416 1.067-.416 1.728 0 .65.138 1.227.416 1.728.277.49.65.875 1.12 1.152.469.267.997.4 1.584.4zm10.236 1.008c-.832 0-1.579-.181-2.24-.544a4.114 4.114 0 01-1.536-1.52c-.374-.65-.56-1.392-.56-2.224 0-.843.186-1.584.56-2.224a3.997 3.997 0 011.536-1.504c.661-.363 1.408-.544 2.24-.544.714 0 1.36.139 1.936.416a3.139 3.139 0 011.36 1.248l-.848.576a2.67 2.67 0 00-1.072-.944 3.204 3.204 0 00-1.392-.304 3.17 3.17 0 00-1.616.416c-.48.267-.859.645-1.136 1.136-.278.49-.416 1.067-.416 1.728s.138 1.237.416 1.728c.277.49.656.875 1.136 1.152.48.267 1.018.4 1.616.4a3.2 3.2 0 001.392-.304 2.71 2.71 0 001.072-.928l.848.576c-.331.544-.784.96-1.36 1.248-.576.277-1.222.416-1.936.416zm6.939-.08v-7.712l.288.304h-3.472v-.992h7.504v.992h-3.472l.288-.304v7.712h-1.136zm9.028.08c-.811 0-1.541-.181-2.192-.544a4.152 4.152 0 01-1.52-1.52c-.373-.65-.56-1.392-.56-2.224 0-.843.187-1.584.56-2.224.373-.64.88-1.141 1.52-1.504s1.371-.544 2.192-.544c.832 0 1.568.181 2.208.544a3.888 3.888 0 011.52 1.504c.373.64.56 1.381.56 2.224 0 .832-.187 1.573-.56 2.224a4 4 0 01-1.52 1.52c-.651.363-1.387.544-2.208.544zm0-1.008c.608 0 1.147-.133 1.616-.4a2.946 2.946 0 001.104-1.152c.277-.501.416-1.077.416-1.728 0-.661-.139-1.237-.416-1.728a2.835 2.835 0 00-1.104-1.136 3.085 3.085 0 00-1.6-.416c-.597 0-1.131.139-1.6.416a2.94 2.94 0 00-1.12 1.136c-.277.49-.416 1.067-.416 1.728 0 .65.139 1.227.416 1.728.277.49.651.875 1.12 1.152.469.267.997.4 1.584.4zm17.063.928l-3.456-4.16.944-.56 3.856 4.72h-1.344zm-6.16 0v-8.4h1.136v8.4h-1.136zm.784-3.744v-.976h2.704v.976h-2.704zm2.96-.336l-1.056-.16 3.344-4.16h1.232l-3.52 4.32zm9.889 4.16a3.94 3.94 0 01-1.968-.496 3.78 3.78 0 01-1.408-1.456c-.341-.64-.512-1.419-.512-2.336 0-.917.171-1.69.512-2.32.342-.64.806-1.125 1.392-1.456.587-.33 1.248-.496 1.984-.496.8 0 1.515.181 2.144.544.64.352 1.142.853 1.504 1.504.363.64.544 1.381.544 2.224 0 .853-.181 1.6-.544 2.24a3.914 3.914 0 01-1.504 1.504c-.629.363-1.344.544-2.144.544zm-4.336 3.024V44.059h1.088v2.528l-.112 1.68.16 1.696v5.6h-1.136zm4.256-4.032c.598 0 1.131-.133 1.6-.4a3.05 3.05 0 001.12-1.152c.278-.501.416-1.077.416-1.728 0-.65-.138-1.221-.416-1.712a3.05 3.05 0 00-1.12-1.152 3.083 3.083 0 00-1.6-.416c-.597 0-1.136.139-1.616.416a3.065 3.065 0 00-1.12 1.152c-.266.49-.4 1.061-.4 1.712 0 .65.134 1.227.4 1.728.278.49.651.875 1.12 1.152.48.267 1.019.4 1.616.4zm11.882.928v-1.856l-.048-.304v-3.104c0-.715-.203-1.264-.608-1.648-.395-.384-.987-.576-1.776-.576-.544 0-1.061.09-1.552.272a3.945 3.945 0 00-1.248.72l-.512-.848c.427-.363.939-.64 1.536-.832a5.835 5.835 0 011.888-.304c1.088 0 1.925.272 2.512.816.597.533.896 1.35.896 2.448v5.216h-1.088zm-2.896.08c-.629 0-1.179-.101-1.648-.304-.459-.213-.811-.501-1.056-.864a2.28 2.28 0 01-.368-1.28c0-.437.101-.832.304-1.184.213-.363.555-.65 1.024-.864.48-.224 1.12-.336 1.92-.336h2.896v.848h-2.864c-.811 0-1.376.144-1.696.432a1.406 1.406 0 00-.464 1.072c0 .48.187.864.56 1.152.373.288.896.432 1.568.432.64 0 1.189-.144 1.648-.432a2.556 2.556 0 001.024-1.28l.256.784a2.658 2.658 0 01-1.12 1.328c-.523.33-1.184.496-1.984.496zm10.528 0c-.832 0-1.578-.181-2.24-.544a4.129 4.129 0 01-1.536-1.52c-.373-.65-.56-1.392-.56-2.224 0-.843.187-1.584.56-2.224a4.01 4.01 0 011.536-1.504c.662-.363 1.408-.544 2.24-.544.715 0 1.36.139 1.936.416a3.13 3.13 0 011.36 1.248l-.848.576a2.663 2.663 0 00-1.072-.944 3.198 3.198 0 00-1.392-.304c-.597 0-1.136.139-1.616.416-.48.267-.858.645-1.136 1.136-.277.49-.416 1.067-.416 1.728s.139 1.237.416 1.728c.278.49.656.875 1.136 1.152.48.267 1.019.4 1.616.4.502 0 .966-.101 1.392-.304a2.703 2.703 0 001.072-.928l.848.576c-.33.544-.784.96-1.36 1.248-.576.277-1.221.416-1.936.416zm5.496-.08v-8.4h1.136v6.672l5.616-6.672h1.008v8.4h-1.136v-6.688l-5.6 6.688h-1.024zm11.015 0v-8.4h3.712c.95 0 1.696.181 2.24.544.555.363.832.896.832 1.6 0 .683-.261 1.21-.784 1.584-.522.363-1.21.544-2.064.544l.224-.336c1.003 0 1.739.187 2.208.56.47.373.704.912.704 1.616 0 .725-.266 1.29-.8 1.696-.522.395-1.338.592-2.448.592h-3.824zm1.104-.896h2.672c.715 0 1.254-.112 1.616-.336.374-.235.56-.608.56-1.12 0-.512-.165-.885-.496-1.12-.33-.235-.853-.352-1.568-.352h-2.784v2.928zm0-3.776h2.528c.651 0 1.147-.123 1.488-.368.352-.245.528-.603.528-1.072 0-.47-.176-.821-.528-1.056-.341-.235-.837-.352-1.488-.352h-2.528v2.848zm16.823 4.672v-8.4h1.136v8.4h-1.136zm-4.656-5.44c1.056.01 1.861.245 2.416.704.554.459.832 1.12.832 1.984 0 .896-.299 1.584-.896 2.064-.598.48-1.451.715-2.56.704l-3.328-.016v-8.4h1.136v2.928l2.4.032zm-.288 4.592c.789.01 1.381-.144 1.776-.464.405-.33.608-.81.608-1.44 0-.63-.198-1.088-.592-1.376-.395-.299-.992-.453-1.792-.464l-2.112-.032v3.744l2.112.032zm9.314.848v-8.4h1.136v6.672l5.616-6.672h1.008v8.4h-1.136v-6.688l-5.6 6.688h-1.024zm3.808-9.616c-.704 0-1.274-.176-1.712-.528-.426-.363-.65-.88-.672-1.552h.816c.011.427.16.763.448 1.008.288.245.662.368 1.12.368.459 0 .832-.123 1.12-.368.299-.245.454-.581.464-1.008h.816c-.01.672-.234 1.19-.672 1.552-.437.352-1.013.528-1.728.528zm11.395 9.616v-8.4h5.952v.992h-5.104l.288-.288v7.696h-1.136zm10.66.08c-.811 0-1.542-.181-2.192-.544a4.152 4.152 0 01-1.52-1.52c-.374-.65-.56-1.392-.56-2.224 0-.843.186-1.584.56-2.224.373-.64.88-1.141 1.52-1.504s1.37-.544 2.192-.544c.832 0 1.568.181 2.208.544.65.363 1.157.864 1.52 1.504.373.64.56 1.381.56 2.224 0 .832-.187 1.573-.56 2.224a4.007 4.007 0 01-1.52 1.52c-.651.363-1.387.544-2.208.544zm0-1.008c.608 0 1.146-.133 1.616-.4a2.946 2.946 0 001.104-1.152c.277-.501.416-1.077.416-1.728 0-.661-.139-1.237-.416-1.728a2.835 2.835 0 00-1.104-1.136 3.088 3.088 0 00-1.6-.416c-.598 0-1.131.139-1.6.416-.47.267-.843.645-1.12 1.136-.278.49-.416 1.067-.416 1.728 0 .65.138 1.227.416 1.728.277.49.65.875 1.12 1.152.469.267.997.4 1.584.4zm5.133.912l.08-.976c.074.01.144.027.208.048.074.01.138.016.192.016a.988.988 0 00.816-.384c.213-.256.373-.597.48-1.024.106-.427.181-.907.224-1.44.042-.544.08-1.088.112-1.632l.144-2.992h6.16v8.4h-1.136v-7.744l.288.336h-4.576l.272-.352-.128 2.432a24.953 24.953 0 01-.176 2.08 8.401 8.401 0 01-.368 1.744c-.16.501-.384.896-.672 1.184-.288.277-.656.416-1.104.416a2.63 2.63 0 01-.4-.032 9.13 9.13 0 01-.416-.08zm15.101.096c-.811 0-1.541-.181-2.192-.544a4.152 4.152 0 01-1.52-1.52c-.373-.65-.56-1.392-.56-2.224 0-.843.187-1.584.56-2.224.373-.64.88-1.141 1.52-1.504s1.371-.544 2.192-.544c.832 0 1.568.181 2.208.544a3.888 3.888 0 011.52 1.504c.373.64.56 1.381.56 2.224 0 .832-.187 1.573-.56 2.224a4 4 0 01-1.52 1.52c-.651.363-1.387.544-2.208.544zm0-1.008c.608 0 1.147-.133 1.616-.4a2.946 2.946 0 001.104-1.152c.277-.501.416-1.077.416-1.728 0-.661-.139-1.237-.416-1.728a2.835 2.835 0 00-1.104-1.136 3.085 3.085 0 00-1.6-.416c-.597 0-1.131.139-1.6.416a2.94 2.94 0 00-1.12 1.136c-.277.49-.416 1.067-.416 1.728 0 .65.139 1.227.416 1.728.277.49.651.875 1.12 1.152.469.267.997.4 1.584.4zm10.236 1.008c-.832 0-1.579-.181-2.24-.544a4.114 4.114 0 01-1.536-1.52c-.374-.65-.56-1.392-.56-2.224 0-.843.186-1.584.56-2.224a3.997 3.997 0 011.536-1.504c.661-.363 1.408-.544 2.24-.544.714 0 1.36.139 1.936.416a3.139 3.139 0 011.36 1.248l-.848.576a2.67 2.67 0 00-1.072-.944 3.204 3.204 0 00-1.392-.304 3.17 3.17 0 00-1.616.416c-.48.267-.859.645-1.136 1.136-.278.49-.416 1.067-.416 1.728s.138 1.237.416 1.728c.277.49.656.875 1.136 1.152.48.267 1.018.4 1.616.4a3.2 3.2 0 001.392-.304 2.71 2.71 0 001.072-.928l.848.576c-.331.544-.784.96-1.36 1.248-.576.277-1.222.416-1.936.416zM79.257 72.459v-8.4h3.712c.949 0 1.696.181 2.24.544.554.363.832.896.832 1.6 0 .683-.262 1.21-.784 1.584-.523.363-1.211.544-2.064.544l.224-.336c1.002 0 1.738.187 2.208.56.469.373.704.912.704 1.616 0 .725-.267 1.29-.8 1.696-.523.395-1.339.592-2.448.592h-3.824zm1.104-.896h2.672c.714 0 1.253-.112 1.616-.336.373-.235.56-.608.56-1.12 0-.512-.166-.885-.496-1.12-.331-.235-.854-.352-1.568-.352H80.36v2.928zm0-3.776h2.528c.65 0 1.146-.123 1.488-.368.352-.245.528-.603.528-1.072 0-.47-.176-.821-.528-1.056-.342-.235-.838-.352-1.488-.352H80.36v2.848zm18.033 4.672v-1.856l-.047-.304v-3.104c0-.715-.203-1.264-.608-1.648-.395-.384-.987-.576-1.776-.576-.544 0-1.062.09-1.552.272a3.95 3.95 0 00-1.249.72l-.512-.848c.427-.363.94-.64 1.536-.832a5.835 5.835 0 011.888-.304c1.088 0 1.926.272 2.513.816.597.533.895 1.35.895 2.448v5.216h-1.088zm-2.895.08c-.63 0-1.18-.101-1.648-.304-.46-.213-.811-.501-1.056-.864a2.278 2.278 0 01-.368-1.28c0-.437.1-.832.303-1.184.214-.363.555-.65 1.024-.864.48-.224 1.12-.336 1.92-.336h2.896v.848h-2.863c-.811 0-1.376.144-1.697.432a1.406 1.406 0 00-.464 1.072c0 .48.187.864.56 1.152.374.288.897.432 1.569.432.64 0 1.189-.144 1.648-.432.469-.299.81-.725 1.024-1.28l.256.784a2.658 2.658 0 01-1.12 1.328c-.523.33-1.184.496-1.984.496zm7.152 3.104c-.395 0-.774-.064-1.136-.192a2.462 2.462 0 01-.912-.576l.528-.848c.213.203.442.357.688.464.256.117.538.176.848.176.373 0 .693-.107.96-.32.277-.203.538-.565.784-1.088l.544-1.232.128-.176 3.456-7.792h1.12l-4.208 9.408c-.235.544-.496.976-.784 1.296-.278.32-.582.544-.912.672a2.83 2.83 0 01-1.104.208zm2.24-2.944l-3.872-8.64h1.184l3.424 7.712-.736.928zm11.923-.784v-6.864h-4.048l-.096 1.872c-.022.565-.059 1.12-.112 1.664a8.942 8.942 0 01-.24 1.504c-.107.448-.262.816-.464 1.104a1.127 1.127 0 01-.784.48l-1.136-.208a.99.99 0 00.816-.352c.213-.256.378-.603.496-1.04.117-.437.202-.933.256-1.488.053-.565.096-1.141.128-1.728l.112-2.8h6.208v7.856h-1.136zm-7.232 2.576v-3.024h9.68v3.024h-1.072v-2.032h-7.536v2.032h-1.072zm11.893-2.032v-8.4h1.136v6.672l5.616-6.672h1.008v8.4h-1.136v-6.688l-5.6 6.688h-1.024zm14.472.08c-.811 0-1.541-.181-2.192-.544a4.152 4.152 0 01-1.52-1.52c-.373-.65-.56-1.392-.56-2.224 0-.843.187-1.584.56-2.224.373-.64.88-1.141 1.52-1.504s1.371-.544 2.192-.544c.832 0 1.568.181 2.208.544a3.888 3.888 0 011.52 1.504c.373.64.56 1.381.56 2.224 0 .832-.187 1.573-.56 2.224a4 4 0 01-1.52 1.52c-.651.363-1.387.544-2.208.544zm0-1.008c.608 0 1.147-.133 1.616-.4a2.946 2.946 0 001.104-1.152c.277-.501.416-1.077.416-1.728 0-.661-.139-1.237-.416-1.728a2.835 2.835 0 00-1.104-1.136 3.085 3.085 0 00-1.6-.416c-.597 0-1.131.139-1.6.416a2.94 2.94 0 00-1.12 1.136c-.277.49-.416 1.067-.416 1.728 0 .65.139 1.227.416 1.728.277.49.651.875 1.12 1.152.469.267.997.4 1.584.4zm11.436 1.024h-.272c-1.664-.01-2.96-.39-3.888-1.136-.928-.747-1.392-1.808-1.392-3.184 0-1.355.464-2.4 1.392-3.136.939-.747 2.256-1.125 3.952-1.136h.24c1.707.01 3.035.39 3.984 1.136.949.736 1.424 1.781 1.424 3.136 0 1.387-.48 2.453-1.44 3.2-.949.747-2.283 1.12-4 1.12zm-.016-.992c.949 0 1.744-.128 2.384-.384.64-.267 1.125-.645 1.456-1.136.331-.49.496-1.093.496-1.808 0-.693-.165-1.28-.496-1.76-.331-.49-.816-.864-1.456-1.12-.64-.256-1.435-.384-2.384-.384h-.176c-.928 0-1.707.133-2.336.4-.629.256-1.104.624-1.424 1.104-.32.48-.48 1.067-.48 1.76 0 .704.16 1.301.48 1.792.331.49.811.87 1.44 1.136.629.256 1.403.39 2.32.4h.176zm-.608 4V60.587h1.104v14.976h-1.104zm11.922-3.024c-.81 0-1.541-.181-2.192-.544a4.16 4.16 0 01-1.52-1.52c-.373-.65-.56-1.392-.56-2.224 0-.843.187-1.584.56-2.224.374-.64.88-1.141 1.52-1.504s1.371-.544 2.192-.544c.832 0 1.568.181 2.208.544a3.882 3.882 0 011.52 1.504c.374.64.56 1.381.56 2.224 0 .832-.186 1.573-.56 2.224a3.993 3.993 0 01-1.52 1.52c-.65.363-1.386.544-2.208.544zm0-1.008c.608 0 1.147-.133 1.616-.4.47-.277.838-.661 1.104-1.152.278-.501.416-1.077.416-1.728 0-.661-.138-1.237-.416-1.728a2.822 2.822 0 00-1.104-1.136 3.083 3.083 0 00-1.6-.416 3.09 3.09 0 00-1.6.416 2.947 2.947 0 00-1.12 1.136c-.277.49-.416 1.067-.416 1.728 0 .65.139 1.227.416 1.728.278.49.651.875 1.12 1.152.47.267.998.4 1.584.4zm11.052 1.008a3.94 3.94 0 01-1.968-.496 3.78 3.78 0 01-1.408-1.456c-.341-.64-.512-1.419-.512-2.336 0-.917.171-1.69.512-2.32.342-.64.806-1.125 1.392-1.456.587-.33 1.248-.496 1.984-.496.8 0 1.515.181 2.144.544.64.352 1.142.853 1.504 1.504.363.64.544 1.381.544 2.224 0 .853-.181 1.6-.544 2.24a3.914 3.914 0 01-1.504 1.504c-.629.363-1.344.544-2.144.544zm-4.336 3.024V64.059h1.088v2.528l-.112 1.68.16 1.696v5.6h-1.136zm4.256-4.032c.598 0 1.131-.133 1.6-.4a3.05 3.05 0 001.12-1.152c.278-.501.416-1.077.416-1.728 0-.65-.138-1.221-.416-1.712a3.05 3.05 0 00-1.12-1.152 3.083 3.083 0 00-1.6-.416c-.597 0-1.136.139-1.616.416a3.065 3.065 0 00-1.12 1.152c-.266.49-.4 1.061-.4 1.712 0 .65.134 1.227.4 1.728.278.49.651.875 1.12 1.152.48.267 1.019.4 1.616.4zm6.713.928v-8.4h1.152l3.808 6.448h-.48l3.872-6.448h1.056v8.4h-1.04v-7.104l.208.096-3.616 5.984h-.512l-3.648-6.048.24-.048v7.12h-1.04zm17.857 0v-1.856l-.048-.304v-3.104c0-.715-.203-1.264-.608-1.648-.395-.384-.987-.576-1.776-.576-.544 0-1.062.09-1.552.272a3.945 3.945 0 00-1.248.72l-.512-.848c.426-.363.938-.64 1.536-.832a5.83 5.83 0 011.888-.304c1.088 0 1.925.272 2.512.816.597.533.896 1.35.896 2.448v5.216h-1.088zm-2.896.08c-.63 0-1.179-.101-1.648-.304-.459-.213-.811-.501-1.056-.864a2.273 2.273 0 01-.368-1.28c0-.437.101-.832.304-1.184.213-.363.554-.65 1.024-.864.48-.224 1.12-.336 1.92-.336h2.896v.848h-2.864c-.811 0-1.376.144-1.696.432-.31.288-.464.645-.464 1.072 0 .48.186.864.56 1.152.373.288.896.432 1.568.432.64 0 1.189-.144 1.648-.432.469-.299.81-.725 1.024-1.28l.256.784a2.663 2.663 0 01-1.12 1.328c-.523.33-1.184.496-1.984.496zm8.608-.08v-7.712l.288.304h-3.472v-.992h7.504v.992h-3.472l.288-.304v7.712h-1.136zm9.172.08c-.875 0-1.643-.181-2.304-.544a4.079 4.079 0 01-1.552-1.52c-.374-.65-.56-1.392-.56-2.224 0-.832.176-1.568.528-2.208a3.98 3.98 0 011.472-1.504 4.06 4.06 0 012.112-.56c.789 0 1.488.181 2.096.544a3.736 3.736 0 011.456 1.504c.352.64.528 1.381.528 2.224 0 .053-.006.112-.016.176v.176h-7.312v-.848h6.704l-.448.336c0-.608-.134-1.147-.4-1.616a2.815 2.815 0 00-1.056-1.12c-.448-.267-.966-.4-1.552-.4-.576 0-1.094.133-1.552.4a2.78 2.78 0 00-1.072 1.12c-.256.48-.384 1.03-.384 1.648v.176c0 .64.138 1.205.416 1.696.288.48.682.859 1.184 1.136.512.267 1.093.4 1.744.4.512 0 .986-.09 1.424-.272a2.962 2.962 0 001.152-.832l.64.736a3.6 3.6 0 01-1.408 1.024 4.677 4.677 0 01-1.84.352zm6.37 0a.832.832 0 01-.608-.256.879.879 0 01-.24-.624c0-.256.08-.464.24-.624a.86.86 0 01.608-.24c.235 0 .432.08.592.24.171.16.256.368.256.624a.848.848 0 01-.256.624.779.779 0 01-.592.256zM2.985 87.243v-.976h6.192v.976H2.985zm1.408-6.08c.8 0 1.536.144 2.208.432a5.226 5.226 0 011.76 1.184 5.321 5.321 0 011.184 1.808c.278.693.416 1.45.416 2.272a6.05 6.05 0 01-.416 2.272 5.321 5.321 0 01-1.184 1.808 5.431 5.431 0 01-1.76 1.2 5.733 5.733 0 01-2.208.416 6.707 6.707 0 01-2.384-.416 4.63 4.63 0 01-1.84-1.232l.736-.752c.47.48.992.827 1.568 1.04.576.203 1.2.304 1.872.304.63 0 1.211-.117 1.744-.352a4.223 4.223 0 001.408-.976c.406-.416.72-.901.944-1.456a4.995 4.995 0 00.336-1.856c0-.672-.112-1.285-.336-1.84a4.413 4.413 0 00-.944-1.472 4.223 4.223 0 00-1.408-.976 4.282 4.282 0 00-1.744-.352 5.35 5.35 0 00-1.872.32 4.337 4.337 0 00-1.568 1.024l-.736-.752a4.63 4.63 0 011.84-1.232 6.707 6.707 0 012.384-.416zm9.495 11.296v-7.712l.288.304h-3.472v-.992h7.504v.992h-3.472l.288-.304v7.712h-1.136zm9.028.08c-.81 0-1.542-.181-2.192-.544a4.154 4.154 0 01-1.52-1.52c-.374-.65-.56-1.392-.56-2.224 0-.843.186-1.584.56-2.224.373-.64.88-1.141 1.52-1.504s1.37-.544 2.192-.544c.832 0 1.568.181 2.208.544.65.363 1.157.864 1.52 1.504.373.64.56 1.381.56 2.224 0 .832-.187 1.573-.56 2.224a4.001 4.001 0 01-1.52 1.52c-.65.363-1.387.544-2.208.544zm0-1.008c.608 0 1.146-.133 1.616-.4.47-.277.837-.661 1.104-1.152.277-.501.416-1.077.416-1.728 0-.661-.139-1.237-.416-1.728a2.831 2.831 0 00-1.104-1.136 3.086 3.086 0 00-1.6-.416c-.598 0-1.13.139-1.6.416a2.94 2.94 0 00-1.12 1.136c-.278.49-.416 1.067-.416 1.728 0 .65.138 1.227.416 1.728.277.49.65.875 1.12 1.152.47.267.997.4 1.584.4zm10.903.928v-8.4h7.552v8.4h-1.136v-7.712l.288.304h-5.856l.288-.304v7.712H33.82zm15.117.08a3.937 3.937 0 01-1.968-.496 3.775 3.775 0 01-1.408-1.456c-.341-.64-.512-1.419-.512-2.336 0-.917.171-1.69.512-2.32.342-.64.806-1.125 1.392-1.456.587-.33 1.248-.496 1.984-.496.8 0 1.515.181 2.144.544.64.352 1.142.853 1.504 1.504.363.64.544 1.381.544 2.224 0 .853-.181 1.6-.544 2.24a3.919 3.919 0 01-1.504 1.504c-.629.363-1.344.544-2.144.544zM44.6 95.563V84.059h1.088v2.528l-.112 1.68.16 1.696v5.6H44.6zm4.256-4.032c.598 0 1.131-.133 1.6-.4.47-.277.843-.661 1.12-1.152.278-.501.416-1.077.416-1.728 0-.65-.138-1.221-.416-1.712a3.059 3.059 0 00-1.12-1.152 3.086 3.086 0 00-1.6-.416c-.597 0-1.136.139-1.616.416a3.06 3.06 0 00-1.12 1.152c-.266.49-.4 1.061-.4 1.712 0 .65.134 1.227.4 1.728.278.49.651.875 1.12 1.152.48.267 1.019.4 1.616.4zm10.17 1.008c-.812 0-1.542-.181-2.193-.544a4.155 4.155 0 01-1.52-1.52c-.373-.65-.56-1.392-.56-2.224 0-.843.187-1.584.56-2.224.373-.64.88-1.141 1.52-1.504s1.37-.544 2.192-.544c.832 0 1.568.181 2.208.544a3.89 3.89 0 011.52 1.504c.373.64.56 1.381.56 2.224 0 .832-.187 1.573-.56 2.224a4 4 0 01-1.52 1.52c-.65.363-1.386.544-2.208.544zm0-1.008c.607 0 1.146-.133 1.615-.4a2.94 2.94 0 001.104-1.152c.278-.501.416-1.077.416-1.728 0-.661-.139-1.237-.416-1.728a2.83 2.83 0 00-1.104-1.136 3.085 3.085 0 00-1.6-.416 3.09 3.09 0 00-1.6.416 2.94 2.94 0 00-1.12 1.136c-.277.49-.416 1.067-.416 1.728 0 .65.139 1.227.416 1.728.278.49.65.875 1.12 1.152.47.267.997.4 1.584.4zm11.435 1.024h-.272c-1.664-.01-2.96-.39-3.888-1.136-.928-.747-1.392-1.808-1.392-3.184 0-1.355.464-2.4 1.392-3.136.939-.747 2.256-1.125 3.952-1.136h.24c1.707.01 3.035.39 3.984 1.136.95.736 1.424 1.781 1.424 3.136 0 1.387-.48 2.453-1.44 3.2-.95.747-2.283 1.12-4 1.12zm-.016-.992c.95 0 1.744-.128 2.384-.384.64-.267 1.125-.645 1.456-1.136.33-.49.496-1.093.496-1.808 0-.693-.165-1.28-.496-1.76-.33-.49-.816-.864-1.456-1.12-.64-.256-1.435-.384-2.384-.384h-.176c-.928 0-1.707.133-2.336.4-.63.256-1.104.624-1.424 1.104-.32.48-.48 1.067-.48 1.76 0 .704.16 1.301.48 1.792.33.49.81.87 1.44 1.136.63.256 1.403.39 2.32.4h.176zm-.608 4V80.587h1.104v14.976h-1.104zm12.066-3.024c-.874 0-1.642-.181-2.303-.544a4.086 4.086 0 01-1.552-1.52c-.374-.65-.56-1.392-.56-2.224 0-.832.175-1.568.528-2.208a3.987 3.987 0 011.471-1.504 4.061 4.061 0 012.113-.56c.789 0 1.488.181 2.096.544a3.732 3.732 0 011.456 1.504c.352.64.528 1.381.528 2.224 0 .053-.006.112-.017.176v.176h-7.311v-.848h6.703l-.448.336c0-.608-.133-1.147-.4-1.616a2.815 2.815 0 00-1.055-1.12c-.448-.267-.966-.4-1.552-.4a3.03 3.03 0 00-1.552.4 2.78 2.78 0 00-1.073 1.12c-.255.48-.383 1.03-.383 1.648v.176c0 .64.138 1.205.415 1.696.288.48.683.859 1.184 1.136.513.267 1.094.4 1.745.4.511 0 .986-.09 1.423-.272a2.962 2.962 0 001.153-.832l.64.736a3.59 3.59 0 01-1.409 1.024 4.676 4.676 0 01-1.84.352zm9.811 0c-.832 0-1.579-.181-2.24-.544a4.12 4.12 0 01-1.536-1.52c-.373-.65-.56-1.392-.56-2.224 0-.843.187-1.584.56-2.224a4.002 4.002 0 011.536-1.504c.661-.363 1.408-.544 2.24-.544.715 0 1.36.139 1.936.416a3.13 3.13 0 011.36 1.248l-.848.576a2.665 2.665 0 00-1.072-.944 3.202 3.202 0 00-1.392-.304c-.597 0-1.136.139-1.616.416-.48.267-.858.645-1.136 1.136-.277.49-.416 1.067-.416 1.728s.139 1.237.416 1.728c.278.49.656.875 1.136 1.152.48.267 1.019.4 1.616.4.502 0 .966-.101 1.392-.304a2.705 2.705 0 001.072-.928l.848.576a3.27 3.27 0 01-1.36 1.248c-.576.277-1.221.416-1.936.416zm8.875 0c-.832 0-1.579-.181-2.24-.544a4.12 4.12 0 01-1.536-1.52c-.373-.65-.56-1.392-.56-2.224 0-.843.187-1.584.56-2.224a4.002 4.002 0 011.536-1.504c.661-.363 1.408-.544 2.24-.544.715 0 1.36.139 1.936.416a3.139 3.139 0 011.36 1.248l-.848.576a2.663 2.663 0 00-1.072-.944 3.204 3.204 0 00-1.392-.304c-.597 0-1.136.139-1.616.416-.48.267-.858.645-1.136 1.136-.277.49-.416 1.067-.416 1.728s.139 1.237.416 1.728c.278.49.656.875 1.136 1.152.48.267 1.019.4 1.616.4a3.2 3.2 0 001.392-.304 2.703 2.703 0 001.072-.928l.848.576c-.331.544-.784.96-1.36 1.248-.576.277-1.221.416-1.936.416zm5.496-.08v-8.4h1.136v6.672l5.616-6.672h1.008v8.4h-1.136v-6.688l-5.6 6.688h-1.024zm14.471.08c-.81 0-1.541-.181-2.192-.544a4.16 4.16 0 01-1.52-1.52c-.373-.65-.56-1.392-.56-2.224 0-.843.187-1.584.56-2.224.374-.64.88-1.141 1.52-1.504s1.371-.544 2.192-.544c.832 0 1.568.181 2.208.544a3.882 3.882 0 011.52 1.504c.374.64.56 1.381.56 2.224 0 .832-.186 1.573-.56 2.224a3.993 3.993 0 01-1.52 1.52c-.65.363-1.386.544-2.208.544zm0-1.008c.608 0 1.147-.133 1.616-.4.47-.277.838-.661 1.104-1.152.278-.501.416-1.077.416-1.728 0-.661-.138-1.237-.416-1.728a2.822 2.822 0 00-1.104-1.136 3.083 3.083 0 00-1.6-.416 3.09 3.09 0 00-1.6.416 2.947 2.947 0 00-1.12 1.136c-.277.49-.416 1.067-.416 1.728 0 .65.139 1.227.416 1.728.278.49.651.875 1.12 1.152.47.267.998.4 1.584.4zm6.716.928v-8.4h1.136v3.712h5.296v-3.712h1.136v8.4h-1.136v-3.712h-5.296v3.712h-1.136zm16.013 0v-1.856l-.048-.304v-3.104c0-.715-.203-1.264-.608-1.648-.395-.384-.987-.576-1.776-.576-.544 0-1.061.09-1.552.272a3.945 3.945 0 00-1.248.72l-.512-.848c.427-.363.939-.64 1.536-.832a5.835 5.835 0 011.888-.304c1.088 0 1.925.272 2.512.816.597.533.896 1.35.896 2.448v5.216h-1.088zm-2.896.08c-.629 0-1.179-.101-1.648-.304-.459-.213-.811-.501-1.056-.864a2.28 2.28 0 01-.368-1.28c0-.437.101-.832.304-1.184.213-.363.555-.65 1.024-.864.48-.224 1.12-.336 1.92-.336h2.896v.848h-2.864c-.811 0-1.376.144-1.696.432a1.406 1.406 0 00-.464 1.072c0 .48.187.864.56 1.152.373.288.896.432 1.568.432.64 0 1.189-.144 1.648-.432a2.556 2.556 0 001.024-1.28l.256.784a2.658 2.658 0 01-1.12 1.328c-.523.33-1.184.496-1.984.496zm5.472-.096l.08-.976c.075.01.144.027.208.048.075.01.139.016.192.016a.985.985 0 00.816-.384c.214-.256.374-.597.48-1.024.107-.427.182-.907.224-1.44.043-.544.08-1.088.112-1.632l.144-2.992h6.16v8.4h-1.136v-7.744l.288.336h-4.576l.272-.352-.128 2.432c-.032.725-.09 1.419-.176 2.08a8.274 8.274 0 01-.368 1.744c-.16.501-.384.896-.672 1.184-.288.277-.656.416-1.104.416a2.64 2.64 0 01-.4-.032 9.4 9.4 0 01-.416-.08zm15.262-5.424c1.056.01 1.856.245 2.4.704.554.459.832 1.12.832 1.984 0 .896-.299 1.584-.896 2.064-.587.48-1.44.715-2.56.704l-3.392-.016v-8.4h1.136v2.928l2.48.032zm-.288 4.592c.778.01 1.365-.144 1.76-.464.405-.33.608-.81.608-1.44 0-.63-.198-1.088-.592-1.376-.395-.299-.987-.453-1.776-.464l-2.192-.032v3.744l2.192.032zm5.687.848v-8.4h1.136v3.712h5.296v-3.712h1.136v8.4h-1.136v-3.712h-5.296v3.712h-1.136zm18.989 0v-8.4h1.136v8.4h-1.136zm-4.656-5.44c1.056.01 1.861.245 2.416.704.555.459.832 1.12.832 1.984 0 .896-.299 1.584-.896 2.064s-1.451.715-2.56.704l-3.328-.016v-8.4h1.136v2.928l2.4.032zm-.288 4.592c.789.01 1.381-.144 1.776-.464.405-.33.608-.81.608-1.44 0-.63-.197-1.088-.592-1.376-.395-.299-.992-.453-1.792-.464l-2.112-.032v3.744l2.112.032zm12.915.928c-.875 0-1.643-.181-2.304-.544a4.079 4.079 0 01-1.552-1.52c-.374-.65-.56-1.392-.56-2.224 0-.832.176-1.568.528-2.208a3.98 3.98 0 011.472-1.504 4.06 4.06 0 012.112-.56c.789 0 1.488.181 2.096.544a3.736 3.736 0 011.456 1.504c.352.64.528 1.381.528 2.224 0 .053-.006.112-.016.176v.176h-7.312v-.848h6.704l-.448.336c0-.608-.134-1.147-.4-1.616a2.815 2.815 0 00-1.056-1.12c-.448-.267-.966-.4-1.552-.4-.576 0-1.094.133-1.552.4a2.78 2.78 0 00-1.072 1.12c-.256.48-.384 1.03-.384 1.648v.176c0 .64.138 1.205.416 1.696.288.48.682.859 1.184 1.136.512.267 1.093.4 1.744.4.512 0 .986-.09 1.424-.272a2.962 2.962 0 001.152-.832l.64.736a3.6 3.6 0 01-1.408 1.024 4.677 4.677 0 01-1.84.352zm10.478-.08v-8.4h1.152l3.808 6.448h-.48l3.872-6.448h1.056v8.4h-1.04v-7.104l.208.096-3.616 5.984h-.512l-3.648-6.048.24-.048v7.12h-1.04zm16.24.08c-.874 0-1.642-.181-2.304-.544a4.093 4.093 0 01-1.552-1.52c-.373-.65-.56-1.392-.56-2.224 0-.832.176-1.568.528-2.208a3.994 3.994 0 011.472-1.504 4.065 4.065 0 012.112-.56c.79 0 1.488.181 2.096.544a3.73 3.73 0 011.456 1.504c.352.64.528 1.381.528 2.224 0 .053-.005.112-.016.176v.176h-7.312v-.848h6.704l-.448.336c0-.608-.133-1.147-.4-1.616a2.815 2.815 0 00-1.056-1.12c-.448-.267-.965-.4-1.552-.4-.576 0-1.093.133-1.552.4-.458.267-.816.64-1.072 1.12-.256.48-.384 1.03-.384 1.648v.176c0 .64.139 1.205.416 1.696.288.48.683.859 1.184 1.136.512.267 1.094.4 1.744.4.512 0 .987-.09 1.424-.272a2.962 2.962 0 001.152-.832l.64.736c-.373.448-.842.79-1.408 1.024a4.673 4.673 0 01-1.84.352zm11.879-.624v-6.864h-4.048l-.096 1.872c-.021.565-.059 1.12-.112 1.664a8.942 8.942 0 01-.24 1.504c-.107.448-.261.816-.464 1.104a1.127 1.127 0 01-.784.48l-1.136-.208a.987.987 0 00.816-.352c.213-.256.379-.603.496-1.04.117-.437.203-.933.256-1.488.053-.565.096-1.141.128-1.728l.112-2.8h6.208v7.856h-1.136zm-7.232 2.576v-3.024h9.68v3.024h-1.072v-2.032h-7.536v2.032h-1.072zm11.894-2.032v-8.4h1.136v6.672l5.616-6.672h1.008v8.4h-1.136v-6.688l-5.6 6.688h-1.024zm12.616 0v-7.712l.288.304h-3.472v-.992h7.504v.992h-3.472l.288-.304v7.712h-1.136zm11.178 0v-1.856l-.048-.304v-3.104c0-.715-.203-1.264-.608-1.648-.395-.384-.987-.576-1.776-.576-.544 0-1.061.09-1.552.272a3.945 3.945 0 00-1.248.72l-.512-.848c.427-.363.939-.64 1.536-.832a5.835 5.835 0 011.888-.304c1.088 0 1.925.272 2.512.816.597.533.896 1.35.896 2.448v5.216h-1.088zm-2.896.08c-.629 0-1.179-.101-1.648-.304-.459-.213-.811-.501-1.056-.864a2.28 2.28 0 01-.368-1.28c0-.437.101-.832.304-1.184.213-.363.555-.65 1.024-.864.48-.224 1.12-.336 1.92-.336h2.896v.848h-2.864c-.811 0-1.376.144-1.696.432a1.406 1.406 0 00-.464 1.072c0 .48.187.864.56 1.152.373.288.896.432 1.568.432.64 0 1.189-.144 1.648-.432a2.556 2.556 0 001.024-1.28l.256.784a2.658 2.658 0 01-1.12 1.328c-.523.33-1.184.496-1.984.496zm7.008-.08v-8.4h1.136v7.408h5.136v-7.408h1.136v8.4h-7.408zm7.696 2.032v-2.128l.288.096h-1.712v-.992h2.496v3.024h-1.072zm3.242-2.032v-8.4h1.136v6.672l5.616-6.672h1.008v8.4h-1.136v-6.688l-5.6 6.688h-1.024zm11.015 0v-8.4h1.136v6.672l5.616-6.672h1.008v8.4h-1.136v-6.688l-5.6 6.688H286.6zm10.296 2.336l.704-2.96.128.688a.88.88 0 01-.624-.24.844.844 0 01-.24-.624c0-.256.08-.464.24-.624a.859.859 0 01.608-.24c.245 0 .443.085.592.256.16.17.24.373.24.608a1.825 1.825 0 01-.08.544 8.403 8.403 0 01-.128.384l-.672 2.208h-.768zM27.018 112.459l-3.456-4.16.944-.56 3.856 4.72h-1.344zm-6.16 0v-8.4h1.136v8.4h-1.136zm.784-3.744v-.976h2.704v.976h-2.704zm2.96-.336l-1.056-.16 3.344-4.16h1.232l-3.52 4.32zm8.712 4.16c-.81 0-1.541-.181-2.192-.544a4.152 4.152 0 01-1.52-1.52c-.373-.651-.56-1.392-.56-2.224 0-.843.187-1.584.56-2.224.373-.64.88-1.141 1.52-1.504s1.37-.544 2.192-.544c.832 0 1.568.181 2.208.544a3.89 3.89 0 011.52 1.504c.373.64.56 1.381.56 2.224 0 .832-.186 1.573-.56 2.224a3.998 3.998 0 01-1.52 1.52c-.65.363-1.386.544-2.208.544zm0-1.008c.608 0 1.147-.133 1.616-.4.47-.277.837-.661 1.104-1.152.278-.501.416-1.077.416-1.728 0-.661-.139-1.237-.416-1.728a2.831 2.831 0 00-1.104-1.136 3.088 3.088 0 00-1.6-.416 3.09 3.09 0 00-1.6.416 2.94 2.94 0 00-1.12 1.136c-.277.491-.416 1.067-.416 1.728 0 .651.139 1.227.416 1.728.277.491.65.875 1.12 1.152.47.267.997.4 1.584.4zm8.004.928v-7.712l.288.304h-3.472v-.992h7.504v.992h-3.472l.288-.304v7.712h-1.136zm9.027.08c-.81 0-1.54-.181-2.192-.544a4.153 4.153 0 01-1.52-1.52c-.373-.651-.56-1.392-.56-2.224 0-.843.187-1.584.56-2.224.374-.64.88-1.141 1.52-1.504s1.371-.544 2.192-.544c.832 0 1.568.181 2.208.544a3.89 3.89 0 011.52 1.504c.374.64.56 1.381.56 2.224 0 .832-.186 1.573-.56 2.224a3.998 3.998 0 01-1.52 1.52c-.65.363-1.386.544-2.208.544zm0-1.008c.608 0 1.147-.133 1.616-.4.47-.277.838-.661 1.104-1.152.278-.501.416-1.077.416-1.728 0-.661-.138-1.237-.416-1.728a2.83 2.83 0 00-1.104-1.136 3.088 3.088 0 00-1.6-.416 3.09 3.09 0 00-1.6.416 2.94 2.94 0 00-1.12 1.136c-.277.491-.416 1.067-.416 1.728 0 .651.14 1.227.416 1.728a3.06 3.06 0 001.12 1.152c.47.267.998.4 1.584.4zm11.052 1.008a3.935 3.935 0 01-1.968-.496 3.775 3.775 0 01-1.408-1.456c-.341-.64-.512-1.419-.512-2.336 0-.917.171-1.691.512-2.32.342-.64.806-1.125 1.392-1.456.587-.331 1.248-.496 1.984-.496.8 0 1.515.181 2.144.544.64.352 1.142.853 1.504 1.504.363.64.544 1.381.544 2.224 0 .853-.181 1.6-.544 2.24a3.921 3.921 0 01-1.504 1.504c-.629.363-1.344.544-2.144.544zm-4.336 3.024v-11.504h1.088v2.528l-.112 1.68.16 1.696v5.6h-1.136zm4.256-4.032c.598 0 1.131-.133 1.6-.4.47-.277.843-.661 1.12-1.152.278-.501.416-1.077.416-1.728s-.138-1.221-.416-1.712a3.053 3.053 0 00-1.12-1.152 3.088 3.088 0 00-1.6-.416c-.597 0-1.136.139-1.616.416a3.06 3.06 0 00-1.12 1.152c-.266.491-.4 1.061-.4 1.712s.134 1.227.4 1.728a3.06 3.06 0 001.12 1.152c.48.267 1.019.4 1.616.4zm14.905.928v-8.4h1.136v8.4h-1.136zm-4.656-5.44c1.056.011 1.861.245 2.416.704.555.459.832 1.12.832 1.984 0 .896-.299 1.584-.896 2.064s-1.45.715-2.56.704l-3.328-.016v-8.4h1.136v2.928l2.4.032zm-.288 4.592c.79.011 1.381-.144 1.776-.464.405-.331.608-.811.608-1.44 0-.629-.197-1.088-.592-1.376-.395-.299-.992-.453-1.792-.464l-2.112-.032v3.744l2.112.032zm12.915.928c-.875 0-1.643-.181-2.304-.544a4.083 4.083 0 01-1.552-1.52c-.374-.651-.56-1.392-.56-2.224 0-.832.176-1.568.528-2.208a3.989 3.989 0 011.472-1.504 4.064 4.064 0 012.112-.56c.789 0 1.488.181 2.096.544a3.73 3.73 0 011.456 1.504c.352.64.528 1.381.528 2.224 0 .053-.006.112-.016.176v.176H80.64v-.848h6.704l-.448.336c0-.608-.134-1.147-.4-1.616a2.817 2.817 0 00-1.056-1.12c-.448-.267-.966-.4-1.552-.4-.576 0-1.094.133-1.552.4-.46.267-.816.64-1.072 1.12-.256.48-.384 1.029-.384 1.648v.176c0 .64.138 1.205.416 1.696.288.48.682.859 1.184 1.136.512.267 1.093.4 1.744.4a3.69 3.69 0 001.424-.272 2.962 2.962 0 001.152-.832l.64.736a3.596 3.596 0 01-1.408 1.024 4.67 4.67 0 01-1.84.352zm14.814 0a3.935 3.935 0 01-1.968-.496 3.775 3.775 0 01-1.408-1.456c-.342-.64-.512-1.419-.512-2.336 0-.917.17-1.691.512-2.32.341-.64.805-1.125 1.392-1.456.586-.331 1.248-.496 1.984-.496.8 0 1.514.181 2.144.544.64.352 1.141.853 1.504 1.504.362.64.544 1.381.544 2.224 0 .853-.182 1.6-.544 2.24a3.923 3.923 0 01-1.504 1.504c-.63.363-1.344.544-2.144.544zm-4.336 3.024v-11.504h1.088v2.528l-.112 1.68.16 1.696v5.6H94.67zm4.256-4.032c.597 0 1.13-.133 1.6-.4a3.06 3.06 0 001.12-1.152c.277-.501.416-1.077.416-1.728s-.139-1.221-.416-1.712a3.06 3.06 0 00-1.12-1.152 3.091 3.091 0 00-1.6-.416c-.598 0-1.136.139-1.616.416-.47.277-.843.661-1.12 1.152-.267.491-.4 1.061-.4 1.712s.133 1.227.4 1.728c.277.491.65.875 1.12 1.152.48.267 1.018.4 1.616.4zm11.882.928v-1.856l-.048-.304v-3.104c0-.715-.203-1.264-.608-1.648-.395-.384-.987-.576-1.776-.576-.544 0-1.062.091-1.552.272a3.934 3.934 0 00-1.248.72l-.512-.848c.426-.363.938-.64 1.536-.832a5.823 5.823 0 011.888-.304c1.088 0 1.925.272 2.512.816.597.533.896 1.349.896 2.448v5.216h-1.088zm-2.896.08c-.63 0-1.179-.101-1.648-.304-.459-.213-.811-.501-1.056-.864a2.272 2.272 0 01-.368-1.28c0-.437.101-.832.304-1.184.213-.363.554-.651 1.024-.864.48-.224 1.12-.336 1.92-.336h2.896v.848h-2.864c-.811 0-1.376.144-1.696.432-.31.288-.464.645-.464 1.072 0 .48.186.864.56 1.152.373.288.896.432 1.568.432.64 0 1.189-.144 1.648-.432.469-.299.81-.725 1.024-1.28l.256.784a2.663 2.663 0 01-1.12 1.328c-.523.331-1.184.496-1.984.496zm10.784.016c-.683 0-1.291-.112-1.824-.336a3.477 3.477 0 01-1.344-1.024c-.374-.459-.656-1.024-.848-1.696-.192-.683-.288-1.472-.288-2.368 0-.8.074-1.499.224-2.096.149-.608.357-1.131.624-1.568a4.51 4.51 0 01.928-1.104 4.66 4.66 0 011.168-.736 6.504 6.504 0 011.312-.432l3.776-.88.192 1.056-3.552.8c-.224.053-.496.128-.816.224-.31.096-.63.24-.96.432a3.46 3.46 0 00-.896.8c-.278.341-.502.784-.672 1.328-.16.533-.24 1.2-.24 2 0 .171.005.309.016.416l.032.32c.021.107.037.267.048.48l-.496-.416a3.911 3.911 0 01.72-1.696 3.681 3.681 0 011.36-1.136 4.058 4.058 0 011.84-.416c.778 0 1.472.171 2.08.512a3.585 3.585 0 011.424 1.392c.352.597.528 1.291.528 2.08 0 .779-.182 1.477-.544 2.096a3.734 3.734 0 01-1.504 1.456c-.651.341-1.414.512-2.288.512zm.128-.944c.597 0 1.125-.133 1.584-.4a2.927 2.927 0 001.072-1.12c.266-.469.4-.997.4-1.584 0-.576-.134-1.088-.4-1.536a2.762 2.762 0 00-1.072-1.056c-.459-.267-.992-.4-1.6-.4-.598 0-1.126.128-1.584.384a2.748 2.748 0 00-1.088 1.04c-.256.448-.384.965-.384 1.552 0 .587.128 1.115.384 1.584.266.469.629.843 1.088 1.12a3.086 3.086 0 001.6.416zm10.099.928c-.811 0-1.542-.181-2.192-.544a4.15 4.15 0 01-1.52-1.52c-.374-.651-.56-1.392-.56-2.224 0-.843.186-1.584.56-2.224.373-.64.88-1.141 1.52-1.504s1.37-.544 2.192-.544c.832 0 1.568.181 2.208.544.65.363 1.157.864 1.52 1.504.373.64.56 1.381.56 2.224 0 .832-.187 1.573-.56 2.224a4.005 4.005 0 01-1.52 1.52c-.651.363-1.387.544-2.208.544zm0-1.008c.608 0 1.146-.133 1.616-.4a2.942 2.942 0 001.104-1.152c.277-.501.416-1.077.416-1.728 0-.661-.139-1.237-.416-1.728a2.835 2.835 0 00-1.104-1.136 3.09 3.09 0 00-1.6-.416c-.598 0-1.131.139-1.6.416-.47.267-.843.645-1.12 1.136-.278.491-.416 1.067-.416 1.728 0 .651.138 1.227.416 1.728.277.491.65.875 1.12 1.152.469.267.997.4 1.584.4zm8.003.928v-7.712l.288.304h-3.472v-.992h7.504v.992h-3.472l.288-.304v7.712h-1.136zm11.178 0v-1.856l-.048-.304v-3.104c0-.715-.202-1.264-.608-1.648-.394-.384-.986-.576-1.776-.576a4.45 4.45 0 00-1.552.272c-.49.181-.906.421-1.248.72l-.512-.848c.427-.363.939-.64 1.536-.832a5.831 5.831 0 011.888-.304c1.088 0 1.926.272 2.512.816.598.533.896 1.349.896 2.448v5.216h-1.088zm-2.896.08c-.629 0-1.178-.101-1.648-.304-.458-.213-.81-.501-1.056-.864a2.28 2.28 0 01-.368-1.28c0-.437.102-.832.304-1.184.214-.363.555-.651 1.024-.864.48-.224 1.12-.336 1.92-.336h2.896v.848h-2.864c-.81 0-1.376.144-1.696.432a1.406 1.406 0 00-.464 1.072c0 .48.187.864.56 1.152.374.288.896.432 1.568.432.64 0 1.19-.144 1.648-.432a2.55 2.55 0 001.024-1.28l.256.784a2.653 2.653 0 01-1.12 1.328c-.522.331-1.184.496-1.984.496zm7.009-.08v-8.4h1.136v3.616h2.56v1.04h-2.56v3.744h-1.136zm7.232.08c-.8 0-1.52-.181-2.16-.544a4.058 4.058 0 01-1.488-1.52c-.363-.651-.544-1.392-.544-2.224 0-.843.181-1.584.544-2.224a3.944 3.944 0 011.488-1.504c.64-.363 1.36-.544 2.16-.544s1.514.181 2.144.544a3.958 3.958 0 011.488 1.504c.362.64.544 1.381.544 2.224 0 .832-.182 1.573-.544 2.224a4.073 4.073 0 01-1.488 1.52c-.63.363-1.344.544-2.144.544zm0-.992c.586 0 1.109-.139 1.568-.416a2.982 2.982 0 001.088-1.152c.266-.501.4-1.077.4-1.728 0-.661-.134-1.237-.4-1.728a2.87 2.87 0 00-1.088-1.136 2.976 2.976 0 00-1.568-.416c-.576 0-1.099.139-1.568.416a2.857 2.857 0 00-1.088 1.136c-.267.491-.4 1.067-.4 1.728 0 .651.133 1.227.4 1.728.266.491.629.875 1.088 1.152.469.277.992.416 1.568.416zm7.899.912v-7.712l.288.304h-3.472v-.992h7.504v.992h-3.472l.288-.304v7.712h-1.136zm13.67.08c-.832 0-1.579-.181-2.24-.544a4.112 4.112 0 01-1.536-1.52c-.374-.651-.56-1.392-.56-2.224 0-.843.186-1.584.56-2.224a4 4 0 011.536-1.504c.661-.363 1.408-.544 2.24-.544.714 0 1.36.139 1.936.416a3.135 3.135 0 011.36 1.248l-.848.576a2.67 2.67 0 00-1.072-.944 3.2 3.2 0 00-1.392-.304c-.598 0-1.136.139-1.616.416-.48.267-.859.645-1.136 1.136-.278.491-.416 1.067-.416 1.728s.138 1.237.416 1.728c.277.491.656.875 1.136 1.152.48.267 1.018.4 1.616.4a3.2 3.2 0 001.392-.304 2.712 2.712 0 001.072-.928l.848.576c-.331.544-.784.96-1.36 1.248-.576.277-1.222.416-1.936.416zm9.683-.08v-8.4h5.952v.992h-5.104l.288-.288v7.696h-1.136zm5.542-.016l.08-.976c.075.011.144.027.208.048.075.011.139.016.192.016a.988.988 0 00.816-.384c.213-.256.373-.597.48-1.024.107-.427.181-.907.224-1.44.043-.544.08-1.088.112-1.632l.144-2.992h6.16v8.4h-1.136v-7.744l.288.336h-4.576l.272-.352-.128 2.432a24.953 24.953 0 01-.176 2.08 8.337 8.337 0 01-.368 1.744c-.16.501-.384.896-.672 1.184-.288.277-.656.416-1.104.416-.128 0-.261-.011-.4-.032a8.737 8.737 0 01-.416-.08zm11.789 3.2c-.394 0-.773-.064-1.136-.192a2.462 2.462 0 01-.912-.576l.528-.848c.214.203.443.357.688.464.256.117.539.176.848.176.374 0 .694-.107.96-.32.278-.203.539-.565.784-1.088l.544-1.232.128-.176 3.456-7.792h1.12l-4.208 9.408c-.234.544-.496.976-.784 1.296-.277.32-.581.544-.912.672-.33.139-.698.208-1.104.208zm2.24-2.944l-3.872-8.64h1.184l3.424 7.712-.736.928zm10.189-.144c-.682 0-1.29-.112-1.824-.336a3.492 3.492 0 01-1.344-1.024c-.373-.459-.656-1.024-.848-1.696-.192-.683-.288-1.472-.288-2.368 0-.8.075-1.499.224-2.096.15-.608.358-1.131.624-1.568.267-.437.576-.805.928-1.104a4.677 4.677 0 011.168-.736 6.524 6.524 0 011.312-.432l3.776-.88.192 1.056-3.552.8c-.224.053-.496.128-.816.224-.309.096-.629.24-.96.432-.32.192-.618.459-.896.8-.277.341-.501.784-.672 1.328-.16.533-.24 1.2-.24 2 0 .171.006.309.016.416.011.096.022.203.032.32.022.107.038.267.048.48l-.496-.416a3.935 3.935 0 01.72-1.696 3.689 3.689 0 011.36-1.136 4.062 4.062 0 011.84-.416c.779 0 1.472.171 2.08.512a3.578 3.578 0 011.424 1.392c.352.597.528 1.291.528 2.08 0 .779-.181 1.477-.544 2.096a3.728 3.728 0 01-1.504 1.456c-.65.341-1.413.512-2.288.512zm.128-.944c.598 0 1.126-.133 1.584-.4a2.92 2.92 0 001.072-1.12c.267-.469.4-.997.4-1.584 0-.576-.133-1.088-.4-1.536a2.755 2.755 0 00-1.072-1.056c-.458-.267-.992-.4-1.6-.4-.597 0-1.125.128-1.584.384a2.761 2.761 0 00-1.088 1.04c-.256.448-.384.965-.384 1.552 0 .587.128 1.115.384 1.584.267.469.63.843 1.088 1.12a3.09 3.09 0 001.6.416zm10.099.928c-.81 0-1.541-.181-2.192-.544a4.157 4.157 0 01-1.52-1.52c-.373-.651-.56-1.392-.56-2.224 0-.843.187-1.584.56-2.224.374-.64.88-1.141 1.52-1.504s1.371-.544 2.192-.544c.832 0 1.568.181 2.208.544a3.884 3.884 0 011.52 1.504c.374.64.56 1.381.56 2.224 0 .832-.186 1.573-.56 2.224a3.991 3.991 0 01-1.52 1.52c-.65.363-1.386.544-2.208.544zm0-1.008c.608 0 1.147-.133 1.616-.4.47-.277.838-.661 1.104-1.152.278-.501.416-1.077.416-1.728 0-.661-.138-1.237-.416-1.728a2.822 2.822 0 00-1.104-1.136 3.086 3.086 0 00-1.6-.416 3.09 3.09 0 00-1.6.416 2.947 2.947 0 00-1.12 1.136c-.277.491-.416 1.067-.416 1.728 0 .651.139 1.227.416 1.728a3.06 3.06 0 001.12 1.152c.47.267.998.4 1.584.4zm12.876.928l-3.456-4.16.944-.56 3.856 4.72h-1.344zm-6.16 0v-8.4h1.136v8.4h-1.136zm.784-3.744v-.976h2.704v.976h-2.704zm2.96-.336l-1.056-.16 3.344-4.16h1.232l-3.52 4.32zm5.553 4.08v-8.4h1.136v6.672l5.616-6.672h1.008v8.4h-1.136v-6.688l-5.6 6.688h-1.024zm11.016 0v-8.4h1.152l3.808 6.448h-.48l3.872-6.448h1.056v8.4h-1.04v-7.104l.208.096-3.616 5.984h-.512l-3.648-6.048.24-.048v7.12h-1.04zm12.64 0v-8.4h1.136v6.672l5.616-6.672h1.008v8.4h-1.136v-6.688l-5.6 6.688h-1.024zm-241.12 20.08c-.832 0-1.58-.181-2.24-.544a4.116 4.116 0 01-1.536-1.52c-.374-.651-.56-1.392-.56-2.224 0-.843.186-1.584.56-2.224a4.003 4.003 0 011.536-1.504c.66-.363 1.408-.544 2.24-.544.714 0 1.36.139 1.936.416a3.135 3.135 0 011.36 1.248l-.848.576a2.666 2.666 0 00-1.072-.944 3.198 3.198 0 00-1.392-.304c-.598 0-1.136.139-1.616.416a2.9 2.9 0 00-1.136 1.136c-.278.491-.416 1.067-.416 1.728s.138 1.237.416 1.728c.277.491.656.875 1.136 1.152.48.267 1.018.4 1.616.4.5 0 .965-.101 1.392-.304a2.708 2.708 0 001.072-.928l.848.576a3.27 3.27 0 01-1.36 1.248c-.576.277-1.222.416-1.936.416zm3.678-.096l.08-.976c.075.011.144.027.208.048.075.011.139.016.192.016a.987.987 0 00.816-.384c.213-.256.373-.597.48-1.024.107-.427.181-.907.224-1.44.043-.544.08-1.088.112-1.632l.144-2.992h6.16v8.4h-1.136v-7.744l.288.336h-4.576l.272-.352-.128 2.432c-.032.725-.09 1.419-.176 2.08a8.33 8.33 0 01-.368 1.744c-.16.501-.384.896-.672 1.184-.288.277-.656.416-1.104.416-.128 0-.261-.011-.4-.032a8.834 8.834 0 01-.416-.08zm15.101.096c-.81 0-1.541-.181-2.192-.544a4.152 4.152 0 01-1.52-1.52c-.373-.651-.56-1.392-.56-2.224 0-.843.187-1.584.56-2.224.374-.64.88-1.141 1.52-1.504s1.371-.544 2.192-.544c.832 0 1.568.181 2.208.544a3.89 3.89 0 011.52 1.504c.374.64.56 1.381.56 2.224 0 .832-.186 1.573-.56 2.224a3.998 3.998 0 01-1.52 1.52c-.65.363-1.386.544-2.208.544zm0-1.008c.608 0 1.147-.133 1.616-.4.47-.277.838-.661 1.104-1.152.278-.501.416-1.077.416-1.728 0-.661-.138-1.237-.416-1.728a2.831 2.831 0 00-1.104-1.136 3.088 3.088 0 00-1.6-.416 3.09 3.09 0 00-1.6.416 2.94 2.94 0 00-1.12 1.136c-.277.491-.416 1.067-.416 1.728 0 .651.139 1.227.416 1.728a3.06 3.06 0 001.12 1.152c.47.267.998.4 1.584.4zm11.843.928v-3.024l.208.24H57.22c-1.077 0-1.92-.235-2.528-.704-.608-.469-.912-1.152-.912-2.048 0-.96.326-1.675.976-2.144.651-.48 1.52-.72 2.608-.72H60.9v8.4h-1.04zm-6.144 0l2.304-3.232h1.184l-2.256 3.232h-1.232zm6.144-3.36v-4.384l.208.336h-2.672c-.778 0-1.386.149-1.824.448-.426.299-.64.784-.64 1.456 0 1.248.795 1.872 2.384 1.872h2.752l-.208.272zm4.28 3.36v-8.4h1.151l3.808 6.448h-.48l3.872-6.448h1.056v8.4h-1.04v-7.104l.208.096-3.616 5.984h-.512l-3.648-6.048.24-.048v7.12h-1.04zm12.64 0v-8.4h1.136v6.672l5.616-6.672h1.008v8.4h-1.136v-6.688l-5.6 6.688H76.78zm15.203 0v-8.4h7.552v8.4H98.4v-7.712l.288.304h-5.856l.288-.304v7.712h-1.136zm14.237.08c-.81 0-1.541-.181-2.192-.544a4.157 4.157 0 01-1.52-1.52c-.373-.651-.56-1.392-.56-2.224 0-.843.187-1.584.56-2.224.374-.64.88-1.141 1.52-1.504s1.371-.544 2.192-.544c.832 0 1.568.181 2.208.544a3.884 3.884 0 011.52 1.504c.374.64.56 1.381.56 2.224 0 .832-.186 1.573-.56 2.224a3.991 3.991 0 01-1.52 1.52c-.65.363-1.386.544-2.208.544zm0-1.008c.608 0 1.147-.133 1.616-.4.47-.277.838-.661 1.104-1.152.278-.501.416-1.077.416-1.728 0-.661-.138-1.237-.416-1.728a2.822 2.822 0 00-1.104-1.136 3.086 3.086 0 00-1.6-.416 3.09 3.09 0 00-1.6.416 2.947 2.947 0 00-1.12 1.136c-.277.491-.416 1.067-.416 1.728 0 .651.139 1.227.416 1.728a3.06 3.06 0 001.12 1.152c.47.267.998.4 1.584.4zm12.429.384v-6.864h-4.048l-.096 1.872c-.021.565-.058 1.12-.112 1.664a8.748 8.748 0 01-.24 1.504c-.106.448-.261.816-.464 1.104a1.127 1.127 0 01-.784.48l-1.136-.208a.987.987 0 00.816-.352c.214-.256.379-.603.496-1.04a9.03 9.03 0 00.256-1.488 42.47 42.47 0 00.128-1.728l.112-2.8h6.208v7.856h-1.136zm-7.232 2.576v-3.024h9.68v3.024h-1.072v-2.032h-7.536v2.032h-1.072zm15.414-1.952c-.832 0-1.578-.181-2.24-.544a4.126 4.126 0 01-1.536-1.52c-.373-.651-.56-1.392-.56-2.224 0-.843.187-1.584.56-2.224a4.013 4.013 0 011.536-1.504c.662-.363 1.408-.544 2.24-.544.715 0 1.36.139 1.936.416a3.13 3.13 0 011.36 1.248l-.848.576a2.663 2.663 0 00-1.072-.944 3.194 3.194 0 00-1.392-.304c-.597 0-1.136.139-1.616.416-.48.267-.858.645-1.136 1.136-.277.491-.416 1.067-.416 1.728s.139 1.237.416 1.728c.278.491.656.875 1.136 1.152.48.267 1.019.4 1.616.4.502 0 .966-.101 1.392-.304a2.705 2.705 0 001.072-.928l.848.576c-.33.544-.784.96-1.36 1.248-.576.277-1.221.416-1.936.416zm8.811 0c-.81 0-1.541-.181-2.192-.544a4.157 4.157 0 01-1.52-1.52c-.373-.651-.56-1.392-.56-2.224 0-.843.187-1.584.56-2.224.374-.64.88-1.141 1.52-1.504s1.371-.544 2.192-.544c.832 0 1.568.181 2.208.544a3.884 3.884 0 011.52 1.504c.374.64.56 1.381.56 2.224 0 .832-.186 1.573-.56 2.224a3.991 3.991 0 01-1.52 1.52c-.65.363-1.386.544-2.208.544zm0-1.008c.608 0 1.147-.133 1.616-.4.47-.277.838-.661 1.104-1.152.278-.501.416-1.077.416-1.728 0-.661-.138-1.237-.416-1.728a2.822 2.822 0 00-1.104-1.136 3.086 3.086 0 00-1.6-.416 3.09 3.09 0 00-1.6.416 2.947 2.947 0 00-1.12 1.136c-.277.491-.416 1.067-.416 1.728 0 .651.139 1.227.416 1.728a3.06 3.06 0 001.12 1.152c.47.267.998.4 1.584.4zm8.91 1.024a6.537 6.537 0 01-1.808-.256 4.682 4.682 0 01-1.584-.784l.368-.848a4.54 4.54 0 001.408.688 5.864 5.864 0 001.584.224c.522-.011.976-.085 1.36-.224.384-.139.682-.331.896-.576.213-.245.32-.523.32-.832 0-.448-.203-.795-.608-1.04-.406-.256-.96-.384-1.664-.384h-1.44v-.832h1.36a3.48 3.48 0 001.104-.16c.32-.107.565-.261.736-.464.181-.203.272-.443.272-.72 0-.299-.107-.555-.32-.768-.203-.213-.486-.373-.848-.48a4.36 4.36 0 00-1.232-.16 5.727 5.727 0 00-1.296.192 5.924 5.924 0 00-1.328.496l-.32-.88c.49-.256.976-.448 1.456-.576.49-.139.981-.208 1.472-.208.672-.021 1.274.059 1.808.24.544.181.976.443 1.296.784.32.331.48.731.48 1.2 0 .416-.128.779-.384 1.088a2.516 2.516 0 01-1.024.72 3.89 3.89 0 01-1.456.256l.048-.304c.96 0 1.706.187 2.24.56.544.373.816.88.816 1.52 0 .501-.166.944-.496 1.328-.331.373-.779.667-1.344.88-.555.213-1.179.32-1.872.32zm6.291-.096v-8.4h1.136v3.712h5.296v-3.712h1.136v8.4h-1.136v-3.712h-5.296v3.712h-1.136zm16.012 0v-1.856l-.048-.304v-3.104c0-.715-.202-1.264-.608-1.648-.394-.384-.986-.576-1.776-.576a4.45 4.45 0 00-1.552.272c-.49.181-.906.421-1.248.72l-.512-.848c.427-.363.939-.64 1.536-.832a5.831 5.831 0 011.888-.304c1.088 0 1.926.272 2.512.816.598.533.896 1.349.896 2.448v5.216h-1.088zm-2.896.08c-.629 0-1.178-.101-1.648-.304-.458-.213-.81-.501-1.056-.864a2.28 2.28 0 01-.368-1.28c0-.437.102-.832.304-1.184.214-.363.555-.651 1.024-.864.48-.224 1.12-.336 1.92-.336h2.896v.848h-2.864c-.81 0-1.376.144-1.696.432a1.406 1.406 0 00-.464 1.072c0 .48.187.864.56 1.152.374.288.896.432 1.568.432.64 0 1.19-.144 1.648-.432a2.55 2.55 0 001.024-1.28l.256.784a2.653 2.653 0 01-1.12 1.328c-.522.331-1.184.496-1.984.496zm7.009-.08v-8.4h1.136v3.712h5.296v-3.712h1.136v8.4H177.4v-3.712h-5.296v3.712h-1.136zm10.796 0v-8.4h1.136v6.672l5.616-6.672h1.008v8.4h-1.136v-6.688l-5.6 6.688h-1.024zm16.44 0v-3.024l.208.24h-2.848c-1.077 0-1.92-.235-2.528-.704-.608-.469-.912-1.152-.912-2.048 0-.96.325-1.675.976-2.144.651-.48 1.52-.72 2.608-.72h3.536v8.4h-1.04zm-6.144 0l2.304-3.232h1.184l-2.256 3.232h-1.232zm6.144-3.36v-4.384l.208.336h-2.672c-.779 0-1.387.149-1.824.448-.427.299-.64.784-.64 1.456 0 1.248.795 1.872 2.384 1.872h2.752l-.208.272zm8.467 3.36v-8.4h1.136v6.672l5.616-6.672h1.008v8.4h-1.136v-6.688l-5.6 6.688h-1.024zm15.203 0v-8.4h1.136v6.672l5.616-6.672h1.008v8.4h-1.136v-6.688l-5.6 6.688h-1.024zm11.015 0v-8.4h1.152l3.808 6.448h-.48l3.872-6.448h1.056v8.4h-1.04v-7.104l.208.096-3.616 5.984h-.512l-3.648-6.048.24-.048v7.12h-1.04zm16.241.08c-.875 0-1.643-.181-2.304-.544a4.083 4.083 0 01-1.552-1.52c-.373-.651-.56-1.392-.56-2.224 0-.832.176-1.568.528-2.208a3.99 3.99 0 011.472-1.504 4.062 4.062 0 012.112-.56c.789 0 1.488.181 2.096.544a3.728 3.728 0 011.456 1.504c.352.64.528 1.381.528 2.224 0 .053-.005.112-.016.176v.176h-7.312v-.848h6.704l-.448.336c0-.608-.133-1.147-.4-1.616a2.817 2.817 0 00-1.056-1.12c-.448-.267-.965-.4-1.552-.4-.576 0-1.093.133-1.552.4a2.78 2.78 0 00-1.072 1.12c-.256.48-.384 1.029-.384 1.648v.176c0 .64.139 1.205.416 1.696.288.48.683.859 1.184 1.136.512.267 1.093.4 1.744.4.512 0 .987-.091 1.424-.272a2.962 2.962 0 001.152-.832l.64.736a3.596 3.596 0 01-1.408 1.024 4.671 4.671 0 01-1.84.352zm6.291-.08v-8.4h1.136v3.616h2.56v1.04h-2.56v3.744h-1.136zm7.232.08c-.8 0-1.52-.181-2.16-.544a4.058 4.058 0 01-1.488-1.52c-.363-.651-.544-1.392-.544-2.224 0-.843.181-1.584.544-2.224a3.944 3.944 0 011.488-1.504c.64-.363 1.36-.544 2.16-.544s1.514.181 2.144.544a3.958 3.958 0 011.488 1.504c.362.64.544 1.381.544 2.224 0 .832-.182 1.573-.544 2.224a4.073 4.073 0 01-1.488 1.52c-.63.363-1.344.544-2.144.544zm0-.992c.586 0 1.109-.139 1.568-.416a2.982 2.982 0 001.088-1.152c.266-.501.4-1.077.4-1.728 0-.661-.134-1.237-.4-1.728a2.87 2.87 0 00-1.088-1.136 2.976 2.976 0 00-1.568-.416c-.576 0-1.099.139-1.568.416a2.857 2.857 0 00-1.088 1.136c-.267.491-.4 1.067-.4 1.728 0 .651.133 1.227.4 1.728.266.491.629.875 1.088 1.152.469.277.992.416 1.568.416zm7.899.912v-7.712l.288.304h-3.472v-.992h7.504v.992H271.4l.288-.304v7.712h-1.136zm-207.561 20v-8.4h1.136v6.672l5.616-6.672h1.008v8.4h-1.136v-6.688l-5.6 6.688h-1.024zm14.536.08c-.832 0-1.579-.181-2.24-.544a4.118 4.118 0 01-1.536-1.52c-.374-.651-.56-1.392-.56-2.224 0-.843.186-1.584.56-2.224a4.005 4.005 0 011.536-1.504c.661-.363 1.408-.544 2.24-.544.714 0 1.36.139 1.936.416a3.135 3.135 0 011.36 1.248l-.848.576a2.665 2.665 0 00-1.072-.944 3.197 3.197 0 00-1.392-.304c-.598 0-1.136.139-1.616.416-.48.267-.859.645-1.136 1.136-.278.491-.416 1.067-.416 1.728s.138 1.237.416 1.728c.277.491.656.875 1.136 1.152.48.267 1.018.4 1.616.4a3.2 3.2 0 001.392-.304 2.707 2.707 0 001.072-.928l.848.576a3.27 3.27 0 01-1.36 1.248c-.576.277-1.222.416-1.936.416zm5.495-.08v-8.4h1.136v7.408h5.136v-7.408h1.136v8.4h-7.408zm7.696 2.032v-2.128l.288.096h-1.712v-.992h2.496v3.024h-1.072zm6.842-1.952c-.875 0-1.643-.181-2.304-.544a4.083 4.083 0 01-1.552-1.52c-.374-.651-.56-1.392-.56-2.224 0-.832.176-1.568.528-2.208a3.989 3.989 0 011.472-1.504 4.064 4.064 0 012.112-.56c.79 0 1.488.181 2.096.544a3.731 3.731 0 011.456 1.504c.352.64.528 1.381.528 2.224 0 .053-.006.112-.016.176v.176h-7.312v-.848h6.704l-.448.336c0-.608-.134-1.147-.4-1.616a2.817 2.817 0 00-1.056-1.12c-.448-.267-.966-.4-1.552-.4-.576 0-1.094.133-1.552.4a2.78 2.78 0 00-1.072 1.12c-.256.48-.384 1.029-.384 1.648v.176c0 .64.138 1.205.416 1.696.288.48.682.859 1.184 1.136.512.267 1.093.4 1.744.4a3.69 3.69 0 001.424-.272 2.964 2.964 0 001.152-.832l.64.736a3.601 3.601 0 01-1.408 1.024 4.67 4.67 0 01-1.84.352zm4.583-.096l.08-.976c.074.011.144.027.208.048.074.011.138.016.192.016a.988.988 0 00.816-.384c.213-.256.373-.597.48-1.024.106-.427.181-.907.224-1.44.042-.544.08-1.088.112-1.632l.144-2.992h6.16v8.4h-1.136v-7.744l.288.336h-4.576l.272-.352-.128 2.432a24.953 24.953 0 01-.176 2.08 8.401 8.401 0 01-.368 1.744c-.16.501-.384.896-.673 1.184-.287.277-.655.416-1.103.416-.128 0-.262-.011-.4-.032a8.737 8.737 0 01-.416-.08zm17.069.016v-3.024l.208.24h-2.848c-1.077 0-1.92-.235-2.528-.704-.608-.469-.912-1.152-.912-2.048 0-.96.325-1.675.976-2.144.651-.48 1.52-.72 2.608-.72h3.536v8.4h-1.04zm-6.144 0l2.304-3.232h1.184l-2.256 3.232h-1.232zm6.144-3.36v-4.384l.208.336h-2.672c-.779 0-1.387.149-1.824.448-.427.299-.64.784-.64 1.456 0 1.248.795 1.872 2.384 1.872h2.752l-.208.272zm4.279 3.36v-8.4h1.136v3.616h2.56v1.04h-2.56v3.744h-1.136zm7.232.08c-.8 0-1.52-.181-2.16-.544a4.073 4.073 0 01-1.488-1.52c-.363-.651-.544-1.392-.544-2.224 0-.843.181-1.584.544-2.224a3.958 3.958 0 011.488-1.504c.64-.363 1.36-.544 2.16-.544s1.515.181 2.144.544a3.958 3.958 0 011.488 1.504c.363.64.544 1.381.544 2.224 0 .832-.181 1.573-.544 2.224a4.073 4.073 0 01-1.488 1.52c-.629.363-1.344.544-2.144.544zm0-.992c.587 0 1.109-.139 1.568-.416a2.974 2.974 0 001.088-1.152c.267-.501.4-1.077.4-1.728 0-.661-.133-1.237-.4-1.728a2.864 2.864 0 00-1.088-1.136 2.973 2.973 0 00-1.568-.416c-.576 0-1.099.139-1.568.416a2.864 2.864 0 00-1.088 1.136c-.267.491-.4 1.067-.4 1.728 0 .651.133 1.227.4 1.728.267.491.629.875 1.088 1.152.469.277.992.416 1.568.416zm12.132-.08l-.256.304v-7.712h1.136v7.712l-.304-.304h4.688l-.304.304v-7.712h1.136v8.4h-11.616v-8.4h1.136v7.712l-.288-.304h4.672zm6.32 2.832v-2.144l.288.304h-1.712v-.992h2.496v2.832h-1.072zm3.004-1.84v-8.4h1.136v6.672l5.616-6.672h1.008v8.4h-1.136v-6.688l-5.6 6.688h-1.024zm11.015 0v-8.4h1.136v6.672l5.616-6.672h1.008v8.4h-1.136v-6.688l-5.6 6.688h-1.024zm3.808-9.616c-.704 0-1.275-.176-1.712-.528-.427-.363-.651-.88-.672-1.552h.816c.011.427.16.763.448 1.008.288.245.661.368 1.12.368.459 0 .832-.123 1.12-.368.299-.245.453-.581.464-1.008h.816c-.011.672-.235 1.189-.672 1.552-.437.352-1.013.528-1.728.528zm12.563 5.776v-.864h4.88v.864h-4.88zm1.12-4.64c.854 0 1.616.187 2.288.56.672.363 1.2.869 1.584 1.52.395.64.592 1.371.592 2.192 0 .821-.197 1.557-.592 2.208a4.131 4.131 0 01-1.584 1.536c-.672.373-1.434.56-2.288.56a5.728 5.728 0 01-1.936-.32 4.084 4.084 0 01-1.488-.96l.672-.672c.363.341.774.597 1.232.768.459.16.95.24 1.472.24.662 0 1.248-.144 1.76-.432a3.324 3.324 0 001.232-1.2 3.362 3.362 0 00.448-1.728c0-.64-.149-1.211-.448-1.712a3.165 3.165 0 00-1.232-1.2c-.512-.288-1.098-.432-1.76-.432-.522 0-1.013.085-1.472.256-.458.16-.869.411-1.232.752l-.672-.656a3.82 3.82 0 011.488-.96 5.728 5.728 0 011.936-.32zm11.573 8.576h-.272c-1.664-.011-2.96-.389-3.888-1.136-.928-.747-1.392-1.808-1.392-3.184 0-1.355.464-2.4 1.392-3.136.939-.747 2.256-1.125 3.952-1.136h.24c1.707.011 3.035.389 3.984 1.136.949.736 1.424 1.781 1.424 3.136 0 1.387-.48 2.453-1.44 3.2-.949.747-2.283 1.12-4 1.12zm-.016-.992c.949 0 1.744-.128 2.384-.384.64-.267 1.125-.645 1.456-1.136.331-.491.496-1.093.496-1.808 0-.693-.165-1.28-.496-1.76-.331-.491-.816-.864-1.456-1.12-.64-.256-1.435-.384-2.384-.384h-.176c-.928 0-1.707.133-2.336.4-.629.256-1.104.624-1.424 1.104-.32.48-.48 1.067-.48 1.76 0 .704.16 1.301.48 1.792.331.491.811.869 1.44 1.136.629.256 1.403.389 2.32.4h.176zm-.608 4v-14.976h1.104v14.976h-1.104zm13.186-3.008h-.272c-1.664-.011-2.96-.389-3.888-1.136-.928-.747-1.392-1.808-1.392-3.184 0-1.355.464-2.4 1.392-3.136.939-.747 2.256-1.125 3.952-1.136h.24c1.707.011 3.035.389 3.984 1.136.95.736 1.424 1.781 1.424 3.136 0 1.387-.48 2.453-1.44 3.2-.949.747-2.282 1.12-4 1.12zm-.016-.992c.95 0 1.744-.128 2.384-.384.64-.267 1.126-.645 1.456-1.136.331-.491.496-1.093.496-1.808 0-.693-.165-1.28-.496-1.76-.33-.491-.816-.864-1.456-1.12-.64-.256-1.434-.384-2.384-.384h-.176c-.928 0-1.706.133-2.336.4-.629.256-1.104.624-1.424 1.104-.32.48-.48 1.067-.48 1.76 0 .704.16 1.301.48 1.792.331.491.811.869 1.44 1.136.63.256 1.403.389 2.32.4h.176zm-.608 4v-14.976h1.104v14.976h-1.104zm12.067-3.024c-.875 0-1.643-.181-2.304-.544a4.083 4.083 0 01-1.552-1.52c-.373-.651-.56-1.392-.56-2.224 0-.832.176-1.568.528-2.208a3.99 3.99 0 011.472-1.504 4.062 4.062 0 012.112-.56c.789 0 1.488.181 2.096.544a3.728 3.728 0 011.456 1.504c.352.64.528 1.381.528 2.224 0 .053-.005.112-.016.176v.176h-7.312v-.848h6.704l-.448.336c0-.608-.133-1.147-.4-1.616a2.817 2.817 0 00-1.056-1.12c-.448-.267-.965-.4-1.552-.4-.576 0-1.093.133-1.552.4a2.78 2.78 0 00-1.072 1.12c-.256.48-.384 1.029-.384 1.648v.176c0 .64.139 1.205.416 1.696.288.48.683.859 1.184 1.136.512.267 1.093.4 1.744.4.512 0 .987-.091 1.424-.272a2.962 2.962 0 001.152-.832l.64.736a3.596 3.596 0 01-1.408 1.024 4.671 4.671 0 01-1.84.352zm12.451-.08l-3.456-4.16.944-.56 3.856 4.72h-1.344zm-6.16 0v-8.4h1.136v8.4h-1.136zm.784-3.744v-.976h2.704v.976h-2.704zm2.96-.336l-1.056-.16 3.344-4.16h1.232l-3.52 4.32zm6.981 4.08v-7.712l.288.304h-3.472v-.992h7.504v.992h-3.472l.288-.304v7.712h-1.136z" fill="#3A4143"/></svg>