<svg width="45" height="41" viewBox="0 0 45 41" fill="none" xmlns="http://www.w3.org/2000/svg"><path fill-rule="evenodd" clip-rule="evenodd" d="M20.53.284c-1.96.714-3.347 2.291-3.767 4.285-.57 2.711 1.217 6.37 3.852 7.885 1.036.595 2.454.633 3.568.093 1.538-.744 2.896-2.466 3.627-4.598.574-1.677.534-3.489-.105-4.745C27.144 2.102 25.988.998 24.87.497c-1.27-.571-3.11-.66-4.34-.213zm3.947 1.506c1.123.55 1.684 1.164 2.136 2.336.584 1.513.064 4.064-1.14 5.604-2.214 2.826-4.874 2.388-6.678-1.101-.697-1.348-.733-1.487-.735-2.853-.002-1.052.076-1.578.29-1.969 1.27-2.32 3.805-3.154 6.127-2.017zm-2.855 12.087c-.889.807-.933 2.879-.114 5.329l.34 1.016-.542.962c-.575 1.02-1.602 2.362-1.807 2.362-.068 0-.209-.842-.314-1.872-.199-1.956-.871-4.076-1.567-4.943-1.176-1.467-3.227-.519-5.101 2.358-2.01 3.084-3.285 7.385-2.81 9.47.402 1.756 1.388 2.332 3.141 1.832 1.3-.37 2.001-.733 3.346-1.73.613-.456 1.149-.828 1.19-.828.356 0-.86 3.726-1.692 5.185-.946 1.658-.878 1.657-2.57.057-.812-.767-2.002-1.698-2.646-2.069C5.923 28.383.306 29.376.01 32.856c-.246 2.91 3.65 5.681 8 5.69 2.032.004 4.572-.706 5.938-1.66l.51-.356 1.205 1.171c1.563 1.518 2.117 1.916 3.644 2.627 1.07.498 1.485.598 2.733.66 2.605.13 4.68-.802 7.166-3.218l1.241-1.206.793.499c2.004 1.26 5.205 1.783 7.714 1.26 1.884-.395 3.868-1.405 4.794-2.444 1.23-1.38 1.558-2.744.961-4.007-.4-.85-1.067-1.455-2.118-1.924-.722-.322-1.115-.375-2.774-.371-1.655.003-2.12.068-3.229.445-1.693.576-3.325 1.618-4.953 3.16-.724.686-1.392 1.219-1.485 1.184-.56-.21-2.248-4.085-2.69-6.179l-.118-.552 1.236.905c2.76 2.022 4.763 2.547 5.844 1.532.742-.697.913-1.375.807-3.212-.236-4.1-3.448-9.932-5.907-10.728-.715-.232-1.347-.052-1.92.545-.823.86-1.703 3.692-1.71 5.502-.003 1.293-.18 1.336-1.079.265-.44-.525-.95-1.24-1.131-1.59l-.33-.634.43-1.77c.633-2.59.53-3.942-.353-4.623-.573-.442-1.085-.426-1.608.05zm1.046 2.22c-.003 1.27-.225 1.841-.394 1.013-.14-.682-.14-2.05 0-2.187.26-.255.396.15.394 1.173zm-5.9 1.654c.188.259.534 1.12.768 1.915.36 1.215.427 1.783.427 3.576v2.132l-.798.838c-1.495 1.568-4.065 3.1-5.208 3.103-.892.002-1.118-.522-1.012-2.353.217-3.736 3.4-9.66 5.2-9.677.155-.002.436.208.624.466zm12.74-.149c1.636.978 3.988 5.669 4.44 8.852.27 1.902-.052 2.862-.959 2.862-1.071 0-3.457-1.359-5.042-2.872-1.076-1.027-1.193-1.564-.946-4.354.184-2.075.681-3.826 1.26-4.437.429-.452.567-.458 1.247-.051zm-6.43 5.173c.327.483.978 1.27 1.446 1.75 1.168 1.194 1.278 1.399 1.512 2.813.436 2.635 1.665 5.852 2.858 7.482.654.892.618.978-1.03 2.474-3.844 3.49-8.149 3.154-11.702-.915l-.708-.811.54-.697c1.12-1.446 2.332-4.569 2.958-7.626.296-1.445.3-1.452 1.801-3.238.564-.67 1.159-1.42 1.323-1.664.163-.245.322-.445.353-.445.03 0 .323.395.65.877zm-14.84 8.506c.522.195 1.43.659 2.017 1.03 1.289.817 3.337 2.727 3.337 3.112 0 .377-1.691 1.24-3.041 1.553-2.103.486-4.927.224-6.625-.616-3.119-1.541-3.635-4.357-.978-5.332.968-.355 4.053-.207 5.29.253zm34.015-.063c.786.38 1.431 1.246 1.431 1.921 0 1.557-1.906 3.17-4.55 3.85-1.412.362-4.187.251-5.554-.223-.948-.329-2.336-1.098-2.336-1.295 0-.267.91-1.227 1.96-2.066 1.394-1.117 3.172-2.095 4.329-2.382 1.273-.317 3.885-.209 4.72.195z" fill="#C9CDCA"/></svg>