<svg width="27" height="27" viewBox="0 0 27 27" fill="none" xmlns="http://www.w3.org/2000/svg"><path d="M25.169 18.213c.536-1.389.83-2.896.83-4.473 0-1.777-.374-3.469-1.045-4.998M13.26 13.33h.02l.004-.18h-.031c.004.059.004.12.006.18z" stroke="#202020" stroke-miterlimit="10" stroke-linecap="round" stroke-linejoin="round"/><path d="M13.268 13.74c0-.14.006-.277.01-.413h-.02c.004.139.01.275.01.412zm-.048-.593A12.473 12.473 0 012.889 7.22a12.39 12.39 0 01-1.831-5.93 12.43 12.43 0 016.1 1.737 12.505 12.505 0 015.154 5.92s-5.122 1.637-8.13-4.225M25.75 1.284c-2.223 0-4.308.582-6.115 1.6C16 4.927 13.493 8.736 13.286 13.148c.08.002.158.006.235.006 4.496 0 8.437-2.375 10.632-5.935a12.39 12.39 0 001.832-5.93c-.078-.002-.158-.006-.236-.006z" stroke="#202020" stroke-miterlimit="10" stroke-linecap="round" stroke-linejoin="round"/><path d="M13.26 13.398h.02l.004.18h-.031c.004-.057.004-.118.006-.18z" stroke="#202020" stroke-miterlimit="10" stroke-linecap="round" stroke-linejoin="round"/><path d="M13.268 12.987c0 .14.006.276.01.413h-.02c.004-.139.01-.274.01-.413zM2.889 19.51a12.39 12.39 0 00-1.831 5.929 12.429 12.429 0 006.1-1.736c3.5-2.078 5.896-5.813 6.099-10.121a12.465 12.465 0 00-10.368 5.927zm11.231-1.996a12.51 12.51 0 005.514 6.332 12.445 12.445 0 006.114 1.6c.08 0 .158-.005.235-.007a12.39 12.39 0 00-1.83-5.93 12.475 12.475 0 00-10.633-5.935c-.026 0-.053 0-.08.002M1.83 18.213A12.393 12.393 0 011 13.74c0-1.777.374-3.469 1.046-4.998M8.757 1.83A12.451 12.451 0 0113.236 1c1.78 0 3.474.374 5.007 1.044M8.757 25.127a12.45 12.45 0 004.479.829c1.78 0 3.474-.374 5.007-1.044" stroke="#202020" stroke-miterlimit="10" stroke-linecap="round" stroke-linejoin="round"/></svg>