<svg width="38" height="37" viewBox="0 0 38 37" fill="none" xmlns="http://www.w3.org/2000/svg"><path d="M34.897 25.14a17.38 17.38 0 001.165-6.273 17.41 17.41 0 00-1.466-7.01M18.193 18.29h.029c.003-.082.003-.168.006-.251h-.043c.005.083.005.169.008.252z" stroke="#C9CDCA" stroke-width="2" stroke-miterlimit="10" stroke-linecap="round" stroke-linejoin="round"/><path d="M18.207 18.867c0-.195.008-.387.014-.579h-.029c.006.195.015.387.015.579zm-.068-.831a17.493 17.493 0 01-14.49-8.313 17.377 17.377 0 01-2.568-8.316c3.12.066 6.04.942 8.555 2.435a17.538 17.538 0 017.229 8.304S9.682 14.441 5.463 6.22M35.71 1.398c-3.117 0-6.04.817-8.575 2.243-5.1 2.868-8.615 8.21-8.905 14.398.112.003.221.009.33.009 6.305 0 11.832-3.332 14.912-8.325a17.376 17.376 0 002.568-8.316c-.109-.003-.22-.009-.33-.009z" stroke="#C9CDCA" stroke-width="2" stroke-miterlimit="10" stroke-linecap="round" stroke-linejoin="round"/><path d="M18.193 18.388h.029c.003.083.003.17.006.252h-.043c.005-.08.005-.166.008-.252z" stroke="#C9CDCA" stroke-width="2" stroke-miterlimit="10" stroke-linecap="round" stroke-linejoin="round"/><path d="M18.207 17.813c0 .194.008.386.014.578h-.029c.006-.195.015-.384.015-.578zM3.65 26.96a17.377 17.377 0 00-2.569 8.315 17.43 17.43 0 008.555-2.435c4.91-2.913 8.27-8.153 8.554-14.194a17.482 17.482 0 00-14.54 8.313zm15.751-2.8a17.547 17.547 0 007.734 8.881 17.455 17.455 0 008.575 2.243c.112 0 .22-.006.33-.009a17.377 17.377 0 00-2.569-8.316c-3.079-4.993-8.606-8.324-14.91-8.324-.038 0-.076 0-.113.003M2.165 25.14A17.38 17.38 0 011 18.867c0-2.493.525-4.865 1.466-7.01m9.413-9.694A17.463 17.463 0 0118.16 1c2.496 0 4.873.524 7.022 1.464M11.879 34.837c1.951.75 4.07 1.163 6.282 1.163 2.496 0 4.873-.524 7.022-1.464" stroke="#C9CDCA" stroke-width="2" stroke-miterlimit="10" stroke-linecap="round" stroke-linejoin="round"/></svg>