<svg width="93" height="75" viewBox="0 0 93 75" fill="none" xmlns="http://www.w3.org/2000/svg"><path d="M35.935 19.467c2.145-1.165 3.71-1.105 4.693.18.985 1.284 1.516 2.37 1.593 3.256 2.092 5.674-3.488 15.273-16.74 28.797-2.39 8.326-3.497 13.59-3.32 15.793.166 2.183 1.01 2.473 2.528.868 1.519-1.604 3.008-3.633 4.466-6.086 1.478-2.463 2.67-3.448 3.574-2.958-3.361 6.828-6.796 11.186-10.304 13.073-.717.481-1.292.34-1.726-.422-1.362-3.713-.93-9.302 1.296-16.764l-.175-.367c-5.181 4.327-8.028 6.487-8.54 6.478-.522-.028-.705-.46-.551-1.296.164-.863 3.69-4.064 10.58-9.6 4.903-18.953 9.112-29.27 12.626-30.952zm-8.66 26.282l.846-.405c9.133-9.729 13.181-16.713 12.146-20.952-.476-2.104-1.33-3.14-2.56-3.105-1.23.035-2.877 2.266-4.938 6.694-2.062 4.427-3.893 10.35-5.494 17.768zM43.52 44.8c4.867-3.345 7.93-3.967 9.188-1.868 1.472 1.629-.363 5.636-5.506 12.023-5.142 6.388-8.385 9.891-9.728 10.51-1.344.62-2.32.8-2.931.537-.6-.29-1.14-1.198-1.616-2.725 2.196-8.973 5.727-15.132 10.593-18.477zm-7.846 15.603c-.69 2.755.139 3.306 2.488 1.65 2.367-1.664 6.37-6.743 12.005-15.237l.335-.819c.195-1.571-.766-2.012-2.884-1.322s-4.47 2.797-7.056 6.322c-2.577 3.496-4.206 6.631-4.888 9.406zM65.261 38.76c-.469-.884-1.024-1.416-1.663-1.594-.6-.915 1.539-2.793 6.415-5.634 1.463-.562 2.265-.576 2.405-.042-.17.658-1.126 1.532-2.869 2.62-1.743 1.088-2.405 1.901-1.985 2.44l.302 1.933-2.605.277zm-.31 6.592c-1.395 3.647-3.517 6.695-6.364 9.143-.833.721-1.495 1.05-1.988.986-.483-.093-.913-.533-1.29-1.323l.5-5.47c.592-3.587.842-5.623.748-6.11-.103-.504-.517-.549-1.242-.133L51.882 47c-.53.439-.897.66-1.102.666-.205.006-.416-.216-.631-.668.778-2.959 3.07-5.892 6.875-8.798l.282-.135c.818-.414 1.372-.414 1.663 0 .301.388.39.935.265 1.64-.226 1.264-.638 4.313-1.234 9.149-.491 3.607.326 3.77 2.451.49 1.058-1.361 2.757-5.027 5.097-10.997l.947-.626c.595.085 1.021.25 1.278.497l-.67 2.295c-.506 1.836-1.224 3.45-2.152 4.84zm11.285-15.585c1.264-1.46 2.73-2.427 4.397-2.901 1.658-.493 2.932.167 3.823 1.98 1.232 2.575-2.908 6.809-12.422 12.7-1.817 1.61-2.5 2.837-2.049 3.683.47.838 1.108 1.18 1.912 1.026a19.369 19.369 0 002.486-.74c.854-.339 3.707-2.316 8.56-5.932 4.843-3.634 7.308-5.264 7.394-4.89.097.347-2.053 2.369-6.45 6.067-4.388 3.67-8.237 6.147-11.549 7.431-2.43.424-3.865-.379-4.305-2.408l-.382-1.377-1.888.904c-.366-.379-.245-.945.365-1.699.619-.781 3.988-5.396 10.108-13.844zM74.69 35.01c-4.648 5.297-4.06 5.8 1.763 1.513 4.556-3.751 6.614-6.087 6.174-7.008-.441-.92-1.73-.72-3.869.604l-4.068 4.892z" fill="#fff"/></svg>