<svg width="30" height="28" viewBox="0 0 30 28" fill="none" xmlns="http://www.w3.org/2000/svg"><mask id="mask0_1_6800" style="mask-type:luminance" maskUnits="userSpaceOnUse" x="0" y="0" width="30" height="28"><path d="M29.558 0H0v28h29.558V0z" fill="#fff"/></mask><g mask="url(#mask0_1_6800)"><path d="M15.142 7.49a6.632 6.632 0 00.68 2.255 6.994 6.994 0 00.628 1.015 7.258 7.258 0 001.259 1.298 7.196 7.196 0 001.564.956 7.398 7.398 0 001.766.555c.204.038.409.067.613.089 1.998.208 4.578.341 7.908.341-3.33 0-5.91.133-7.908.341a7.745 7.745 0 00-2.38.644 7.667 7.667 0 00-1.07.595 7.579 7.579 0 00-.951.759c-.147.14-.288.282-.42.434a6.628 6.628 0 00-1.01 1.481c-.089.178-.17.357-.244.54a6.446 6.446 0 00-.341 1.133c-.04.194-.07.387-.094.581-.22 1.893-.36 4.337-.36 7.491 0-3.154-.14-5.598-.36-7.49a6.592 6.592 0 00-.435-1.714 7.007 7.007 0 00-.873-1.556 7.287 7.287 0 00-.801-.9 7.171 7.171 0 00-1.472-1.078 7.709 7.709 0 00-2.316-.831 8.042 8.042 0 00-.613-.089c-1.999-.208-4.578-.341-7.908-.341 3.33 0 5.91-.133 7.908-.341a7.7 7.7 0 002.929-.92 7.104 7.104 0 001.014-.68 8.42 8.42 0 00.458-.398 6.61 6.61 0 00.42-.434 6.884 6.884 0 001.45-2.58 6.67 6.67 0 00.239-1.155c.22-1.893.36-4.337.36-7.491-.002 3.154.14 5.598.36 7.49z" fill="#F7F7F6"/></g></svg>