<svg width="1016" height="121" viewBox="0 0 1016 121" fill="none" xmlns="http://www.w3.org/2000/svg"><path d="M141.961 28V11.2h6.984c1.776 0 3.168.368 4.176 1.104 1.024.72 1.536 1.784 1.536 3.192 0 1.392-.488 2.448-1.464 3.168-.976.704-2.256 1.056-3.84 1.056l.408-.6c1.872 0 3.296.368 4.272 1.104.976.736 1.464 1.816 1.464 3.24 0 1.44-.512 2.56-1.536 3.36-1.008.784-2.528 1.176-4.56 1.176h-7.44zm1.752-1.416h5.688c1.424 0 2.504-.264 3.24-.792.736-.528 1.104-1.344 1.104-2.448 0-1.088-.368-1.888-1.104-2.4-.736-.512-1.816-.768-3.24-.768h-5.688v6.408zm0-7.776h5.136c1.296 0 2.288-.256 2.976-.768.704-.528 1.056-1.304 1.056-2.328 0-1.024-.352-1.792-1.056-2.304-.688-.528-1.68-.792-2.976-.792h-5.136v6.192zm21.096 9.312c-1.248 0-2.368-.272-3.36-.816a6.179 6.179 0 01-2.304-2.28c-.56-.976-.84-2.088-.84-3.336 0-1.264.28-2.376.84-3.336a6.002 6.002 0 012.304-2.256c.992-.544 2.112-.816 3.36-.816 1.072 0 2.04.208 2.904.624a4.706 4.706 0 012.04 1.872l-1.272.864c-.432-.64-.968-1.112-1.608-1.416a4.804 4.804 0 00-2.088-.456c-.896 0-1.704.208-2.424.624-.72.4-1.288.968-1.704 1.704-.416.736-.624 1.6-.624 2.592s.208 1.856.624 2.592a4.533 4.533 0 001.704 1.728c.72.4 1.528.6 2.424.6.752 0 1.448-.152 2.088-.456a4.058 4.058 0 001.608-1.392l1.272.864a4.905 4.905 0 01-2.04 1.872c-.864.416-1.832.624-2.904.624zm13.433 0c-1.312 0-2.464-.272-3.456-.816a6.129 6.129 0 01-2.328-2.28c-.56-.976-.84-2.088-.84-3.336 0-1.248.264-2.352.792-3.312a5.98 5.98 0 012.208-2.256c.944-.56 2-.84 3.168-.84 1.184 0 2.232.272 3.144.816.928.528 1.656 1.28 2.184 2.256.528.96.792 2.072.792 3.336 0 .08-.008.168-.024.264v.264h-10.968v-1.272h10.056l-.672.504c0-.912-.2-1.72-.6-2.424a4.222 4.222 0 00-1.584-1.68c-.672-.4-1.448-.6-2.328-.6-.864 0-1.64.2-2.328.6-.688.4-1.224.96-1.608 1.68-.384.72-.576 1.544-.576 2.472v.264c0 .96.208 1.808.624 2.544a4.662 4.662 0 001.776 1.704c.768.4 1.64.6 2.616.6.768 0 1.48-.136 2.136-.408a4.443 4.443 0 001.728-1.248l.96 1.104a5.388 5.388 0 01-2.112 1.536c-.832.352-1.752.528-2.76.528zm15.717-.12V15.4h1.728l5.712 9.672h-.72l5.808-9.672h1.584V28h-1.56V17.344l.312.144-5.424 8.976h-.768l-5.472-9.072.36-.072V28h-1.56zm24.361.12c-1.312 0-2.464-.272-3.456-.816a6.129 6.129 0 01-2.328-2.28c-.56-.976-.84-2.088-.84-3.336 0-1.248.264-2.352.792-3.312a5.98 5.98 0 012.208-2.256c.944-.56 2-.84 3.168-.84 1.184 0 2.232.272 3.144.816.928.528 1.656 1.28 2.184 2.256.528.96.792 2.072.792 3.336 0 .08-.008.168-.024.264v.264h-10.968v-1.272h10.056l-.672.504c0-.912-.2-1.72-.6-2.424a4.222 4.222 0 00-1.584-1.68c-.672-.4-1.448-.6-2.328-.6-.864 0-1.64.2-2.328.6-.688.4-1.224.96-1.608 1.68-.384.72-.576 1.544-.576 2.472v.264c0 .96.208 1.808.624 2.544a4.662 4.662 0 001.776 1.704c.768.4 1.64.6 2.616.6.768 0 1.48-.136 2.136-.408a4.443 4.443 0 001.728-1.248l.96 1.104a5.388 5.388 0 01-2.112 1.536c-.832.352-1.752.528-2.76.528zm17.818-.936V16.888h-6.072l-.144 2.808c-.032.848-.088 1.68-.168 2.496a13.311 13.311 0 01-.36 2.256c-.16.672-.392 1.224-.696 1.656-.304.416-.696.656-1.176.72l-1.704-.312c.496.016.904-.16 1.224-.528.32-.384.568-.904.744-1.56.176-.656.304-1.4.384-2.232.08-.848.144-1.712.192-2.592l.168-4.2h9.312v11.784h-1.704zm-10.848 3.864v-4.536h14.52v4.536h-1.608V28h-11.304v3.048h-1.608zM243.131 28V15.4h1.704v10.008l8.424-10.008h1.512V28h-1.704V17.968L244.667 28h-1.536zm18.923 0V16.432l.432.456h-5.208V15.4h11.256v1.488h-5.208l.432-.456V28h-1.704zm16.768 0v-2.784l-.072-.456v-4.656c0-1.072-.304-1.896-.912-2.472-.592-.576-1.48-.864-2.664-.864-.816 0-1.592.136-2.328.408-.736.272-1.36.632-1.872 1.08l-.768-1.272c.64-.544 1.408-.96 2.304-1.248a8.754 8.754 0 012.832-.456c1.632 0 2.888.408 3.768 1.224.896.8 1.344 2.024 1.344 3.672V28h-1.632zm-4.344.12c-.944 0-1.768-.152-2.472-.456-.688-.32-1.216-.752-1.584-1.296-.368-.56-.552-1.2-.552-1.92 0-.656.152-1.248.456-1.776.32-.544.832-.976 1.536-1.296.72-.336 1.68-.504 2.88-.504h4.344v1.272h-4.296c-1.216 0-2.064.216-2.544.648a2.108 2.108 0 00-.696 1.608c0 .72.28 1.296.84 1.728.56.432 1.344.648 2.352.648.96 0 1.784-.216 2.472-.648.704-.448 1.216-1.088 1.536-1.92l.384 1.176c-.32.832-.88 1.496-1.68 1.992-.784.496-1.776.744-2.976.744zM284.99 28V15.4h1.704v11.112h7.704V15.4h1.704V28H284.99zm11.544 3.048v-3.192l.432.144h-2.568v-1.488h3.744v4.536h-1.608zM301.397 28V15.4h1.704v10.008l8.424-10.008h1.512V28h-1.704V17.968L302.933 28h-1.536zm16.523 0V15.4h1.704v10.008l8.424-10.008h1.512V28h-1.704V17.968L319.456 28h-1.536zm22.805 0V15.4h1.704v10.008l8.424-10.008h1.512V28h-1.704V17.968L342.261 28h-1.536zm16.523 0V15.4h1.728l5.712 9.672h-.72l5.808-9.672h1.584V28h-1.56V17.344l.312.144-5.424 8.976h-.768l-5.472-9.072.36-.072V28h-1.56zm24.361.12c-1.312 0-2.464-.272-3.456-.816a6.129 6.129 0 01-2.328-2.28c-.56-.976-.84-2.088-.84-3.336 0-1.248.264-2.352.792-3.312a5.98 5.98 0 012.208-2.256c.944-.56 2-.84 3.168-.84 1.184 0 2.232.272 3.144.816.928.528 1.656 1.28 2.184 2.256.528.96.792 2.072.792 3.336 0 .08-.008.168-.024.264v.264h-10.968v-1.272h10.056l-.672.504c0-.912-.2-1.72-.6-2.424a4.222 4.222 0 00-1.584-1.68c-.672-.4-1.448-.6-2.328-.6-.864 0-1.64.2-2.328.6-.688.4-1.224.96-1.608 1.68-.384.72-.576 1.544-.576 2.472v.264c0 .96.208 1.808.624 2.544a4.662 4.662 0 001.776 1.704c.768.4 1.64.6 2.616.6.768 0 1.48-.136 2.136-.408a4.443 4.443 0 001.728-1.248l.96 1.104a5.388 5.388 0 01-2.112 1.536c-.832.352-1.752.528-2.76.528zm9.436-.12V15.4h1.704v5.424h3.84v1.56h-3.84V28h-1.704zm10.848.12c-1.2 0-2.28-.272-3.24-.816a6.105 6.105 0 01-2.232-2.28c-.544-.976-.816-2.088-.816-3.336 0-1.264.272-2.376.816-3.336a5.927 5.927 0 012.232-2.256c.96-.544 2.04-.816 3.24-.816 1.2 0 2.272.272 3.216.816a5.927 5.927 0 012.232 2.256c.544.96.816 2.072.816 3.336 0 1.248-.272 2.36-.816 3.336a6.105 6.105 0 01-2.232 2.28c-.944.544-2.016.816-3.216.816zm0-1.488c.88 0 1.664-.208 2.352-.624a4.469 4.469 0 001.632-1.728c.4-.752.6-1.616.6-2.592 0-.992-.2-1.856-.6-2.592a4.295 4.295 0 00-1.632-1.704c-.688-.416-1.472-.624-2.352-.624-.864 0-1.648.208-2.352.624-.688.4-1.232.968-1.632 1.704-.4.736-.6 1.6-.6 2.592 0 .976.2 1.84.6 2.592.4.736.944 1.312 1.632 1.728a4.536 4.536 0 002.352.624zM413.742 28V16.432l.432.456h-5.208V15.4h11.256v1.488h-5.208l.432-.456V28h-1.704zm15.225 0V15.4h8.928v1.488h-7.656l.432-.432V28h-1.704zm8.313-.024l.12-1.464c.112.016.216.04.312.072.112.016.208.024.288.024.512 0 .92-.192 1.224-.576.32-.384.56-.896.72-1.536.16-.64.272-1.36.336-2.16.064-.816.12-1.632.168-2.448l.216-4.488h9.24V28H448.2V16.384l.432.504h-6.864l.408-.528-.192 3.648a37.217 37.217 0 01-.264 3.12c-.112.992-.296 1.864-.552 2.616-.24.752-.576 1.344-1.008 1.776-.432.416-.984.624-1.656.624-.192 0-.392-.016-.6-.048-.192-.032-.4-.072-.624-.12zm17.684 4.8c-.592 0-1.16-.096-1.704-.288a3.692 3.692 0 01-1.368-.864l.792-1.272c.32.304.664.536 1.032.696.384.176.808.264 1.272.264.56 0 1.04-.16 1.44-.48.416-.304.808-.848 1.176-1.632l.816-1.848.192-.264 5.184-11.688h1.68l-6.312 14.112c-.352.816-.744 1.464-1.176 1.944-.416.48-.872.816-1.368 1.008a4.242 4.242 0 01-1.656.312zm3.36-4.416l-5.808-12.96h1.776l5.136 11.568-1.104 1.392zm15.284-.216c-1.024 0-1.936-.168-2.736-.504a5.228 5.228 0 01-2.016-1.536c-.56-.688-.984-1.536-1.272-2.544-.288-1.024-.432-2.208-.432-3.552 0-1.2.112-2.248.336-3.144.224-.912.536-1.696.936-2.352.4-.656.864-1.208 1.392-1.656a7.007 7.007 0 011.752-1.104 9.776 9.776 0 011.968-.648l5.664-1.32.288 1.584-5.328 1.2c-.336.08-.744.192-1.224.336-.464.144-.944.36-1.44.648-.48.288-.928.688-1.344 1.2-.416.512-.752 1.176-1.008 1.992-.24.8-.36 1.8-.36 3 0 .256.008.464.024.624.016.144.032.304.048.48.032.16.056.4.072.72l-.744-.624c.176-.976.536-1.824 1.08-2.544a5.53 5.53 0 012.04-1.704c.832-.416 1.752-.624 2.76-.624 1.168 0 2.208.256 3.12.768a5.364 5.364 0 012.136 2.088c.528.896.792 1.936.792 3.12 0 1.168-.272 2.216-.816 3.144-.528.928-1.28 1.656-2.256 2.184-.976.512-2.12.768-3.432.768zm.192-1.416c.896 0 1.688-.2 2.376-.6a4.383 4.383 0 001.608-1.68c.4-.704.6-1.496.6-2.376 0-.864-.2-1.632-.6-2.304a4.136 4.136 0 00-1.608-1.584c-.688-.4-1.488-.6-2.4-.6-.896 0-1.688.192-2.376.576a4.136 4.136 0 00-1.632 1.56c-.384.672-.576 1.448-.576 2.328 0 .88.192 1.672.576 2.376.4.704.944 1.264 1.632 1.68.704.416 1.504.624 2.4.624zm15.148 1.392c-1.216 0-2.312-.272-3.288-.816a6.232 6.232 0 01-2.28-2.28c-.56-.976-.84-2.088-.84-3.336 0-1.264.28-2.376.84-3.336a6.051 6.051 0 012.28-2.256c.96-.544 2.056-.816 3.288-.816 1.248 0 2.352.272 3.312.816a5.832 5.832 0 012.28 2.256c.56.96.84 2.072.84 3.336 0 1.248-.28 2.36-.84 3.336a6 6 0 01-2.28 2.28c-.976.544-2.08.816-3.312.816zm0-1.512c.912 0 1.72-.2 2.424-.6a4.413 4.413 0 001.656-1.728c.416-.752.624-1.616.624-2.592 0-.992-.208-1.856-.624-2.592a4.246 4.246 0 00-1.656-1.704c-.704-.416-1.504-.624-2.4-.624-.896 0-1.696.208-2.4.624a4.41 4.41 0 00-1.68 1.704c-.416.736-.624 1.6-.624 2.592 0 .976.208 1.84.624 2.592a4.587 4.587 0 001.68 1.728c.704.4 1.496.6 2.376.6zM508.262 28l-5.184-6.24 1.416-.84 5.784 7.08h-2.016zm-9.24 0V15.4h1.704V28h-1.704zm1.176-5.616V20.92h4.056v1.464h-4.056zm4.44-.504l-1.584-.24 5.016-6.24h1.848l-5.28 6.48zm8.329 6.12V15.4h1.704v10.008l8.424-10.008h1.512V28h-1.704V17.968L514.503 28h-1.536zm16.523 0V15.4h1.704v10.008l8.424-10.008h1.512V28h-1.704V17.968L531.026 28h-1.536zm5.712-14.424c-1.056 0-1.912-.264-2.568-.792-.64-.544-.976-1.32-1.008-2.328h1.224c.016.64.24 1.144.672 1.512.432.368.992.552 1.68.552s1.248-.184 1.68-.552c.448-.368.68-.872.696-1.512h1.224c-.016 1.008-.352 1.784-1.008 2.328-.656.528-1.52.792-2.592.792zM554.695 28V16.432l.432.456h-5.208V15.4h11.256v1.488h-5.208l.432-.456V28h-1.704zm13.758.12c-1.312 0-2.464-.272-3.456-.816a6.129 6.129 0 01-2.328-2.28c-.56-.976-.84-2.088-.84-3.336 0-1.248.264-2.352.792-3.312a5.98 5.98 0 012.208-2.256c.944-.56 2-.84 3.168-.84 1.184 0 2.232.272 3.144.816.928.528 1.656 1.28 2.184 2.256.528.96.792 2.072.792 3.336 0 .08-.008.168-.024.264v.264h-10.968v-1.272h10.056l-.672.504c0-.912-.2-1.72-.6-2.424a4.222 4.222 0 00-1.584-1.68c-.672-.4-1.448-.6-2.328-.6-.864 0-1.64.2-2.328.6-.688.4-1.224.96-1.608 1.68-.384.72-.576 1.544-.576 2.472v.264c0 .96.208 1.808.624 2.544a4.662 4.662 0 001.776 1.704c.768.4 1.64.6 2.616.6.768 0 1.48-.136 2.136-.408a4.443 4.443 0 001.728-1.248l.96 1.104a5.388 5.388 0 01-2.112 1.536c-.832.352-1.752.528-2.76.528zm15.94 0c-1.088 0-2.072-.248-2.952-.744-.88-.512-1.584-1.24-2.112-2.184-.512-.96-.768-2.128-.768-3.504s.256-2.536.768-3.48c.512-.96 1.208-1.688 2.088-2.184.88-.496 1.872-.744 2.976-.744 1.2 0 2.272.272 3.216.816a5.668 5.668 0 012.256 2.256c.544.96.816 2.072.816 3.336 0 1.28-.272 2.4-.816 3.36a5.878 5.878 0 01-2.256 2.256c-.944.544-2.016.816-3.216.816zm-6.504 4.536V15.4h1.632v3.792l-.168 2.52.24 2.544v8.4h-1.704zm6.384-6.048c.896 0 1.696-.2 2.4-.6a4.587 4.587 0 001.68-1.728c.416-.752.624-1.616.624-2.592s-.208-1.832-.624-2.568a4.587 4.587 0 00-1.68-1.728c-.704-.416-1.504-.624-2.4-.624-.896 0-1.704.208-2.424.624a4.587 4.587 0 00-1.68 1.728c-.4.736-.6 1.592-.6 2.568s.2 1.84.6 2.592a4.587 4.587 0 001.68 1.728c.72.4 1.528.6 2.424.6zM602.096 28v-2.784l-.072-.456v-4.656c0-1.072-.304-1.896-.912-2.472-.592-.576-1.48-.864-2.664-.864-.816 0-1.592.136-2.328.408-.736.272-1.36.632-1.872 1.08l-.768-1.272c.64-.544 1.408-.96 2.304-1.248a8.754 8.754 0 012.832-.456c1.632 0 2.888.408 3.768 1.224.896.8 1.344 2.024 1.344 3.672V28h-1.632zm-4.344.12c-.944 0-1.768-.152-2.472-.456-.688-.32-1.216-.752-1.584-1.296-.368-.56-.552-1.2-.552-1.92 0-.656.152-1.248.456-1.776.32-.544.832-.976 1.536-1.296.72-.336 1.68-.504 2.88-.504h4.344v1.272h-4.296c-1.216 0-2.064.216-2.544.648a2.108 2.108 0 00-.696 1.608c0 .72.28 1.296.84 1.728.56.432 1.344.648 2.352.648.96 0 1.784-.216 2.472-.648.704-.448 1.216-1.088 1.536-1.92l.384 1.176c-.32.832-.88 1.496-1.68 1.992-.784.496-1.776.744-2.976.744zm10.512-.12V15.4h11.328V28h-1.704V16.432l.432.456h-8.784l.432-.456V28h-1.704zm21.572.12c-1.312 0-2.464-.272-3.456-.816a6.129 6.129 0 01-2.328-2.28c-.56-.976-.84-2.088-.84-3.336 0-1.248.264-2.352.792-3.312a5.98 5.98 0 012.208-2.256c.944-.56 2-.84 3.168-.84 1.184 0 2.232.272 3.144.816.928.528 1.656 1.28 2.184 2.256.528.96.792 2.072.792 3.336 0 .08-.008.168-.024.264v.264h-10.968v-1.272h10.056l-.672.504c0-.912-.2-1.72-.6-2.424a4.222 4.222 0 00-1.584-1.68c-.672-.4-1.448-.6-2.328-.6-.864 0-1.64.2-2.328.6-.688.4-1.224.96-1.608 1.68-.384.72-.576 1.544-.576 2.472v.264c0 .96.208 1.808.624 2.544a4.662 4.662 0 001.776 1.704c.768.4 1.64.6 2.616.6.768 0 1.48-.136 2.136-.408a4.443 4.443 0 001.728-1.248l.96 1.104a5.388 5.388 0 01-2.112 1.536c-.832.352-1.752.528-2.76.528zm9.436-.12V15.4h5.568c1.424 0 2.544.272 3.36.816.832.544 1.248 1.344 1.248 2.4 0 1.024-.392 1.816-1.176 2.376-.784.544-1.816.816-3.096.816l.336-.504c1.504 0 2.608.28 3.312.84.704.56 1.056 1.368 1.056 2.424 0 1.088-.4 1.936-1.2 2.544-.784.592-2.008.888-3.672.888h-5.736zm1.656-1.344h4.008c1.072 0 1.88-.168 2.424-.504.56-.352.84-.912.84-1.68 0-.768-.248-1.328-.744-1.68-.496-.352-1.28-.528-2.352-.528h-4.176v4.392zm0-5.664h3.792c.976 0 1.72-.184 2.232-.552.528-.368.792-.904.792-1.608 0-.704-.264-1.232-.792-1.584-.512-.352-1.256-.528-2.232-.528h-3.792v4.272zM656.273 28V16.432l.432.456h-5.208V15.4h11.256v1.488h-5.208l.432-.456V28h-1.704zm8.944 0V15.4h1.704v10.008l8.424-10.008h1.512V28h-1.704V17.968L666.753 28h-1.536zm24.491-5.328c-.736.32-1.48.576-2.232.768a9.464 9.464 0 01-2.208.264c-1.488 0-2.664-.336-3.528-1.008-.864-.688-1.296-1.744-1.296-3.168V15.4h1.68v4.032c0 .96.312 1.68.936 2.16.624.48 1.464.72 2.52.72a9.1 9.1 0 002.016-.24 13.064 13.064 0 002.136-.744l-.024 1.344zM689.564 28V15.4h1.704V28h-1.704zm11.944.12c-1.312 0-2.464-.272-3.456-.816a6.129 6.129 0 01-2.328-2.28c-.56-.976-.84-2.088-.84-3.336 0-1.248.264-2.352.792-3.312a5.98 5.98 0 012.208-2.256c.944-.56 2-.84 3.168-.84 1.184 0 2.232.272 3.144.816.928.528 1.656 1.28 2.184 2.256.528.96.792 2.072.792 3.336 0 .08-.008.168-.024.264v.264H696.18v-1.272h10.056l-.672.504c0-.912-.2-1.72-.6-2.424a4.222 4.222 0 00-1.584-1.68c-.672-.4-1.448-.6-2.328-.6-.864 0-1.64.2-2.328.6-.688.4-1.224.96-1.608 1.68-.384.72-.576 1.544-.576 2.472v.264c0 .96.208 1.808.624 2.544a4.662 4.662 0 001.776 1.704c.768.4 1.64.6 2.616.6.768 0 1.48-.136 2.136-.408a4.443 4.443 0 001.728-1.248l.96 1.104a5.388 5.388 0 01-2.112 1.536c-.832.352-1.752.528-2.76.528zm14.716 0c-1.248 0-2.368-.272-3.36-.816a6.179 6.179 0 01-2.304-2.28c-.56-.976-.84-2.088-.84-3.336 0-1.264.28-2.376.84-3.336a6.002 6.002 0 012.304-2.256c.992-.544 2.112-.816 3.36-.816 1.072 0 2.04.208 2.904.624a4.706 4.706 0 012.04 1.872l-1.272.864c-.432-.64-.968-1.112-1.608-1.416a4.804 4.804 0 00-2.088-.456c-.896 0-1.704.208-2.424.624-.72.4-1.288.968-1.704 1.704-.416.736-.624 1.6-.624 2.592s.208 1.856.624 2.592a4.533 4.533 0 001.704 1.728c.72.4 1.528.6 2.424.6.752 0 1.448-.152 2.088-.456a4.058 4.058 0 001.608-1.392l1.272.864a4.905 4.905 0 01-2.04 1.872c-.864.416-1.832.624-2.904.624zm17.483-.12l-5.184-6.24 1.416-.84 5.784 7.08h-2.016zm-9.24 0V15.4h1.704V28h-1.704zm1.176-5.616V20.92h4.056v1.464h-4.056zm4.44-.504l-1.584-.24 5.016-6.24h1.848l-5.28 6.48zm8.329 6.12V15.4h1.704v10.008L748.54 15.4h1.512V28h-1.704V17.968L739.948 28h-1.536zm16.524 0V15.4h1.704v10.008l8.424-10.008h1.512V28h-1.704V17.968L756.472 28h-1.536zm5.712-14.424c-1.056 0-1.912-.264-2.568-.792-.64-.544-.976-1.32-1.008-2.328h1.224c.016.64.24 1.144.672 1.512.432.368.992.552 1.68.552s1.248-.184 1.68-.552c.448-.368.68-.872.696-1.512h1.224c-.016 1.008-.352 1.784-1.008 2.328-.656.528-1.52.792-2.592.792zm18.844 8.664v-1.296h7.32v1.296h-7.32zm1.68-6.96c1.28 0 2.424.28 3.432.84a6.032 6.032 0 012.376 2.28c.592.96.888 2.056.888 3.288 0 1.232-.296 2.336-.888 3.312a6.204 6.204 0 01-2.376 2.304c-1.008.56-2.152.84-3.432.84-1.04 0-2.008-.16-2.904-.48-.88-.336-1.624-.816-2.232-1.44l1.008-1.008c.544.512 1.16.896 1.848 1.152.688.24 1.424.36 2.208.36.992 0 1.872-.216 2.64-.648a4.99 4.99 0 001.848-1.8c.448-.768.672-1.632.672-2.592 0-.96-.224-1.816-.672-2.568a4.758 4.758 0 00-1.848-1.8c-.768-.432-1.648-.648-2.64-.648a6.28 6.28 0 00-2.208.384 5.144 5.144 0 00-1.848 1.128l-1.008-.984a5.725 5.725 0 012.232-1.44 8.573 8.573 0 012.904-.48zm17.359 12.864h-.408c-2.496-.016-4.44-.584-5.832-1.704-1.392-1.12-2.088-2.712-2.088-4.776 0-2.032.696-3.6 2.088-4.704 1.408-1.12 3.384-1.688 5.928-1.704h.36c2.56.016 4.552.584 5.976 1.704 1.424 1.104 2.136 2.672 2.136 4.704 0 2.08-.72 3.68-2.16 4.8-1.424 1.12-3.424 1.68-6 1.68zm-.024-1.488c1.424 0 2.616-.192 3.576-.576.96-.4 1.688-.968 2.184-1.704.496-.736.744-1.64.744-2.712 0-1.04-.248-1.92-.744-2.64-.496-.736-1.224-1.296-2.184-1.68-.96-.384-2.152-.576-3.576-.576h-.264c-1.392 0-2.56.2-3.504.6-.944.384-1.656.936-2.136 1.656-.48.72-.72 1.6-.72 2.64 0 1.056.24 1.952.72 2.688.496.736 1.216 1.304 2.16 1.704.944.384 2.104.584 3.48.6h.264zm-.912 6V10.192h1.656v22.464h-1.656zm19.78-4.512h-.408c-2.496-.016-4.44-.584-5.832-1.704-1.392-1.12-2.088-2.712-2.088-4.776 0-2.032.696-3.6 2.088-4.704 1.408-1.12 3.384-1.688 5.928-1.704h.36c2.56.016 4.552.584 5.976 1.704 1.424 1.104 2.136 2.672 2.136 4.704 0 2.08-.72 3.68-2.16 4.8-1.424 1.12-3.424 1.68-6 1.68zm-.024-1.488c1.424 0 2.616-.192 3.576-.576.96-.4 1.688-.968 2.184-1.704.496-.736.744-1.64.744-2.712 0-1.04-.248-1.92-.744-2.64-.496-.736-1.224-1.296-2.184-1.68-.96-.384-2.152-.576-3.576-.576h-.264c-1.392 0-2.56.2-3.504.6-.944.384-1.656.936-2.136 1.656-.48.72-.72 1.6-.72 2.64 0 1.056.24 1.952.72 2.688.496.736 1.216 1.304 2.16 1.704.944.384 2.104.584 3.48.6h.264zm-.912 6V10.192h1.656v22.464h-1.656zm18.1-4.536c-1.312 0-2.464-.272-3.456-.816a6.129 6.129 0 01-2.328-2.28c-.56-.976-.84-2.088-.84-3.336 0-1.248.264-2.352.792-3.312a5.98 5.98 0 012.208-2.256c.944-.56 2-.84 3.168-.84 1.184 0 2.232.272 3.144.816.928.528 1.656 1.28 2.184 2.256.528.96.792 2.072.792 3.336 0 .08-.008.168-.024.264v.264h-10.968v-1.272h10.056l-.672.504c0-.912-.2-1.72-.6-2.424a4.222 4.222 0 00-1.584-1.68c-.672-.4-1.448-.6-2.328-.6-.864 0-1.64.2-2.328.6-.688.4-1.224.96-1.608 1.68-.384.72-.576 1.544-.576 2.472v.264c0 .96.208 1.808.624 2.544a4.662 4.662 0 001.776 1.704c.768.4 1.64.6 2.616.6.768 0 1.48-.136 2.136-.408a4.443 4.443 0 001.728-1.248l.96 1.104a5.388 5.388 0 01-2.112 1.536c-.832.352-1.752.528-2.76.528zm18.676-.12l-5.184-6.24 1.416-.84 5.784 7.08h-2.016zm-9.24 0V15.4h1.704V28h-1.704zm1.176-5.616V20.92h4.056v1.464h-4.056zm4.44-.504l-1.584-.24 5.016-6.24h1.848l-5.28 6.48zM860.062 28V16.432l.432.456h-5.208V15.4h11.256v1.488h-5.208l.432-.456V28h-1.704zm7.986.12c-.352 0-.656-.128-.912-.384a1.318 1.318 0 01-.36-.936c0-.384.12-.696.36-.936.256-.24.56-.36.912-.36s.648.12.888.36c.256.24.384.552.384.936 0 .368-.128.68-.384.936-.24.256-.536.384-.888.384zM212.021 49.176v-1.464h9.288v1.464h-9.288zm2.112-9.12c1.2 0 2.304.216 3.312.648a7.84 7.84 0 012.64 1.776 7.981 7.981 0 011.776 2.712c.416 1.04.624 2.176.624 3.408 0 1.232-.208 2.368-.624 3.408a7.981 7.981 0 01-1.776 2.712 8.147 8.147 0 01-2.64 1.8c-1.008.416-2.112.624-3.312.624-1.28 0-2.472-.208-3.576-.624-1.104-.416-2.024-1.032-2.76-1.848l1.104-1.128c.704.72 1.488 1.24 2.352 1.56.864.304 1.8.456 2.808.456.944 0 1.816-.176 2.616-.528a6.334 6.334 0 002.112-1.464 6.679 6.679 0 001.416-2.184c.336-.848.504-1.776.504-2.784 0-1.008-.168-1.928-.504-2.76a6.62 6.62 0 00-1.416-2.208 6.334 6.334 0 00-2.112-1.464 6.423 6.423 0 00-2.616-.528c-1.008 0-1.944.16-2.808.48-.864.32-1.648.832-2.352 1.536l-1.104-1.128c.736-.816 1.656-1.432 2.76-1.848 1.104-.416 2.296-.624 3.576-.624zM228.375 57V45.432l.432.456h-5.208V44.4h11.256v1.488h-5.208l.432-.456V57h-1.704zm13.542.12c-1.216 0-2.312-.272-3.288-.816a6.232 6.232 0 01-2.28-2.28c-.56-.976-.84-2.088-.84-3.336 0-1.264.28-2.376.84-3.336a6.051 6.051 0 012.28-2.256c.96-.544 2.056-.816 3.288-.816 1.248 0 2.352.272 3.312.816a5.832 5.832 0 012.28 2.256c.56.96.84 2.072.84 3.336 0 1.248-.28 2.36-.84 3.336a6 6 0 01-2.28 2.28c-.976.544-2.08.816-3.312.816zm0-1.512c.912 0 1.72-.2 2.424-.6a4.413 4.413 0 001.656-1.728c.416-.752.624-1.616.624-2.592 0-.992-.208-1.856-.624-2.592a4.246 4.246 0 00-1.656-1.704c-.704-.416-1.504-.624-2.4-.624-.896 0-1.696.208-2.4.624a4.41 4.41 0 00-1.68 1.704c-.416.736-.624 1.6-.624 2.592 0 .976.208 1.84.624 2.592a4.587 4.587 0 001.68 1.728c.704.4 1.496.6 2.376.6zM258.272 57V44.4h1.704v5.568h7.944V44.4h1.704V57h-1.704v-5.568h-7.944V57h-1.704zm21.595.12c-1.312 0-2.464-.272-3.456-.816a6.129 6.129 0 01-2.328-2.28c-.56-.976-.84-2.088-.84-3.336 0-1.248.264-2.352.792-3.312a5.98 5.98 0 012.208-2.256c.944-.56 2-.84 3.168-.84 1.184 0 2.232.272 3.144.816.928.528 1.656 1.28 2.184 2.256.528.96.792 2.072.792 3.336 0 .08-.008.168-.024.264v.264h-10.968v-1.272h10.056l-.672.504c0-.912-.2-1.72-.6-2.424a4.222 4.222 0 00-1.584-1.68c-.672-.4-1.448-.6-2.328-.6-.864 0-1.64.2-2.328.6-.688.4-1.224.96-1.608 1.68-.384.72-.576 1.544-.576 2.472v.264c0 .96.208 1.808.624 2.544a4.662 4.662 0 001.776 1.704c.768.4 1.64.6 2.616.6.768 0 1.48-.136 2.136-.408a4.443 4.443 0 001.728-1.248l.96 1.104a5.388 5.388 0 01-2.112 1.536c-.832.352-1.752.528-2.76.528zm15.717-.12V44.4h11.328V57h-1.704V45.432l.432.456h-8.784l.432-.456V57h-1.704zm22.676.12c-1.088 0-2.072-.248-2.952-.744-.88-.512-1.584-1.24-2.112-2.184-.512-.96-.768-2.128-.768-3.504s.256-2.536.768-3.48c.512-.96 1.208-1.688 2.088-2.184.88-.496 1.872-.744 2.976-.744 1.2 0 2.272.272 3.216.816a5.668 5.668 0 012.256 2.256c.544.96.816 2.072.816 3.336 0 1.28-.272 2.4-.816 3.36a5.878 5.878 0 01-2.256 2.256c-.944.544-2.016.816-3.216.816zm-6.504 4.536V44.4h1.632v3.792l-.168 2.52.24 2.544v8.4h-1.704zm6.384-6.048c.896 0 1.696-.2 2.4-.6a4.587 4.587 0 001.68-1.728c.416-.752.624-1.616.624-2.592s-.208-1.832-.624-2.568a4.587 4.587 0 00-1.68-1.728c-.704-.416-1.504-.624-2.4-.624-.896 0-1.704.208-2.424.624a4.587 4.587 0 00-1.68 1.728c-.4.736-.6 1.592-.6 2.568s.2 1.84.6 2.592a4.587 4.587 0 001.68 1.728c.72.4 1.528.6 2.424.6zm15.253 1.512c-1.216 0-2.312-.272-3.288-.816a6.232 6.232 0 01-2.28-2.28c-.56-.976-.84-2.088-.84-3.336 0-1.264.28-2.376.84-3.336a6.051 6.051 0 012.28-2.256c.96-.544 2.056-.816 3.288-.816 1.248 0 2.352.272 3.312.816a5.832 5.832 0 012.28 2.256c.56.96.84 2.072.84 3.336 0 1.248-.28 2.36-.84 3.336a6 6 0 01-2.28 2.28c-.976.544-2.08.816-3.312.816zm0-1.512c.912 0 1.72-.2 2.424-.6a4.413 4.413 0 001.656-1.728c.416-.752.624-1.616.624-2.592 0-.992-.208-1.856-.624-2.592a4.246 4.246 0 00-1.656-1.704c-.704-.416-1.504-.624-2.4-.624-.896 0-1.696.208-2.4.624a4.41 4.41 0 00-1.68 1.704c-.416.736-.624 1.6-.624 2.592 0 .976.208 1.84.624 2.592a4.587 4.587 0 001.68 1.728c.704.4 1.496.6 2.376.6zm15.354 1.512c-1.248 0-2.368-.272-3.36-.816a6.179 6.179 0 01-2.304-2.28c-.56-.976-.84-2.088-.84-3.336 0-1.264.28-2.376.84-3.336a6.002 6.002 0 012.304-2.256c.992-.544 2.112-.816 3.36-.816 1.072 0 2.04.208 2.904.624a4.706 4.706 0 012.04 1.872l-1.272.864c-.432-.64-.968-1.112-1.608-1.416a4.804 4.804 0 00-2.088-.456c-.896 0-1.704.208-2.424.624-.72.4-1.288.968-1.704 1.704-.416.736-.624 1.6-.624 2.592s.208 1.856.624 2.592a4.533 4.533 0 001.704 1.728c.72.4 1.528.6 2.424.6.752 0 1.448-.152 2.088-.456a4.058 4.058 0 001.608-1.392l1.272.864a4.905 4.905 0 01-2.04 1.872c-.864.416-1.832.624-2.904.624zm10.409-.12V45.432l.432.456h-5.208V44.4h11.256v1.488h-5.208l.432-.456V57h-1.704zm13.542.12c-1.216 0-2.312-.272-3.288-.816a6.232 6.232 0 01-2.28-2.28c-.56-.976-.84-2.088-.84-3.336 0-1.264.28-2.376.84-3.336a6.051 6.051 0 012.28-2.256c.96-.544 2.056-.816 3.288-.816 1.248 0 2.352.272 3.312.816a5.832 5.832 0 012.28 2.256c.56.96.84 2.072.84 3.336 0 1.248-.28 2.36-.84 3.336a6 6 0 01-2.28 2.28c-.976.544-2.08.816-3.312.816zm0-1.512c.912 0 1.72-.2 2.424-.6a4.413 4.413 0 001.656-1.728c.416-.752.624-1.616.624-2.592 0-.992-.208-1.856-.624-2.592a4.246 4.246 0 00-1.656-1.704c-.704-.416-1.504-.624-2.4-.624-.896 0-1.696.208-2.4.624a4.41 4.41 0 00-1.68 1.704c-.416.736-.624 1.6-.624 2.592 0 .976.208 1.84.624 2.592a4.587 4.587 0 001.68 1.728c.704.4 1.496.6 2.376.6zM398.293 57l-5.184-6.24 1.416-.84 5.784 7.08h-2.016zm-9.24 0V44.4h1.704V57h-1.704zm1.176-5.616V49.92h4.056v1.464h-4.056zm4.44-.504l-1.584-.24 5.016-6.24h1.848l-5.28 6.48zm14.833 6.24c-1.088 0-2.072-.248-2.952-.744-.88-.512-1.584-1.24-2.112-2.184-.512-.96-.768-2.128-.768-3.504s.256-2.536.768-3.48c.512-.96 1.208-1.688 2.088-2.184.88-.496 1.872-.744 2.976-.744 1.2 0 2.272.272 3.216.816a5.668 5.668 0 012.256 2.256c.544.96.816 2.072.816 3.336 0 1.28-.272 2.4-.816 3.36a5.878 5.878 0 01-2.256 2.256c-.944.544-2.016.816-3.216.816zm-6.504 4.536V44.4h1.632v3.792l-.168 2.52.24 2.544v8.4h-1.704zm6.384-6.048c.896 0 1.696-.2 2.4-.6a4.587 4.587 0 001.68-1.728c.416-.752.624-1.616.624-2.592s-.208-1.832-.624-2.568a4.587 4.587 0 00-1.68-1.728c-.704-.416-1.504-.624-2.4-.624-.896 0-1.704.208-2.424.624a4.587 4.587 0 00-1.68 1.728c-.4.736-.6 1.592-.6 2.568s.2 1.84.6 2.592a4.587 4.587 0 001.68 1.728c.72.4 1.528.6 2.424.6zM427.205 57v-2.784l-.072-.456v-4.656c0-1.072-.304-1.896-.912-2.472-.592-.576-1.48-.864-2.664-.864-.816 0-1.592.136-2.328.408-.736.272-1.36.632-1.872 1.08l-.768-1.272c.64-.544 1.408-.96 2.304-1.248a8.754 8.754 0 012.832-.456c1.632 0 2.888.408 3.768 1.224.896.8 1.344 2.024 1.344 3.672V57h-1.632zm-4.344.12c-.944 0-1.768-.152-2.472-.456-.688-.32-1.216-.752-1.584-1.296-.368-.56-.552-1.2-.552-1.92 0-.656.152-1.248.456-1.776.32-.544.832-.976 1.536-1.296.72-.336 1.68-.504 2.88-.504h4.344v1.272h-4.296c-1.216 0-2.064.216-2.544.648a2.108 2.108 0 00-.696 1.608c0 .72.28 1.296.84 1.728.56.432 1.344.648 2.352.648.96 0 1.784-.216 2.472-.648.704-.448 1.216-1.088 1.536-1.92l.384 1.176c-.32.832-.88 1.496-1.68 1.992-.784.496-1.776.744-2.976.744zm15.792 0c-1.248 0-2.368-.272-3.36-.816a6.179 6.179 0 01-2.304-2.28c-.56-.976-.84-2.088-.84-3.336 0-1.264.28-2.376.84-3.336a6.002 6.002 0 012.304-2.256c.992-.544 2.112-.816 3.36-.816 1.072 0 2.04.208 2.904.624a4.706 4.706 0 012.04 1.872l-1.272.864c-.432-.64-.968-1.112-1.608-1.416a4.804 4.804 0 00-2.088-.456c-.896 0-1.704.208-2.424.624-.72.4-1.288.968-1.704 1.704-.416.736-.624 1.6-.624 2.592s.208 1.856.624 2.592a4.533 4.533 0 001.704 1.728c.72.4 1.528.6 2.424.6.752 0 1.448-.152 2.088-.456a4.058 4.058 0 001.608-1.392l1.272.864a4.905 4.905 0 01-2.04 1.872c-.864.416-1.832.624-2.904.624zm8.244-.12V44.4h1.704v10.008l8.424-10.008h1.512V57h-1.704V46.968L448.433 57h-1.536zm16.523 0V44.4h5.568c1.424 0 2.544.272 3.36.816.832.544 1.248 1.344 1.248 2.4 0 1.024-.392 1.816-1.176 2.376-.784.544-1.816.816-3.096.816l.336-.504c1.504 0 2.608.28 3.312.84.704.56 1.056 1.368 1.056 2.424 0 1.088-.4 1.936-1.2 2.544-.784.592-2.008.888-3.672.888h-5.736zm1.656-1.344h4.008c1.072 0 1.88-.168 2.424-.504.56-.352.84-.912.84-1.68 0-.768-.248-1.328-.744-1.68-.496-.352-1.28-.528-2.352-.528h-4.176v4.392zm0-5.664h3.792c.976 0 1.72-.184 2.232-.552.528-.368.792-.904.792-1.608 0-.704-.264-1.232-.792-1.584-.512-.352-1.256-.528-2.232-.528h-3.792v4.272zM490.31 57V44.4h1.704V57h-1.704zm-6.984-8.16c1.584.016 2.792.368 3.624 1.056.832.688 1.248 1.68 1.248 2.976 0 1.344-.448 2.376-1.344 3.096-.896.72-2.176 1.072-3.84 1.056L478.022 57V44.4h1.704v4.392l3.6.048zm-.432 6.888c1.184.016 2.072-.216 2.664-.696.608-.496.912-1.216.912-2.16 0-.944-.296-1.632-.888-2.064-.592-.448-1.488-.68-2.688-.696l-3.168-.048v5.616l3.168.048zM496.865 57V44.4h1.704v10.008l8.424-10.008h1.512V57h-1.704V46.968L498.401 57h-1.536zm5.712-14.424c-1.056 0-1.912-.264-2.568-.792-.64-.544-.976-1.32-1.008-2.328h1.224c.016.64.24 1.144.672 1.512.432.368.992.552 1.68.552s1.248-.184 1.68-.552c.448-.368.68-.872.696-1.512h1.224c-.016 1.008-.352 1.784-1.008 2.328-.656.528-1.52.792-2.592.792zM519.67 57V44.4h8.928v1.488h-7.656l.432-.432V57h-1.704zm15.989.12c-1.216 0-2.312-.272-3.288-.816a6.232 6.232 0 01-2.28-2.28c-.56-.976-.84-2.088-.84-3.336 0-1.264.28-2.376.84-3.336a6.051 6.051 0 012.28-2.256c.96-.544 2.056-.816 3.288-.816 1.248 0 2.352.272 3.312.816a5.832 5.832 0 012.28 2.256c.56.96.84 2.072.84 3.336 0 1.248-.28 2.36-.84 3.336a6 6 0 01-2.28 2.28c-.976.544-2.08.816-3.312.816zm0-1.512c.912 0 1.72-.2 2.424-.6a4.413 4.413 0 001.656-1.728c.416-.752.624-1.616.624-2.592 0-.992-.208-1.856-.624-2.592a4.246 4.246 0 00-1.656-1.704c-.704-.416-1.504-.624-2.4-.624-.896 0-1.696.208-2.4.624a4.41 4.41 0 00-1.68 1.704c-.416.736-.624 1.6-.624 2.592 0 .976.208 1.84.624 2.592a4.587 4.587 0 001.68 1.728c.704.4 1.496.6 2.376.6zm7.699 1.368l.12-1.464c.112.016.216.04.312.072.112.016.208.024.288.024.512 0 .92-.192 1.224-.576.32-.384.56-.896.72-1.536.16-.64.272-1.36.336-2.16.064-.816.12-1.632.168-2.448l.216-4.488h9.24V57h-1.704V45.384l.432.504h-6.864l.408-.528-.192 3.648a37.217 37.217 0 01-.264 3.12c-.112.992-.296 1.864-.552 2.616-.24.752-.576 1.344-1.008 1.776-.432.416-.984.624-1.656.624-.192 0-.392-.016-.6-.048-.192-.032-.4-.072-.624-.12zm22.652.144c-1.216 0-2.312-.272-3.288-.816a6.232 6.232 0 01-2.28-2.28c-.56-.976-.84-2.088-.84-3.336 0-1.264.28-2.376.84-3.336a6.051 6.051 0 012.28-2.256c.96-.544 2.056-.816 3.288-.816 1.248 0 2.352.272 3.312.816a5.832 5.832 0 012.28 2.256c.56.96.84 2.072.84 3.336 0 1.248-.28 2.36-.84 3.336a6 6 0 01-2.28 2.28c-.976.544-2.08.816-3.312.816zm0-1.512c.912 0 1.72-.2 2.424-.6a4.413 4.413 0 001.656-1.728c.416-.752.624-1.616.624-2.592 0-.992-.208-1.856-.624-2.592a4.246 4.246 0 00-1.656-1.704c-.704-.416-1.504-.624-2.4-.624-.896 0-1.696.208-2.4.624a4.41 4.41 0 00-1.68 1.704c-.416.736-.624 1.6-.624 2.592 0 .976.208 1.84.624 2.592a4.587 4.587 0 001.68 1.728c.704.4 1.496.6 2.376.6zm15.354 1.512c-1.248 0-2.368-.272-3.36-.816a6.179 6.179 0 01-2.304-2.28c-.56-.976-.84-2.088-.84-3.336 0-1.264.28-2.376.84-3.336a6.002 6.002 0 012.304-2.256c.992-.544 2.112-.816 3.36-.816 1.072 0 2.04.208 2.904.624a4.706 4.706 0 012.04 1.872l-1.272.864c-.432-.64-.968-1.112-1.608-1.416a4.804 4.804 0 00-2.088-.456c-.896 0-1.704.208-2.424.624-.72.4-1.288.968-1.704 1.704-.416.736-.624 1.6-.624 2.592s.208 1.856.624 2.592a4.533 4.533 0 001.704 1.728c.72.4 1.528.6 2.424.6.752 0 1.448-.152 2.088-.456a4.058 4.058 0 001.608-1.392l1.272.864a4.905 4.905 0 01-2.04 1.872c-.864.416-1.832.624-2.904.624zm14.525-.12V44.4h5.568c1.424 0 2.544.272 3.36.816.832.544 1.248 1.344 1.248 2.4 0 1.024-.392 1.816-1.176 2.376-.784.544-1.816.816-3.096.816l.336-.504c1.504 0 2.608.28 3.312.84.704.56 1.056 1.368 1.056 2.424 0 1.088-.4 1.936-1.2 2.544-.784.592-2.008.888-3.672.888h-5.736zm1.656-1.344h4.008c1.072 0 1.88-.168 2.424-.504.56-.352.84-.912.84-1.68 0-.768-.248-1.328-.744-1.68-.496-.352-1.28-.528-2.352-.528h-4.176v4.392zm0-5.664h3.792c.976 0 1.72-.184 2.232-.552.528-.368.792-.904.792-1.608 0-.704-.264-1.232-.792-1.584-.512-.352-1.256-.528-2.232-.528h-3.792v4.272zM624.596 57v-2.784l-.072-.456v-4.656c0-1.072-.304-1.896-.912-2.472-.592-.576-1.48-.864-2.664-.864-.816 0-1.592.136-2.328.408-.736.272-1.36.632-1.872 1.08l-.768-1.272c.64-.544 1.408-.96 2.304-1.248a8.754 8.754 0 012.832-.456c1.632 0 2.888.408 3.768 1.224.896.8 1.344 2.024 1.344 3.672V57h-1.632zm-4.344.12c-.944 0-1.768-.152-2.472-.456-.688-.32-1.216-.752-1.584-1.296-.368-.56-.552-1.2-.552-1.92 0-.656.152-1.248.456-1.776.32-.544.832-.976 1.536-1.296.72-.336 1.68-.504 2.88-.504h4.344v1.272h-4.296c-1.216 0-2.064.216-2.544.648a2.108 2.108 0 00-.696 1.608c0 .72.28 1.296.84 1.728.56.432 1.344.648 2.352.648.96 0 1.784-.216 2.472-.648.704-.448 1.216-1.088 1.536-1.92l.384 1.176c-.32.832-.88 1.496-1.68 1.992-.784.496-1.776.744-2.976.744zm10.728 4.656c-.592 0-1.16-.096-1.704-.288a3.692 3.692 0 01-1.368-.864l.792-1.272c.32.304.664.536 1.032.696.384.176.808.264 1.272.264.56 0 1.04-.16 1.44-.48.416-.304.808-.848 1.176-1.632l.816-1.848.192-.264 5.184-11.688h1.68l-6.312 14.112c-.352.816-.744 1.464-1.176 1.944-.416.48-.872.816-1.368 1.008a4.242 4.242 0 01-1.656.312zm3.36-4.416l-5.808-12.96h1.776l5.136 11.568-1.104 1.392zm17.884-1.176V45.888h-6.072l-.144 2.808c-.032.848-.088 1.68-.168 2.496a13.311 13.311 0 01-.36 2.256c-.16.672-.392 1.224-.696 1.656-.304.416-.696.656-1.176.72l-1.704-.312c.496.016.904-.16 1.224-.528.32-.384.568-.904.744-1.56.176-.656.304-1.4.384-2.232.08-.848.144-1.712.192-2.592l.168-4.2h9.312v11.784h-1.704zm-10.848 3.864v-4.536h14.52v4.536h-1.608V57h-11.304v3.048h-1.608zM659.217 57V44.4h1.704v10.008l8.424-10.008h1.512V57h-1.704V46.968L660.753 57h-1.536zm21.707.12c-1.216 0-2.312-.272-3.288-.816a6.232 6.232 0 01-2.28-2.28c-.56-.976-.84-2.088-.84-3.336 0-1.264.28-2.376.84-3.336a6.051 6.051 0 012.28-2.256c.96-.544 2.056-.816 3.288-.816 1.248 0 2.352.272 3.312.816a5.832 5.832 0 012.28 2.256c.56.96.84 2.072.84 3.336 0 1.248-.28 2.36-.84 3.336a6 6 0 01-2.28 2.28c-.976.544-2.08.816-3.312.816zm0-1.512c.912 0 1.72-.2 2.424-.6a4.413 4.413 0 001.656-1.728c.416-.752.624-1.616.624-2.592 0-.992-.208-1.856-.624-2.592a4.246 4.246 0 00-1.656-1.704c-.704-.416-1.504-.624-2.4-.624-.896 0-1.696.208-2.4.624a4.41 4.41 0 00-1.68 1.704c-.416.736-.624 1.6-.624 2.592 0 .976.208 1.84.624 2.592a4.587 4.587 0 001.68 1.728c.704.4 1.496.6 2.376.6zm17.154 1.536h-.408c-2.496-.016-4.44-.584-5.832-1.704-1.392-1.12-2.088-2.712-2.088-4.776 0-2.032.696-3.6 2.088-4.704 1.408-1.12 3.384-1.688 5.928-1.704h.36c2.56.016 4.552.584 5.976 1.704 1.424 1.104 2.136 2.672 2.136 4.704 0 2.08-.72 3.68-2.16 4.8-1.424 1.12-3.424 1.68-6 1.68zm-.024-1.488c1.424 0 2.616-.192 3.576-.576.96-.4 1.688-.968 2.184-1.704.496-.736.744-1.64.744-2.712 0-1.04-.248-1.92-.744-2.64-.496-.736-1.224-1.296-2.184-1.68-.96-.384-2.152-.576-3.576-.576h-.264c-1.392 0-2.56.2-3.504.6-.944.384-1.656.936-2.136 1.656-.48.72-.72 1.6-.72 2.64 0 1.056.24 1.952.72 2.688.496.736 1.216 1.304 2.16 1.704.944.384 2.104.584 3.48.6h.264zm-.912 6V39.192h1.656v22.464h-1.656zm17.884-4.536c-1.216 0-2.312-.272-3.288-.816a6.232 6.232 0 01-2.28-2.28c-.56-.976-.84-2.088-.84-3.336 0-1.264.28-2.376.84-3.336a6.051 6.051 0 012.28-2.256c.96-.544 2.056-.816 3.288-.816 1.248 0 2.352.272 3.312.816a5.832 5.832 0 012.28 2.256c.56.96.84 2.072.84 3.336 0 1.248-.28 2.36-.84 3.336a6 6 0 01-2.28 2.28c-.976.544-2.08.816-3.312.816zm0-1.512c.912 0 1.72-.2 2.424-.6a4.413 4.413 0 001.656-1.728c.416-.752.624-1.616.624-2.592 0-.992-.208-1.856-.624-2.592a4.246 4.246 0 00-1.656-1.704c-.704-.416-1.504-.624-2.4-.624-.896 0-1.696.208-2.4.624a4.41 4.41 0 00-1.68 1.704c-.416.736-.624 1.6-.624 2.592 0 .976.208 1.84.624 2.592a4.587 4.587 0 001.68 1.728c.704.4 1.496.6 2.376.6zm16.578 1.512c-1.088 0-2.072-.248-2.952-.744-.88-.512-1.584-1.24-2.112-2.184-.512-.96-.768-2.128-.768-3.504s.256-2.536.768-3.48c.512-.96 1.208-1.688 2.088-2.184.88-.496 1.872-.744 2.976-.744 1.2 0 2.272.272 3.216.816a5.668 5.668 0 012.256 2.256c.544.96.816 2.072.816 3.336 0 1.28-.272 2.4-.816 3.36a5.878 5.878 0 01-2.256 2.256c-.944.544-2.016.816-3.216.816zm-6.504 4.536V44.4h1.632v3.792l-.168 2.52.24 2.544v8.4H725.1zm6.384-6.048c.896 0 1.696-.2 2.4-.6a4.587 4.587 0 001.68-1.728c.416-.752.624-1.616.624-2.592s-.208-1.832-.624-2.568a4.587 4.587 0 00-1.68-1.728c-.704-.416-1.504-.624-2.4-.624-.896 0-1.704.208-2.424.624a4.587 4.587 0 00-1.68 1.728c-.4.736-.6 1.592-.6 2.568s.2 1.84.6 2.592a4.587 4.587 0 001.68 1.728c.72.4 1.528.6 2.424.6zM741.553 57V44.4h1.728l5.712 9.672h-.72l5.808-9.672h1.584V57h-1.56V46.344l.312.144-5.424 8.976h-.768l-5.472-9.072.36-.072V57h-1.56zm26.785 0v-2.784l-.072-.456v-4.656c0-1.072-.304-1.896-.912-2.472-.592-.576-1.48-.864-2.664-.864-.816 0-1.592.136-2.328.408-.736.272-1.36.632-1.872 1.08l-.768-1.272c.64-.544 1.408-.96 2.304-1.248a8.754 8.754 0 012.832-.456c1.632 0 2.888.408 3.768 1.224.896.8 1.344 2.024 1.344 3.672V57h-1.632zm-4.344.12c-.944 0-1.768-.152-2.472-.456-.688-.32-1.216-.752-1.584-1.296-.368-.56-.552-1.2-.552-1.92 0-.656.152-1.248.456-1.776.32-.544.832-.976 1.536-1.296.72-.336 1.68-.504 2.88-.504h4.344v1.272h-4.296c-1.216 0-2.064.216-2.544.648a2.108 2.108 0 00-.696 1.608c0 .72.28 1.296.84 1.728.56.432 1.344.648 2.352.648.96 0 1.784-.216 2.472-.648.704-.448 1.216-1.088 1.536-1.92l.384 1.176c-.32.832-.88 1.496-1.68 1.992-.784.496-1.776.744-2.976.744zm12.912-.12V45.432l.432.456h-5.208V44.4h11.256v1.488h-5.208l.432-.456V57h-1.704zm13.758.12c-1.312 0-2.464-.272-3.456-.816a6.129 6.129 0 01-2.328-2.28c-.56-.976-.84-2.088-.84-3.336 0-1.248.264-2.352.792-3.312a5.98 5.98 0 012.208-2.256c.944-.56 2-.84 3.168-.84 1.184 0 2.232.272 3.144.816.928.528 1.656 1.28 2.184 2.256.528.96.792 2.072.792 3.336 0 .08-.008.168-.024.264v.264h-10.968v-1.272h10.056l-.672.504c0-.912-.2-1.72-.6-2.424a4.222 4.222 0 00-1.584-1.68c-.672-.4-1.448-.6-2.328-.6-.864 0-1.64.2-2.328.6-.688.4-1.224.96-1.608 1.68-.384.72-.576 1.544-.576 2.472v.264c0 .96.208 1.808.624 2.544a4.662 4.662 0 001.776 1.704c.768.4 1.64.6 2.616.6.768 0 1.48-.136 2.136-.408a4.443 4.443 0 001.728-1.248l.96 1.104a5.388 5.388 0 01-2.112 1.536c-.832.352-1.752.528-2.76.528zm9.556 0c-.352 0-.656-.128-.912-.384a1.318 1.318 0 01-.36-.936c0-.384.12-.696.36-.936.256-.24.56-.36.912-.36s.648.12.888.36c.256.24.384.552.384.936 0 .368-.128.68-.384.936-.24.256-.536.384-.888.384zM40.001 78.176v-1.464h9.288v1.464h-9.288zm2.113-9.12c1.2 0 2.303.216 3.312.648a7.84 7.84 0 012.64 1.776 7.981 7.981 0 011.776 2.712c.416 1.04.623 2.176.623 3.408 0 1.232-.208 2.368-.623 3.408a7.981 7.981 0 01-1.776 2.712 8.147 8.147 0 01-2.64 1.8c-1.009.416-2.113.624-3.313.624-1.28 0-2.471-.208-3.575-.624-1.104-.416-2.024-1.032-2.76-1.848l1.104-1.128c.704.72 1.488 1.24 2.352 1.56.863.304 1.8.456 2.807.456.945 0 1.817-.176 2.617-.528a6.334 6.334 0 002.111-1.464 6.679 6.679 0 001.416-2.184c.337-.848.505-1.776.505-2.784 0-1.008-.168-1.928-.505-2.76a6.62 6.62 0 00-1.416-2.208 6.334 6.334 0 00-2.111-1.464 6.423 6.423 0 00-2.617-.528c-1.008 0-1.944.16-2.807.48-.864.32-1.648.832-2.352 1.536l-1.104-1.128c.736-.816 1.656-1.432 2.76-1.848 1.104-.416 2.296-.624 3.576-.624zM56.355 86V74.432l.432.456H51.58V73.4h11.256v1.488h-5.208l.432-.456V86h-1.704zm13.542.12c-1.216 0-2.312-.272-3.288-.816a6.232 6.232 0 01-2.28-2.28c-.56-.976-.84-2.088-.84-3.336 0-1.264.28-2.376.84-3.336a6.051 6.051 0 012.28-2.256c.96-.544 2.056-.816 3.288-.816 1.248 0 2.352.272 3.312.816a5.832 5.832 0 012.28 2.256c.56.96.84 2.072.84 3.336 0 1.248-.28 2.36-.84 3.336a6 6 0 01-2.28 2.28c-.976.544-2.08.816-3.312.816zm0-1.512c.912 0 1.72-.2 2.424-.6a4.413 4.413 0 001.656-1.728c.416-.752.624-1.616.624-2.592 0-.992-.208-1.856-.624-2.592a4.246 4.246 0 00-1.656-1.704c-.704-.416-1.504-.624-2.4-.624-.896 0-1.696.208-2.4.624a4.41 4.41 0 00-1.68 1.704c-.416.736-.624 1.6-.624 2.592 0 .976.208 1.84.624 2.592a4.587 4.587 0 001.68 1.728c.704.4 1.496.6 2.376.6zM86.252 86V73.4H97.58V86h-1.704V74.432l.432.456h-8.784l.432-.456V86h-1.704zm22.676.12c-1.088 0-2.072-.248-2.952-.744-.88-.512-1.584-1.24-2.112-2.184-.512-.96-.768-2.128-.768-3.504s.256-2.536.768-3.48c.512-.96 1.208-1.688 2.088-2.184.88-.496 1.872-.744 2.976-.744 1.2 0 2.272.272 3.216.816a5.668 5.668 0 012.256 2.256c.544.96.816 2.072.816 3.336 0 1.28-.272 2.4-.816 3.36a5.878 5.878 0 01-2.256 2.256c-.944.544-2.016.816-3.216.816zm-6.504 4.536V73.4h1.632v3.792l-.168 2.52.24 2.544v8.4h-1.704zm6.384-6.048c.896 0 1.696-.2 2.4-.6a4.587 4.587 0 001.68-1.728c.416-.752.624-1.616.624-2.592s-.208-1.832-.624-2.568a4.587 4.587 0 00-1.68-1.728c-.704-.416-1.504-.624-2.4-.624-.896 0-1.704.208-2.424.624a4.587 4.587 0 00-1.68 1.728c-.4.736-.6 1.592-.6 2.568s.2 1.84.6 2.592a4.587 4.587 0 001.68 1.728c.72.4 1.528.6 2.424.6zm15.253 1.512c-1.216 0-2.312-.272-3.288-.816a6.232 6.232 0 01-2.28-2.28c-.56-.976-.84-2.088-.84-3.336 0-1.264.28-2.376.84-3.336a6.051 6.051 0 012.28-2.256c.96-.544 2.056-.816 3.288-.816 1.248 0 2.352.272 3.312.816a5.832 5.832 0 012.28 2.256c.56.96.84 2.072.84 3.336 0 1.248-.28 2.36-.84 3.336a6 6 0 01-2.28 2.28c-.976.544-2.08.816-3.312.816zm0-1.512c.912 0 1.72-.2 2.424-.6a4.413 4.413 0 001.656-1.728c.416-.752.624-1.616.624-2.592 0-.992-.208-1.856-.624-2.592a4.246 4.246 0 00-1.656-1.704c-.704-.416-1.504-.624-2.4-.624-.896 0-1.696.208-2.4.624a4.41 4.41 0 00-1.68 1.704c-.416.736-.624 1.6-.624 2.592 0 .976.208 1.84.624 2.592a4.587 4.587 0 001.68 1.728c.704.4 1.496.6 2.376.6zm17.154 1.536h-.408c-2.496-.016-4.44-.584-5.832-1.704-1.392-1.12-2.088-2.712-2.088-4.776 0-2.032.696-3.6 2.088-4.704 1.408-1.12 3.384-1.688 5.928-1.704h.36c2.56.016 4.552.584 5.976 1.704 1.424 1.104 2.136 2.672 2.136 4.704 0 2.08-.72 3.68-2.16 4.8-1.424 1.12-3.424 1.68-6 1.68zm-.024-1.488c1.424 0 2.616-.192 3.576-.576.96-.4 1.688-.968 2.184-1.704.496-.736.744-1.64.744-2.712 0-1.04-.248-1.92-.744-2.64-.496-.736-1.224-1.296-2.184-1.68-.96-.384-2.152-.576-3.576-.576h-.264c-1.392 0-2.56.2-3.504.6-.944.384-1.656.936-2.136 1.656-.48.72-.72 1.6-.72 2.64 0 1.056.24 1.952.72 2.688.496.736 1.216 1.304 2.16 1.704.944.384 2.104.584 3.48.6h.264zm-.912 6V68.192h1.656v22.464h-1.656zm18.1-4.536c-1.312 0-2.464-.272-3.456-.816a6.129 6.129 0 01-2.328-2.28c-.56-.976-.84-2.088-.84-3.336 0-1.248.264-2.352.792-3.312a5.98 5.98 0 012.208-2.256c.944-.56 2-.84 3.168-.84 1.184 0 2.232.272 3.144.816.928.528 1.656 1.28 2.184 2.256.528.96.792 2.072.792 3.336 0 .08-.008.168-.024.264v.264h-10.968v-1.272h10.056l-.672.504c0-.912-.2-1.72-.6-2.424a4.222 4.222 0 00-1.584-1.68c-.672-.4-1.448-.6-2.328-.6-.864 0-1.64.2-2.328.6-.688.4-1.224.96-1.608 1.68-.384.72-.576 1.544-.576 2.472v.264c0 .96.208 1.808.624 2.544a4.662 4.662 0 001.776 1.704c.768.4 1.64.6 2.616.6.768 0 1.48-.136 2.136-.408a4.443 4.443 0 001.728-1.248l.96 1.104a5.388 5.388 0 01-2.112 1.536c-.832.352-1.752.528-2.76.528zm14.716 0c-1.248 0-2.368-.272-3.36-.816a6.179 6.179 0 01-2.304-2.28c-.56-.976-.84-2.088-.84-3.336 0-1.264.28-2.376.84-3.336a6.002 6.002 0 012.304-2.256c.992-.544 2.112-.816 3.36-.816 1.072 0 2.04.208 2.904.624a4.706 4.706 0 012.04 1.872l-1.272.864c-.432-.64-.968-1.112-1.608-1.416a4.804 4.804 0 00-2.088-.456c-.896 0-1.704.208-2.424.624-.72.4-1.288.968-1.704 1.704-.416.736-.624 1.6-.624 2.592s.208 1.856.624 2.592a4.533 4.533 0 001.704 1.728c.72.4 1.528.6 2.424.6.752 0 1.448-.152 2.088-.456a4.058 4.058 0 001.608-1.392l1.272.864a4.905 4.905 0 01-2.04 1.872c-.864.416-1.832.624-2.904.624zm13.312 0c-1.248 0-2.368-.272-3.36-.816a6.179 6.179 0 01-2.304-2.28c-.56-.976-.84-2.088-.84-3.336 0-1.264.28-2.376.84-3.336a6.002 6.002 0 012.304-2.256c.992-.544 2.112-.816 3.36-.816 1.072 0 2.04.208 2.904.624a4.706 4.706 0 012.04 1.872l-1.272.864c-.432-.64-.968-1.112-1.608-1.416a4.804 4.804 0 00-2.088-.456c-.896 0-1.704.208-2.424.624-.72.4-1.288.968-1.704 1.704-.416.736-.624 1.6-.624 2.592s.208 1.856.624 2.592a4.533 4.533 0 001.704 1.728c.72.4 1.528.6 2.424.6.752 0 1.448-.152 2.088-.456a4.058 4.058 0 001.608-1.392l1.272.864a4.905 4.905 0 01-2.04 1.872c-.864.416-1.832.624-2.904.624zm8.244-.12V73.4h1.704v10.008l8.424-10.008h1.512V86h-1.704V75.968L196.187 86h-1.536zm21.707.12c-1.216 0-2.312-.272-3.288-.816a6.232 6.232 0 01-2.28-2.28c-.56-.976-.84-2.088-.84-3.336 0-1.264.28-2.376.84-3.336a6.051 6.051 0 012.28-2.256c.96-.544 2.056-.816 3.288-.816 1.248 0 2.352.272 3.312.816a5.832 5.832 0 012.28 2.256c.56.96.84 2.072.84 3.336 0 1.248-.28 2.36-.84 3.336a6 6 0 01-2.28 2.28c-.976.544-2.08.816-3.312.816zm0-1.512c.912 0 1.72-.2 2.424-.6a4.413 4.413 0 001.656-1.728c.416-.752.624-1.616.624-2.592 0-.992-.208-1.856-.624-2.592a4.246 4.246 0 00-1.656-1.704c-.704-.416-1.504-.624-2.4-.624-.896 0-1.696.208-2.4.624a4.41 4.41 0 00-1.68 1.704c-.416.736-.624 1.6-.624 2.592 0 .976.208 1.84.624 2.592a4.587 4.587 0 001.68 1.728c.704.4 1.496.6 2.376.6zM226.432 86V73.4h1.704v5.568h7.944V73.4h1.704V86h-1.704v-5.568h-7.944V86h-1.704zm24.019 0v-2.784l-.072-.456v-4.656c0-1.072-.304-1.896-.912-2.472-.592-.576-1.48-.864-2.664-.864-.816 0-1.592.136-2.328.408-.736.272-1.36.632-1.872 1.08l-.768-1.272c.64-.544 1.408-.96 2.304-1.248a8.754 8.754 0 012.832-.456c1.632 0 2.888.408 3.768 1.224.896.8 1.344 2.024 1.344 3.672V86h-1.632zm-4.344.12c-.944 0-1.768-.152-2.472-.456-.688-.32-1.216-.752-1.584-1.296-.368-.56-.552-1.2-.552-1.92 0-.656.152-1.248.456-1.776.32-.544.832-.976 1.536-1.296.72-.336 1.68-.504 2.88-.504h4.344v1.272h-4.296c-1.216 0-2.064.216-2.544.648a2.108 2.108 0 00-.696 1.608c0 .72.28 1.296.84 1.728.56.432 1.344.648 2.352.648.96 0 1.784-.216 2.472-.648.704-.448 1.216-1.088 1.536-1.92l.384 1.176c-.32.832-.88 1.496-1.68 1.992-.784.496-1.776.744-2.976.744zm8.208-.144l.12-1.464c.112.016.216.04.312.072.112.016.208.024.288.024.512 0 .92-.192 1.224-.576.32-.384.56-.896.72-1.536.16-.64.272-1.36.336-2.16.064-.816.12-1.632.168-2.448l.216-4.488h9.24V86h-1.704V74.384l.432.504h-6.864l.408-.528-.192 3.648a37.217 37.217 0 01-.264 3.12c-.112.992-.296 1.864-.552 2.616-.24.752-.576 1.344-1.008 1.776-.432.416-.984.624-1.656.624-.192 0-.392-.016-.6-.048-.192-.032-.4-.072-.624-.12zm22.892-8.136c1.584.016 2.784.368 3.6 1.056.832.688 1.248 1.68 1.248 2.976 0 1.344-.448 2.376-1.344 3.096-.88.72-2.16 1.072-3.84 1.056L271.783 86V73.4h1.704v4.392l3.72.048zm-.432 6.888c1.168.016 2.048-.216 2.64-.696.608-.496.912-1.216.912-2.16 0-.944-.296-1.632-.888-2.064-.592-.448-1.48-.68-2.664-.696l-3.288-.048v5.616l3.288.048zM285.307 86V73.4h1.704v5.568h7.944V73.4h1.704V86h-1.704v-5.568h-7.944V86h-1.704zm28.483 0V73.4h1.704V86h-1.704zm-6.984-8.16c1.584.016 2.792.368 3.624 1.056.832.688 1.248 1.68 1.248 2.976 0 1.344-.448 2.376-1.344 3.096-.896.72-2.176 1.072-3.84 1.056L301.502 86V73.4h1.704v4.392l3.6.048zm-.432 6.888c1.184.016 2.072-.216 2.664-.696.608-.496.912-1.216.912-2.16 0-.944-.296-1.632-.888-2.064-.592-.448-1.488-.68-2.688-.696l-3.168-.048v5.616l3.168.048zm19.372 1.392c-1.312 0-2.464-.272-3.456-.816a6.129 6.129 0 01-2.328-2.28c-.56-.976-.84-2.088-.84-3.336 0-1.248.264-2.352.792-3.312a5.98 5.98 0 012.208-2.256c.944-.56 2-.84 3.168-.84 1.184 0 2.232.272 3.144.816.928.528 1.656 1.28 2.184 2.256.528.96.792 2.072.792 3.336 0 .08-.008.168-.024.264v.264h-10.968v-1.272h10.056l-.672.504c0-.912-.2-1.72-.6-2.424a4.222 4.222 0 00-1.584-1.68c-.672-.4-1.448-.6-2.328-.6-.864 0-1.64.2-2.328.6-.688.4-1.224.96-1.608 1.68-.384.72-.576 1.544-.576 2.472v.264c0 .96.208 1.808.624 2.544a4.662 4.662 0 001.776 1.704c.768.4 1.64.6 2.616.6.768 0 1.48-.136 2.136-.408a4.443 4.443 0 001.728-1.248l.96 1.104a5.388 5.388 0 01-2.112 1.536c-.832.352-1.752.528-2.76.528zm15.717-.12V73.4h1.728l5.712 9.672h-.72l5.808-9.672h1.584V86h-1.56V75.344l.312.144-5.424 8.976h-.768l-5.472-9.072.36-.072V86h-1.56zm24.361.12c-1.312 0-2.464-.272-3.456-.816a6.129 6.129 0 01-2.328-2.28c-.56-.976-.84-2.088-.84-3.336 0-1.248.264-2.352.792-3.312a5.98 5.98 0 012.208-2.256c.944-.56 2-.84 3.168-.84 1.184 0 2.232.272 3.144.816.928.528 1.656 1.28 2.184 2.256.528.96.792 2.072.792 3.336 0 .08-.008.168-.024.264v.264h-10.968v-1.272h10.056l-.672.504c0-.912-.2-1.72-.6-2.424a4.222 4.222 0 00-1.584-1.68c-.672-.4-1.448-.6-2.328-.6-.864 0-1.64.2-2.328.6-.688.4-1.224.96-1.608 1.68-.384.72-.576 1.544-.576 2.472v.264c0 .96.208 1.808.624 2.544a4.662 4.662 0 001.776 1.704c.768.4 1.64.6 2.616.6.768 0 1.48-.136 2.136-.408a4.443 4.443 0 001.728-1.248l.96 1.104a5.388 5.388 0 01-2.112 1.536c-.832.352-1.752.528-2.76.528zm17.818-.936V74.888h-6.072l-.144 2.808c-.032.848-.088 1.68-.168 2.496a13.311 13.311 0 01-.36 2.256c-.16.672-.392 1.224-.696 1.656-.304.416-.696.656-1.176.72l-1.704-.312c.496.016.904-.16 1.224-.528.32-.384.568-.904.744-1.56.176-.656.304-1.4.384-2.232.08-.848.144-1.712.192-2.592l.168-4.2h9.312v11.784h-1.704zm-10.848 3.864v-4.536h14.52v4.536h-1.608V86h-11.304v3.048h-1.608zM390.635 86V73.4h1.704v10.008l8.424-10.008h1.512V86h-1.704V75.968L392.171 86h-1.536zm18.923 0V74.432l.432.456h-5.208V73.4h11.256v1.488h-5.208l.432-.456V86h-1.704zm16.768 0v-2.784l-.072-.456v-4.656c0-1.072-.304-1.896-.912-2.472-.592-.576-1.48-.864-2.664-.864-.816 0-1.592.136-2.328.408-.736.272-1.36.632-1.872 1.08l-.768-1.272c.64-.544 1.408-.96 2.304-1.248a8.754 8.754 0 012.832-.456c1.632 0 2.888.408 3.768 1.224.896.8 1.344 2.024 1.344 3.672V86h-1.632zm-4.344.12c-.944 0-1.768-.152-2.472-.456-.688-.32-1.216-.752-1.584-1.296-.368-.56-.552-1.2-.552-1.92 0-.656.152-1.248.456-1.776.32-.544.832-.976 1.536-1.296.72-.336 1.68-.504 2.88-.504h4.344v1.272h-4.296c-1.216 0-2.064.216-2.544.648a2.108 2.108 0 00-.696 1.608c0 .72.28 1.296.84 1.728.56.432 1.344.648 2.352.648.96 0 1.784-.216 2.472-.648.704-.448 1.216-1.088 1.536-1.92l.384 1.176c-.32.832-.88 1.496-1.68 1.992-.784.496-1.776.744-2.976.744zm10.512-.12V73.4h1.704v11.112h7.704V73.4h1.704V86h-11.112zm11.544 3.048v-3.192l.432.144h-2.568v-1.488h3.744v4.536h-1.608zM448.901 86V73.4h1.704v10.008l8.424-10.008h1.512V86h-1.704V75.968L450.437 86h-1.536zm16.523 0V73.4h1.704v10.008l8.424-10.008h1.512V86h-1.704V75.968L466.96 86h-1.536zm15.443 3.504l1.056-4.44.192 1.032c-.368 0-.68-.12-.936-.36-.24-.24-.36-.552-.36-.936s.12-.696.36-.936c.256-.24.56-.36.912-.36.368 0 .664.128.888.384.24.256.36.56.36.912a2.68 2.68 0 01-.12.816c-.048.16-.112.352-.192.576l-1.008 3.312h-1.152zM502.555 86l-5.184-6.24 1.416-.84 5.784 7.08h-2.016zm-9.24 0V73.4h1.704V86h-1.704zm1.176-5.616V78.92h4.056v1.464h-4.056zm4.44-.504l-1.584-.24 5.016-6.24h1.848l-5.28 6.48zm13.068 6.24c-1.216 0-2.312-.272-3.288-.816a6.232 6.232 0 01-2.28-2.28c-.56-.976-.84-2.088-.84-3.336 0-1.264.28-2.376.84-3.336a6.051 6.051 0 012.28-2.256c.96-.544 2.056-.816 3.288-.816 1.248 0 2.352.272 3.312.816a5.832 5.832 0 012.28 2.256c.56.96.84 2.072.84 3.336 0 1.248-.28 2.36-.84 3.336a6 6 0 01-2.28 2.28c-.976.544-2.08.816-3.312.816zm0-1.512c.912 0 1.72-.2 2.424-.6a4.413 4.413 0 001.656-1.728c.416-.752.624-1.616.624-2.592 0-.992-.208-1.856-.624-2.592a4.246 4.246 0 00-1.656-1.704c-.704-.416-1.504-.624-2.4-.624-.896 0-1.696.208-2.4.624a4.41 4.41 0 00-1.68 1.704c-.416.736-.624 1.6-.624 2.592 0 .976.208 1.84.624 2.592a4.587 4.587 0 001.68 1.728c.704.4 1.496.6 2.376.6zM524.004 86V74.432l.432.456h-5.208V73.4h11.256v1.488h-5.208l.432-.456V86h-1.704zm13.542.12c-1.216 0-2.312-.272-3.288-.816a6.232 6.232 0 01-2.28-2.28c-.56-.976-.84-2.088-.84-3.336 0-1.264.28-2.376.84-3.336a6.051 6.051 0 012.28-2.256c.96-.544 2.056-.816 3.288-.816 1.248 0 2.352.272 3.312.816a5.832 5.832 0 012.28 2.256c.56.96.84 2.072.84 3.336 0 1.248-.28 2.36-.84 3.336a6 6 0 01-2.28 2.28c-.976.544-2.08.816-3.312.816zm0-1.512c.912 0 1.72-.2 2.424-.6a4.413 4.413 0 001.656-1.728c.416-.752.624-1.616.624-2.592 0-.992-.208-1.856-.624-2.592a4.246 4.246 0 00-1.656-1.704c-.704-.416-1.504-.624-2.4-.624-.896 0-1.696.208-2.4.624a4.41 4.41 0 00-1.68 1.704c-.416.736-.624 1.6-.624 2.592 0 .976.208 1.84.624 2.592a4.587 4.587 0 001.68 1.728c.704.4 1.496.6 2.376.6zm16.577 1.512c-1.088 0-2.072-.248-2.952-.744-.88-.512-1.584-1.24-2.112-2.184-.512-.96-.768-2.128-.768-3.504s.256-2.536.768-3.48c.512-.96 1.208-1.688 2.088-2.184.88-.496 1.872-.744 2.976-.744 1.2 0 2.272.272 3.216.816a5.668 5.668 0 012.256 2.256c.544.96.816 2.072.816 3.336 0 1.28-.272 2.4-.816 3.36a5.878 5.878 0 01-2.256 2.256c-.944.544-2.016.816-3.216.816zm-6.504 4.536V73.4h1.632v3.792l-.168 2.52.24 2.544v8.4h-1.704zm6.384-6.048c.896 0 1.696-.2 2.4-.6a4.587 4.587 0 001.68-1.728c.416-.752.624-1.616.624-2.592s-.208-1.832-.624-2.568a4.587 4.587 0 00-1.68-1.728c-.704-.416-1.504-.624-2.4-.624-.896 0-1.704.208-2.424.624a4.587 4.587 0 00-1.68 1.728c-.4.736-.6 1.592-.6 2.568s.2 1.84.6 2.592a4.587 4.587 0 001.68 1.728c.72.4 1.528.6 2.424.6zM576.36 86V73.4h1.704V86h-1.704zm-6.984-8.16c1.584.016 2.792.368 3.624 1.056.832.688 1.248 1.68 1.248 2.976 0 1.344-.448 2.376-1.344 3.096-.896.72-2.176 1.072-3.84 1.056L564.072 86V73.4h1.704v4.392l3.6.048zm-.432 6.888c1.184.016 2.072-.216 2.664-.696.608-.496.912-1.216.912-2.16 0-.944-.296-1.632-.888-2.064-.592-.448-1.488-.68-2.688-.696l-3.168-.048v5.616l3.168.048zm19.372 1.392c-1.312 0-2.464-.272-3.456-.816a6.129 6.129 0 01-2.328-2.28c-.56-.976-.84-2.088-.84-3.336 0-1.248.264-2.352.792-3.312a5.98 5.98 0 012.208-2.256c.944-.56 2-.84 3.168-.84 1.184 0 2.232.272 3.144.816.928.528 1.656 1.28 2.184 2.256.528.96.792 2.072.792 3.336 0 .08-.008.168-.024.264v.264h-10.968v-1.272h10.056l-.672.504c0-.912-.2-1.72-.6-2.424a4.222 4.222 0 00-1.584-1.68c-.672-.4-1.448-.6-2.328-.6-.864 0-1.64.2-2.328.6-.688.4-1.224.96-1.608 1.68-.384.72-.576 1.544-.576 2.472v.264c0 .96.208 1.808.624 2.544a4.662 4.662 0 001.776 1.704c.768.4 1.64.6 2.616.6.768 0 1.48-.136 2.136-.408a4.443 4.443 0 001.728-1.248l.96 1.104a5.388 5.388 0 01-2.112 1.536c-.832.352-1.752.528-2.76.528zm22.221 0c-1.088 0-2.072-.248-2.952-.744-.88-.512-1.584-1.24-2.112-2.184-.512-.96-.768-2.128-.768-3.504s.256-2.536.768-3.48c.512-.96 1.208-1.688 2.088-2.184.88-.496 1.872-.744 2.976-.744 1.2 0 2.272.272 3.216.816a5.668 5.668 0 012.256 2.256c.544.96.816 2.072.816 3.336 0 1.28-.272 2.4-.816 3.36a5.878 5.878 0 01-2.256 2.256c-.944.544-2.016.816-3.216.816zm-6.504 4.536V73.4h1.632v3.792l-.168 2.52.24 2.544v8.4h-1.704zm6.384-6.048c.896 0 1.696-.2 2.4-.6a4.587 4.587 0 001.68-1.728c.416-.752.624-1.616.624-2.592s-.208-1.832-.624-2.568a4.587 4.587 0 00-1.68-1.728c-.704-.416-1.504-.624-2.4-.624-.896 0-1.704.208-2.424.624a4.587 4.587 0 00-1.68 1.728c-.4.736-.6 1.592-.6 2.568s.2 1.84.6 2.592a4.587 4.587 0 001.68 1.728c.72.4 1.528.6 2.424.6zM628.24 86v-2.784l-.072-.456v-4.656c0-1.072-.304-1.896-.912-2.472-.592-.576-1.48-.864-2.664-.864-.816 0-1.592.136-2.328.408-.736.272-1.36.632-1.872 1.08l-.768-1.272c.64-.544 1.408-.96 2.304-1.248a8.754 8.754 0 012.832-.456c1.632 0 2.888.408 3.768 1.224.896.8 1.344 2.024 1.344 3.672V86h-1.632zm-4.344.12c-.944 0-1.768-.152-2.472-.456-.688-.32-1.216-.752-1.584-1.296-.368-.56-.552-1.2-.552-1.92 0-.656.152-1.248.456-1.776.32-.544.832-.976 1.536-1.296.72-.336 1.68-.504 2.88-.504h4.344v1.272h-4.296c-1.216 0-2.064.216-2.544.648a2.108 2.108 0 00-.696 1.608c0 .72.28 1.296.84 1.728.56.432 1.344.648 2.352.648.96 0 1.784-.216 2.472-.648.704-.448 1.216-1.088 1.536-1.92l.384 1.176c-.32.832-.88 1.496-1.68 1.992-.784.496-1.776.744-2.976.744zm16.176.024c-1.024 0-1.936-.168-2.736-.504a5.228 5.228 0 01-2.016-1.536c-.56-.688-.984-1.536-1.272-2.544-.288-1.024-.432-2.208-.432-3.552 0-1.2.112-2.248.336-3.144.224-.912.536-1.696.936-2.352.4-.656.864-1.208 1.392-1.656a7.007 7.007 0 011.752-1.104 9.776 9.776 0 011.968-.648l5.664-1.32.288 1.584-5.328 1.2c-.336.08-.744.192-1.224.336-.464.144-.944.36-1.44.648-.48.288-.928.688-1.344 1.2-.416.512-.752 1.176-1.008 1.992-.24.8-.36 1.8-.36 3 0 .256.008.464.024.624.016.144.032.304.048.48.032.16.056.4.072.72l-.744-.624c.176-.976.536-1.824 1.08-2.544a5.53 5.53 0 012.04-1.704c.832-.416 1.752-.624 2.76-.624 1.168 0 2.208.256 3.12.768a5.364 5.364 0 012.136 2.088c.528.896.792 1.936.792 3.12 0 1.168-.272 2.216-.816 3.144-.528.928-1.28 1.656-2.256 2.184-.976.512-2.12.768-3.432.768zm.192-1.416c.896 0 1.688-.2 2.376-.6a4.383 4.383 0 001.608-1.68c.4-.704.6-1.496.6-2.376 0-.864-.2-1.632-.6-2.304a4.136 4.136 0 00-1.608-1.584c-.688-.4-1.488-.6-2.4-.6-.896 0-1.688.192-2.376.576a4.136 4.136 0 00-1.632 1.56c-.384.672-.576 1.448-.576 2.328 0 .88.192 1.672.576 2.376.4.704.944 1.264 1.632 1.68.704.416 1.504.624 2.4.624zm15.149 1.392c-1.216 0-2.312-.272-3.288-.816a6.232 6.232 0 01-2.28-2.28c-.56-.976-.84-2.088-.84-3.336 0-1.264.28-2.376.84-3.336a6.051 6.051 0 012.28-2.256c.96-.544 2.056-.816 3.288-.816 1.248 0 2.352.272 3.312.816a5.832 5.832 0 012.28 2.256c.56.96.84 2.072.84 3.336 0 1.248-.28 2.36-.84 3.336a6 6 0 01-2.28 2.28c-.976.544-2.08.816-3.312.816zm0-1.512c.912 0 1.72-.2 2.424-.6a4.413 4.413 0 001.656-1.728c.416-.752.624-1.616.624-2.592 0-.992-.208-1.856-.624-2.592a4.246 4.246 0 00-1.656-1.704c-.704-.416-1.504-.624-2.4-.624-.896 0-1.696.208-2.4.624a4.41 4.41 0 00-1.68 1.704c-.416.736-.624 1.6-.624 2.592 0 .976.208 1.84.624 2.592a4.587 4.587 0 001.68 1.728c.704.4 1.496.6 2.376.6zM667.418 86V74.432l.432.456h-5.208V73.4h11.256v1.488h-5.208l.432-.456V86h-1.704zm16.768 0v-2.784l-.072-.456v-4.656c0-1.072-.304-1.896-.912-2.472-.592-.576-1.48-.864-2.664-.864-.816 0-1.592.136-2.328.408-.736.272-1.36.632-1.872 1.08l-.768-1.272c.64-.544 1.408-.96 2.304-1.248a8.754 8.754 0 012.832-.456c1.632 0 2.888.408 3.768 1.224.896.8 1.344 2.024 1.344 3.672V86h-1.632zm-4.344.12c-.944 0-1.768-.152-2.472-.456-.688-.32-1.216-.752-1.584-1.296-.368-.56-.552-1.2-.552-1.92 0-.656.152-1.248.456-1.776.32-.544.832-.976 1.536-1.296.72-.336 1.68-.504 2.879-.504h4.345v1.272h-4.296c-1.216 0-2.064.216-2.544.648a2.108 2.108 0 00-.696 1.608c0 .72.28 1.296.84 1.728.56.432 1.344.648 2.351.648.961 0 1.785-.216 2.473-.648.704-.448 1.216-1.088 1.536-1.92l.384 1.176c-.32.832-.88 1.496-1.68 1.992-.784.496-1.776.744-2.976.744zm10.512-.12V73.4h1.704v5.424h3.84v1.56h-3.84V86h-1.704zm10.848.12c-1.2 0-2.28-.272-3.24-.816a6.105 6.105 0 01-2.232-2.28c-.544-.976-.816-2.088-.816-3.336 0-1.264.272-2.376.816-3.336a5.927 5.927 0 012.232-2.256c.96-.544 2.04-.816 3.24-.816 1.2 0 2.272.272 3.216.816a5.927 5.927 0 012.232 2.256c.544.96.816 2.072.816 3.336 0 1.248-.272 2.36-.816 3.336a6.105 6.105 0 01-2.232 2.28c-.944.544-2.016.816-3.216.816zm0-1.488c.88 0 1.664-.208 2.352-.624a4.469 4.469 0 001.632-1.728c.4-.752.6-1.616.6-2.592 0-.992-.2-1.856-.6-2.592a4.295 4.295 0 00-1.632-1.704c-.688-.416-1.472-.624-2.352-.624-.864 0-1.648.208-2.352.624-.688.4-1.232.968-1.632 1.704-.4.736-.6 1.6-.6 2.592 0 .976.2 1.84.6 2.592.4.736.944 1.312 1.632 1.728a4.536 4.536 0 002.352.624zM713.051 86V74.432l.432.456h-5.208V73.4h11.256v1.488h-5.208l.432-.456V86h-1.704zm20.505.12c-1.248 0-2.368-.272-3.36-.816a6.179 6.179 0 01-2.304-2.28c-.56-.976-.84-2.088-.84-3.336 0-1.264.28-2.376.84-3.336a6.002 6.002 0 012.304-2.256c.992-.544 2.112-.816 3.36-.816 1.072 0 2.04.208 2.904.624a4.706 4.706 0 012.04 1.872l-1.272.864c-.432-.64-.968-1.112-1.608-1.416a4.804 4.804 0 00-2.088-.456c-.896 0-1.704.208-2.424.624-.72.4-1.288.968-1.704 1.704-.416.736-.624 1.6-.624 2.592s.208 1.856.624 2.592a4.533 4.533 0 001.704 1.728c.72.4 1.528.6 2.424.6.752 0 1.448-.152 2.088-.456a4.058 4.058 0 001.608-1.392l1.272.864a4.905 4.905 0 01-2.04 1.872c-.864.416-1.832.624-2.904.624zM748.08 86V73.4h8.928v1.488h-7.656l.432-.432V86h-1.704zm8.313-.024l.12-1.464c.112.016.216.04.312.072.112.016.208.024.288.024.512 0 .92-.192 1.224-.576.32-.384.56-.896.72-1.536.16-.64.272-1.36.336-2.16.064-.816.12-1.632.168-2.448l.216-4.488h9.24V86h-1.704V74.384l.432.504h-6.864l.408-.528-.192 3.648a37.217 37.217 0 01-.264 3.12c-.112.992-.296 1.864-.552 2.616-.24.752-.576 1.344-1.008 1.776-.432.416-.984.624-1.656.624-.192 0-.392-.016-.6-.048-.192-.032-.4-.072-.624-.12zm17.685 4.8c-.592 0-1.16-.096-1.704-.288a3.696 3.696 0 01-1.369-.864l.793-1.272c.32.304.664.536 1.032.696.384.176.808.264 1.272.264.56 0 1.04-.16 1.44-.48.416-.304.808-.848 1.176-1.632l.816-1.848.192-.264L782.91 73.4h1.68l-6.312 14.112c-.352.816-.744 1.464-1.176 1.944-.416.48-.872.816-1.368 1.008a4.242 4.242 0 01-1.656.312zm3.36-4.416L771.63 73.4h1.776l5.136 11.568-1.104 1.392zm15.283-.216c-1.024 0-1.936-.168-2.736-.504a5.228 5.228 0 01-2.016-1.536c-.56-.688-.984-1.536-1.272-2.544-.288-1.024-.432-2.208-.432-3.552 0-1.2.112-2.248.336-3.144.224-.912.536-1.696.936-2.352.4-.656.864-1.208 1.392-1.656a7.007 7.007 0 011.752-1.104 9.776 9.776 0 011.968-.648l5.664-1.32.288 1.584-5.328 1.2c-.336.08-.744.192-1.224.336-.464.144-.944.36-1.44.648-.48.288-.928.688-1.344 1.2-.416.512-.752 1.176-1.008 1.992-.24.8-.36 1.8-.36 3 0 .256.008.464.024.624.016.144.032.304.048.48.032.16.056.4.072.72l-.744-.624c.176-.976.536-1.824 1.08-2.544a5.53 5.53 0 012.04-1.704c.832-.416 1.752-.624 2.76-.624 1.168 0 2.208.256 3.12.768a5.364 5.364 0 012.136 2.088c.528.896.792 1.936.792 3.12 0 1.168-.272 2.216-.816 3.144-.528.928-1.28 1.656-2.256 2.184-.976.512-2.12.768-3.432.768zm.192-1.416c.896 0 1.688-.2 2.376-.6a4.383 4.383 0 001.608-1.68c.4-.704.6-1.496.6-2.376 0-.864-.2-1.632-.6-2.304a4.136 4.136 0 00-1.608-1.584c-.688-.4-1.488-.6-2.4-.6-.896 0-1.688.192-2.376.576a4.136 4.136 0 00-1.632 1.56c-.384.672-.576 1.448-.576 2.328 0 .88.192 1.672.576 2.376.4.704.944 1.264 1.632 1.68.704.416 1.504.624 2.4.624zm15.148 1.392c-1.216 0-2.312-.272-3.288-.816a6.232 6.232 0 01-2.28-2.28c-.56-.976-.84-2.088-.84-3.336 0-1.264.28-2.376.84-3.336a6.051 6.051 0 012.28-2.256c.96-.544 2.056-.816 3.288-.816 1.248 0 2.352.272 3.312.816a5.832 5.832 0 012.28 2.256c.56.96.84 2.072.84 3.336 0 1.248-.28 2.36-.84 3.336a6 6 0 01-2.28 2.28c-.976.544-2.08.816-3.312.816zm0-1.512c.912 0 1.72-.2 2.424-.6a4.413 4.413 0 001.656-1.728c.416-.752.624-1.616.624-2.592 0-.992-.208-1.856-.624-2.592a4.246 4.246 0 00-1.656-1.704c-.704-.416-1.504-.624-2.4-.624-.896 0-1.696.208-2.4.624a4.41 4.41 0 00-1.68 1.704c-.416.736-.624 1.6-.624 2.592 0 .976.208 1.84.624 2.592a4.587 4.587 0 001.68 1.728c.704.4 1.496.6 2.376.6zM827.375 86l-5.184-6.24 1.416-.84 5.784 7.08h-2.016zm-9.24 0V73.4h1.704V86h-1.704zm1.176-5.616V78.92h4.056v1.464h-4.056zm4.44-.504l-1.584-.24 5.016-6.24h1.848l-5.28 6.48zM832.08 86V73.4h1.704v10.008l8.424-10.008h1.512V86h-1.704V75.968L833.616 86h-1.536zm16.524 0V73.4h1.728l5.712 9.672h-.72l5.808-9.672h1.584V86h-1.56V75.344l.312.144-5.424 8.976h-.768l-5.472-9.072.36-.072V86h-1.56zm18.961 0V73.4h1.704v10.008l8.424-10.008h1.512V86h-1.704V75.968L869.101 86h-1.536zm28.084.12c-1.248 0-2.368-.272-3.36-.816a6.179 6.179 0 01-2.304-2.28c-.56-.976-.84-2.088-.84-3.336 0-1.264.28-2.376.84-3.336a6.002 6.002 0 012.304-2.256c.992-.544 2.112-.816 3.36-.816 1.072 0 2.04.208 2.904.624a4.706 4.706 0 012.04 1.872l-1.272.864c-.432-.64-.968-1.112-1.608-1.416a4.804 4.804 0 00-2.088-.456c-.896 0-1.704.208-2.424.624-.72.4-1.288.968-1.704 1.704-.416.736-.624 1.6-.624 2.592s.208 1.856.624 2.592a4.533 4.533 0 001.704 1.728c.72.4 1.528.6 2.424.6.752 0 1.448-.152 2.088-.456a4.058 4.058 0 001.608-1.392l1.272.864a4.905 4.905 0 01-2.04 1.872c-.864.416-1.832.624-2.904.624zm5.518-.144l.12-1.464c.112.016.216.04.312.072.112.016.208.024.288.024.512 0 .92-.192 1.224-.576.32-.384.56-.896.72-1.536.16-.64.272-1.36.336-2.16.064-.816.12-1.632.168-2.448l.216-4.488h9.24V86h-1.704V74.384l.432.504h-6.864l.408-.528-.192 3.648a37.217 37.217 0 01-.264 3.12c-.112.992-.296 1.864-.552 2.616-.24.752-.576 1.344-1.008 1.776-.432.416-.984.624-1.656.624-.192 0-.392-.016-.6-.048-.192-.032-.4-.072-.624-.12zm22.652.144c-1.216 0-2.312-.272-3.288-.816a6.232 6.232 0 01-2.28-2.28c-.56-.976-.84-2.088-.84-3.336 0-1.264.28-2.376.84-3.336a6.051 6.051 0 012.28-2.256c.96-.544 2.056-.816 3.288-.816 1.248 0 2.352.272 3.312.816a5.832 5.832 0 012.28 2.256c.56.96.84 2.072.84 3.336 0 1.248-.28 2.36-.84 3.336a6 6 0 01-2.28 2.28c-.976.544-2.08.816-3.312.816zm0-1.512c.912 0 1.72-.2 2.424-.6a4.413 4.413 0 001.656-1.728c.416-.752.624-1.616.624-2.592 0-.992-.208-1.856-.624-2.592a4.246 4.246 0 00-1.656-1.704c-.704-.416-1.504-.624-2.4-.624-.896 0-1.696.208-2.4.624a4.41 4.41 0 00-1.68 1.704c-.416.736-.624 1.6-.624 2.592 0 .976.208 1.84.624 2.592a4.587 4.587 0 001.68 1.728c.704.4 1.496.6 2.376.6zM941.583 86v-4.536l.312.36h-4.272c-1.616 0-2.88-.352-3.792-1.056-.912-.704-1.368-1.728-1.368-3.072 0-1.44.488-2.512 1.464-3.216.976-.72 2.28-1.08 3.912-1.08h5.304V86h-1.56zm-9.216 0l3.456-4.848h1.776L934.215 86h-1.848zm9.216-5.04v-6.576l.312.504h-4.008c-1.168 0-2.08.224-2.736.672-.64.448-.96 1.176-.96 2.184 0 1.872 1.192 2.808 3.576 2.808h4.128l-.312.408zm6.419 5.04V73.4h1.728l5.712 9.672h-.72l5.808-9.672h1.584V86h-1.56V75.344l.312.144-5.424 8.976h-.768l-5.472-9.072.36-.072V86h-1.56zm18.961 0V73.4h1.704v10.008l8.424-10.008h1.512V86h-1.704V75.968L968.499 86h-1.536zm-730.266 29v-12.6h11.328V115h-1.704v-11.568l.432.456h-8.784l.432-.456V115h-1.704zm21.356.12c-1.216 0-2.312-.272-3.288-.816a6.232 6.232 0 01-2.28-2.28c-.56-.976-.84-2.088-.84-3.336 0-1.264.28-2.376.84-3.336a6.051 6.051 0 012.28-2.256c.96-.544 2.056-.816 3.288-.816 1.248 0 2.352.272 3.312.816a5.832 5.832 0 012.28 2.256c.56.96.84 2.072.84 3.336 0 1.248-.28 2.36-.84 3.336a6 6 0 01-2.28 2.28c-.976.544-2.08.816-3.312.816zm0-1.512c.912 0 1.72-.2 2.424-.6a4.413 4.413 0 001.656-1.728c.416-.752.624-1.616.624-2.592 0-.992-.208-1.856-.624-2.592a4.246 4.246 0 00-1.656-1.704c-.704-.416-1.504-.624-2.4-.624-.896 0-1.696.208-2.4.624a4.41 4.41 0 00-1.68 1.704c-.416.736-.624 1.6-.624 2.592 0 .976.208 1.84.624 2.592a4.587 4.587 0 001.68 1.728c.704.4 1.496.6 2.376.6zm18.644.576v-10.296h-6.072l-.144 2.808c-.032.848-.088 1.68-.168 2.496a13.311 13.311 0 01-.36 2.256c-.16.672-.392 1.224-.696 1.656-.304.416-.696.656-1.176.72l-1.704-.312c.496.016.904-.16 1.224-.528.32-.384.568-.904.744-1.56.176-.656.304-1.4.384-2.232.08-.848.144-1.712.192-2.592l.168-4.2h9.312v11.784h-1.704zm-10.848 3.864v-4.536h14.52v4.536h-1.608V115h-11.304v3.048h-1.608zm23.121-2.928c-1.248 0-2.368-.272-3.36-.816a6.179 6.179 0 01-2.304-2.28c-.56-.976-.84-2.088-.84-3.336 0-1.264.28-2.376.84-3.336a6.002 6.002 0 012.304-2.256c.992-.544 2.112-.816 3.36-.816 1.072 0 2.04.208 2.904.624a4.706 4.706 0 012.04 1.872l-1.272.864c-.432-.64-.968-1.112-1.608-1.416a4.804 4.804 0 00-2.088-.456c-.896 0-1.704.208-2.424.624-.72.4-1.288.968-1.704 1.704-.416.736-.624 1.6-.624 2.592s.208 1.856.624 2.592a4.533 4.533 0 001.704 1.728c.72.4 1.528.6 2.424.6.752 0 1.448-.152 2.088-.456a4.058 4.058 0 001.608-1.392l1.272.864a4.905 4.905 0 01-2.04 1.872c-.864.416-1.832.624-2.904.624zm13.216 0c-1.216 0-2.312-.272-3.288-.816a6.232 6.232 0 01-2.28-2.28c-.56-.976-.84-2.088-.84-3.336 0-1.264.28-2.376.84-3.336a6.051 6.051 0 012.28-2.256c.96-.544 2.056-.816 3.288-.816 1.248 0 2.352.272 3.312.816a5.832 5.832 0 012.28 2.256c.56.96.84 2.072.84 3.336 0 1.248-.28 2.36-.84 3.336a6 6 0 01-2.28 2.28c-.976.544-2.08.816-3.312.816zm0-1.512c.912 0 1.72-.2 2.424-.6a4.413 4.413 0 001.656-1.728c.416-.752.624-1.616.624-2.592 0-.992-.208-1.856-.624-2.592a4.246 4.246 0 00-1.656-1.704c-.704-.416-1.504-.624-2.4-.624-.896 0-1.696.208-2.4.624a4.41 4.41 0 00-1.68 1.704c-.416.736-.624 1.6-.624 2.592 0 .976.208 1.84.624 2.592a4.587 4.587 0 001.68 1.728c.704.4 1.496.6 2.376.6zm13.364 1.536a9.827 9.827 0 01-2.712-.384 7.032 7.032 0 01-2.376-1.176l.552-1.272a6.838 6.838 0 002.112 1.032c.8.224 1.592.336 2.376.336.784-.016 1.464-.128 2.04-.336.576-.208 1.024-.496 1.344-.864.32-.368.48-.784.48-1.248 0-.672-.304-1.192-.912-1.56-.608-.384-1.44-.576-2.496-.576h-2.16v-1.248h2.04c.624 0 1.176-.08 1.656-.24.48-.16.848-.392 1.104-.696.272-.304.408-.664.408-1.08 0-.448-.16-.832-.48-1.152-.304-.32-.728-.56-1.272-.72-.544-.16-1.16-.24-1.848-.24a8.534 8.534 0 00-1.944.288 8.87 8.87 0 00-1.992.744l-.48-1.32a10.675 10.675 0 012.184-.864 8.086 8.086 0 012.208-.312c1.008-.032 1.912.088 2.712.36.816.272 1.464.664 1.944 1.176.48.496.72 1.096.72 1.8 0 .624-.192 1.168-.576 1.632-.384.464-.896.824-1.536 1.08-.64.256-1.368.384-2.184.384l.072-.456c1.44 0 2.56.28 3.36.84.816.56 1.224 1.32 1.224 2.28 0 .752-.248 1.416-.744 1.992-.496.56-1.168 1-2.016 1.32-.832.32-1.768.48-2.808.48zm9.437-.144v-12.6h1.704v5.568h7.944V102.4h1.704V115h-1.704v-5.568h-7.944V115h-1.704zm24.019 0v-2.784l-.072-.456v-4.656c0-1.072-.304-1.896-.912-2.472-.592-.576-1.48-.864-2.664-.864-.816 0-1.592.136-2.328.408-.736.272-1.36.632-1.872 1.08l-.768-1.272c.64-.544 1.408-.96 2.304-1.248a8.754 8.754 0 012.832-.456c1.632 0 2.888.408 3.768 1.224.896.8 1.344 2.024 1.344 3.672V115h-1.632zm-4.344.12c-.944 0-1.768-.152-2.472-.456-.688-.32-1.216-.752-1.584-1.296-.368-.56-.552-1.2-.552-1.92 0-.656.152-1.248.456-1.776.32-.544.832-.976 1.536-1.296.72-.336 1.68-.504 2.88-.504h4.344v1.272h-4.296c-1.216 0-2.064.216-2.544.648a2.108 2.108 0 00-.696 1.608c0 .72.28 1.296.84 1.728.56.432 1.344.648 2.352.648.96 0 1.784-.216 2.472-.648.704-.448 1.216-1.088 1.536-1.92l.384 1.176c-.32.832-.88 1.496-1.68 1.992-.784.496-1.776.744-2.976.744zm10.512-.12v-12.6h1.704v5.568h7.944V102.4h1.704V115h-1.704v-5.568h-7.944V115h-1.704zm16.195 0v-12.6h1.704v10.008l8.424-10.008h1.512V115h-1.704v-10.032l-8.4 10.032h-1.536zm24.66 0v-4.536l.312.36h-4.272c-1.616 0-2.88-.352-3.792-1.056-.912-.704-1.368-1.728-1.368-3.072 0-1.44.488-2.512 1.464-3.216.976-.72 2.28-1.08 3.912-1.08h5.304V115h-1.56zm-9.216 0l3.456-4.848h1.776L388.661 115h-1.848zm9.216-5.04v-6.576l.312.504h-4.008c-1.168 0-2.08.224-2.736.672-.64.448-.96 1.176-.96 2.184 0 1.872 1.192 2.808 3.576 2.808h4.128l-.312.408zm12.7 5.04v-12.6h1.704v10.008l8.424-10.008h1.512V115h-1.704v-10.032l-8.4 10.032h-1.536zm22.804 0v-12.6h1.704v10.008l8.424-10.008h1.512V115h-1.704v-10.032l-8.4 10.032h-1.536zm16.524 0v-12.6h1.728l5.712 9.672h-.72l5.808-9.672h1.584V115h-1.56v-10.656l.312.144-5.424 8.976h-.768l-5.472-9.072.36-.072V115h-1.56zm24.361.12c-1.312 0-2.464-.272-3.456-.816a6.129 6.129 0 01-2.328-2.28c-.56-.976-.84-2.088-.84-3.336 0-1.248.264-2.352.792-3.312a5.98 5.98 0 012.208-2.256c.944-.56 2-.84 3.168-.84 1.184 0 2.232.272 3.144.816.928.528 1.656 1.28 2.184 2.256.528.96.792 2.072.792 3.336 0 .08-.008.168-.024.264v.264H467.09v-1.272h10.056l-.672.504c0-.912-.2-1.72-.6-2.424a4.222 4.222 0 00-1.584-1.68c-.672-.4-1.448-.6-2.328-.6-.864 0-1.64.2-2.328.6-.688.4-1.224.96-1.608 1.68-.384.72-.576 1.544-.576 2.472v.264c0 .96.208 1.808.624 2.544a4.662 4.662 0 001.776 1.704c.768.4 1.64.6 2.616.6.768 0 1.48-.136 2.136-.408a4.443 4.443 0 001.728-1.248l.96 1.104a5.388 5.388 0 01-2.112 1.536c-.832.352-1.752.528-2.76.528zm9.436-.12v-12.6h1.704v5.424h3.84v1.56h-3.84V115h-1.704zm10.848.12c-1.2 0-2.28-.272-3.24-.816a6.105 6.105 0 01-2.232-2.28c-.544-.976-.816-2.088-.816-3.336 0-1.264.272-2.376.816-3.336a5.927 5.927 0 012.232-2.256c.96-.544 2.04-.816 3.24-.816 1.2 0 2.272.272 3.216.816a5.927 5.927 0 012.232 2.256c.544.96.816 2.072.816 3.336 0 1.248-.272 2.36-.816 3.336a6.105 6.105 0 01-2.232 2.28c-.944.544-2.016.816-3.216.816zm0-1.488c.88 0 1.664-.208 2.352-.624a4.469 4.469 0 001.632-1.728c.4-.752.6-1.616.6-2.592 0-.992-.2-1.856-.6-2.592a4.295 4.295 0 00-1.632-1.704c-.688-.416-1.472-.624-2.352-.624-.864 0-1.648.208-2.352.624-.688.4-1.232.968-1.632 1.704-.4.736-.6 1.6-.6 2.592 0 .976.2 1.84.6 2.592.4.736.944 1.312 1.632 1.728a4.536 4.536 0 002.352.624zM504.551 115v-11.568l.432.456h-5.208V102.4h11.256v1.488h-5.208l.432-.456V115h-1.704zm15.225 0v-12.6h1.704v10.008l8.424-10.008h1.512V115h-1.704v-10.032l-8.4 10.032h-1.536zm21.803.12c-1.248 0-2.368-.272-3.36-.816a6.179 6.179 0 01-2.304-2.28c-.56-.976-.84-2.088-.84-3.336 0-1.264.28-2.376.84-3.336a6.002 6.002 0 012.304-2.256c.992-.544 2.112-.816 3.36-.816 1.072 0 2.04.208 2.904.624a4.706 4.706 0 012.04 1.872l-1.272.864c-.432-.64-.968-1.112-1.608-1.416a4.804 4.804 0 00-2.088-.456c-.896 0-1.704.208-2.424.624-.72.4-1.288.968-1.704 1.704-.416.736-.624 1.6-.624 2.592s.208 1.856.624 2.592a4.533 4.533 0 001.704 1.728c.72.4 1.528.6 2.424.6.752 0 1.448-.152 2.088-.456a4.058 4.058 0 001.608-1.392l1.272.864a4.905 4.905 0 01-2.04 1.872c-.864.416-1.832.624-2.904.624zm8.243-.12v-12.6h1.704v11.112h7.704V102.4h1.704V115h-11.112zm11.544 3.048v-3.192l.432.144h-2.568v-1.488h3.744v4.536h-1.608zm10.263-2.928c-1.312 0-2.464-.272-3.456-.816a6.129 6.129 0 01-2.328-2.28c-.56-.976-.84-2.088-.84-3.336 0-1.248.264-2.352.792-3.312a5.98 5.98 0 012.208-2.256c.944-.56 2-.84 3.168-.84 1.184 0 2.232.272 3.144.816.928.528 1.656 1.28 2.184 2.256.528.96.792 2.072.792 3.336 0 .08-.008.168-.024.264v.264h-10.968v-1.272h10.056l-.672.504c0-.912-.2-1.72-.6-2.424a4.222 4.222 0 00-1.584-1.68c-.672-.4-1.448-.6-2.328-.6-.864 0-1.64.2-2.328.6-.688.4-1.224.96-1.608 1.68-.384.72-.576 1.544-.576 2.472v.264c0 .96.208 1.808.624 2.544a4.662 4.662 0 001.776 1.704c.768.4 1.64.6 2.616.6.768 0 1.48-.136 2.136-.408a4.443 4.443 0 001.728-1.248l.96 1.104a5.388 5.388 0 01-2.112 1.536c-.832.352-1.752.528-2.76.528zm6.874-.144l.12-1.464c.112.016.216.04.312.072.112.016.208.024.288.024.512 0 .92-.192 1.224-.576.32-.384.56-.896.72-1.536.16-.64.272-1.36.336-2.16.064-.816.12-1.632.168-2.448l.216-4.488h9.24V115h-1.704v-11.616l.432.504h-6.864l.408-.528-.192 3.648a37.217 37.217 0 01-.264 3.12c-.112.992-.296 1.864-.552 2.616-.24.752-.576 1.344-1.008 1.776-.432.416-.984.624-1.656.624-.192 0-.392-.016-.6-.048-.192-.032-.4-.072-.624-.12zm25.604.024v-4.536l.312.36h-4.272c-1.616 0-2.88-.352-3.792-1.056-.912-.704-1.368-1.728-1.368-3.072 0-1.44.488-2.512 1.464-3.216.976-.72 2.28-1.08 3.912-1.08h5.304V115h-1.56zm-9.216 0l3.456-4.848h1.776L596.739 115h-1.848zm9.216-5.04v-6.576l.312.504h-4.008c-1.168 0-2.08.224-2.736.672-.64.448-.96 1.176-.96 2.184 0 1.872 1.192 2.808 3.576 2.808h4.128l-.312.408zm6.419 5.04v-12.6h1.704v5.424h3.84v1.56h-3.84V115h-1.704zm10.848.12c-1.2 0-2.28-.272-3.24-.816a6.105 6.105 0 01-2.232-2.28c-.544-.976-.816-2.088-.816-3.336 0-1.264.272-2.376.816-3.336a5.927 5.927 0 012.232-2.256c.96-.544 2.04-.816 3.24-.816 1.2 0 2.272.272 3.216.816a5.927 5.927 0 012.232 2.256c.544.96.816 2.072.816 3.336 0 1.248-.272 2.36-.816 3.336a6.105 6.105 0 01-2.232 2.28c-.944.544-2.016.816-3.216.816zm0-1.488c.88 0 1.664-.208 2.352-.624a4.469 4.469 0 001.632-1.728c.4-.752.6-1.616.6-2.592 0-.992-.2-1.856-.6-2.592a4.295 4.295 0 00-1.632-1.704c-.688-.416-1.472-.624-2.352-.624-.864 0-1.648.208-2.352.624-.688.4-1.232.968-1.632 1.704-.4.736-.6 1.6-.6 2.592 0 .976.2 1.84.6 2.592.4.736.944 1.312 1.632 1.728a4.536 4.536 0 002.352.624zm18.197-.12l-.384.456V102.4h1.704v11.568l-.456-.456h7.032l-.456.456V102.4h1.704V115h-17.424v-12.6h1.704v11.568l-.432-.456h7.008zm9.48 4.248v-3.216l.432.456h-2.568v-1.488h3.744v4.248h-1.608zm4.506-2.76v-12.6h1.704v10.008l8.424-10.008h1.512V115h-1.704v-10.032l-8.4 10.032h-1.536zm16.523 0v-12.6h1.704v10.008l8.424-10.008h1.512V115h-1.704v-10.032l-8.4 10.032h-1.536zm5.712-14.424c-1.056 0-1.912-.264-2.568-.792-.64-.544-.976-1.32-1.008-2.328h1.224c.016.64.24 1.144.672 1.512.432.368.992.552 1.68.552s1.248-.184 1.68-.552c.448-.368.68-.872.696-1.512h1.224c-.016 1.008-.352 1.784-1.008 2.328-.656.528-1.52.792-2.592.792zm18.845 8.664v-1.296h7.32v1.296h-7.32zm1.68-6.96c1.28 0 2.424.28 3.432.84a6.032 6.032 0 012.376 2.28c.592.96.888 2.056.888 3.288 0 1.232-.296 2.336-.888 3.312a6.204 6.204 0 01-2.376 2.304c-1.008.56-2.152.84-3.432.84-1.04 0-2.008-.16-2.904-.48-.88-.336-1.624-.816-2.232-1.44l1.008-1.008c.544.512 1.16.896 1.848 1.152.688.24 1.424.36 2.208.36.992 0 1.872-.216 2.64-.648a4.99 4.99 0 001.848-1.8c.448-.768.672-1.632.672-2.592 0-.96-.224-1.816-.672-2.568a4.758 4.758 0 00-1.848-1.8c-.768-.432-1.648-.648-2.64-.648a6.28 6.28 0 00-2.208.384 5.144 5.144 0 00-1.848 1.128l-1.008-.984a5.725 5.725 0 012.232-1.44 8.573 8.573 0 012.904-.48zm17.359 12.864h-.408c-2.496-.016-4.44-.584-5.832-1.704-1.392-1.12-2.088-2.712-2.088-4.776 0-2.032.696-3.6 2.088-4.704 1.408-1.12 3.384-1.688 5.928-1.704h.36c2.56.016 4.552.584 5.976 1.704 1.424 1.104 2.136 2.672 2.136 4.704 0 2.08-.72 3.68-2.16 4.8-1.424 1.12-3.424 1.68-6 1.68zm-.024-1.488c1.424 0 2.616-.192 3.576-.576.96-.4 1.688-.968 2.184-1.704.496-.736.744-1.64.744-2.712 0-1.04-.248-1.92-.744-2.64-.496-.736-1.224-1.296-2.184-1.68-.96-.384-2.152-.576-3.576-.576h-.264c-1.392 0-2.56.2-3.504.6-.944.384-1.656.936-2.136 1.656-.48.72-.72 1.6-.72 2.64 0 1.056.24 1.952.72 2.688.496.736 1.216 1.304 2.16 1.704.944.384 2.104.584 3.48.6h.264zm-.912 6V97.192h1.656v22.464h-1.656zm19.78-4.512h-.408c-2.496-.016-4.44-.584-5.832-1.704-1.392-1.12-2.088-2.712-2.088-4.776 0-2.032.696-3.6 2.088-4.704 1.408-1.12 3.384-1.688 5.928-1.704h.36c2.56.016 4.552.584 5.976 1.704 1.424 1.104 2.136 2.672 2.136 4.704 0 2.08-.72 3.68-2.16 4.8-1.424 1.12-3.424 1.68-6 1.68zm-.024-1.488c1.424 0 2.616-.192 3.576-.576.96-.4 1.688-.968 2.184-1.704.496-.736.744-1.64.744-2.712 0-1.04-.248-1.92-.744-2.64-.496-.736-1.224-1.296-2.184-1.68-.96-.384-2.152-.576-3.576-.576h-.264c-1.392 0-2.56.2-3.504.6-.944.384-1.656.936-2.136 1.656-.48.72-.72 1.6-.72 2.64 0 1.056.24 1.952.72 2.688.496.736 1.216 1.304 2.16 1.704.944.384 2.104.584 3.48.6h.264zm-.912 6V97.192h1.656v22.464h-1.656zm18.099-4.536c-1.312 0-2.464-.272-3.456-.816a6.129 6.129 0 01-2.328-2.28c-.56-.976-.84-2.088-.84-3.336 0-1.248.264-2.352.792-3.312a5.98 5.98 0 012.208-2.256c.944-.56 2-.84 3.168-.84 1.184 0 2.232.272 3.144.816.928.528 1.656 1.28 2.184 2.256.528.96.792 2.072.792 3.336 0 .08-.008.168-.024.264v.264h-10.968v-1.272h10.056l-.672.504c0-.912-.2-1.72-.6-2.424a4.222 4.222 0 00-1.584-1.68c-.672-.4-1.448-.6-2.328-.6-.864 0-1.64.2-2.328.6-.688.4-1.224.96-1.608 1.68-.384.72-.576 1.544-.576 2.472v.264c0 .96.208 1.808.624 2.544a4.662 4.662 0 001.776 1.704c.768.4 1.64.6 2.616.6.768 0 1.48-.136 2.136-.408a4.443 4.443 0 001.728-1.248l.96 1.104a5.388 5.388 0 01-2.112 1.536c-.832.352-1.752.528-2.76.528zm18.676-.12l-5.184-6.24 1.416-.84 5.784 7.08h-2.016zm-9.24 0v-12.6h1.704V115h-1.704zm1.176-5.616v-1.464h4.056v1.464h-4.056zm4.44-.504l-1.584-.24 5.016-6.24h1.848l-5.28 6.48zm10.472 6.12v-11.568l.432.456h-5.208V102.4h11.256v1.488h-5.208l.432-.456V115h-1.704z" fill="#3A4143"/><mask id="mask0_2020_3" style="mask-type:luminance" maskUnits="userSpaceOnUse" x="88" y="0" width="40" height="38"><path d="M128 0H88v37.891h40V0z" fill="#fff"/></mask><g mask="url(#mask0_2020_3)"><path d="M108.49 10.137c.031.265.072.527.127.787a8.67 8.67 0 00.461 1.532 9.554 9.554 0 001.182 2.106 9.565 9.565 0 001.084 1.217c.196.189.403.369.62.538a9.757 9.757 0 002.116 1.295 10.045 10.045 0 002.389.751c.277.052.554.09.831.12 2.704.281 6.195.461 10.701.461-4.506 0-7.997.18-10.701.462a10.48 10.48 0 00-2.448.557 10.3 10.3 0 00-2.223 1.12 10.331 10.331 0 00-1.285 1.026 8.634 8.634 0 00-.568.587 9.018 9.018 0 00-1.367 2.005 9.96 9.96 0 00-.331.732 8.68 8.68 0 00-.461 1.532 8.934 8.934 0 00-.127.786c-.297 2.562-.488 5.87-.488 10.137 0-4.268-.19-7.575-.487-10.137a8.616 8.616 0 00-.127-.786 8.68 8.68 0 00-.461-1.532 9.554 9.554 0 00-1.182-2.105 9.54 9.54 0 00-1.084-1.219 8.57 8.57 0 00-.62-.538 9.502 9.502 0 00-1.372-.92 10.3 10.3 0 00-3.134-1.125 10.7 10.7 0 00-.83-.12c-2.704-.281-6.195-.462-10.701-.462 4.506 0 7.997-.18 10.701-.461a10.426 10.426 0 003.964-1.245 9.5 9.5 0 001.372-.92c.214-.173.421-.353.62-.539.199-.188.389-.382.568-.587a9.133 9.133 0 00.972-1.3 9.554 9.554 0 00.726-1.436c.101-.249.188-.5.265-.757a8.934 8.934 0 00.323-1.562c.297-2.561.487-5.869.487-10.137-.002 4.268.191 7.576.488 10.137z" fill="#646B5C"/></g><mask id="mask1_2020_3" style="mask-type:luminance" maskUnits="userSpaceOnUse" x="881" y="0" width="40" height="38"><path d="M921 0h-40v37.891h40V0z" fill="#fff"/></mask><g mask="url(#mask1_2020_3)"><path d="M901.49 10.137c.031.265.072.527.127.787a8.67 8.67 0 00.461 1.532 9.554 9.554 0 001.182 2.106 9.565 9.565 0 001.084 1.217c.196.189.403.369.62.538a9.757 9.757 0 002.116 1.295 10.045 10.045 0 002.389.751c.277.052.554.09.831.12 2.704.281 6.195.461 10.701.461-4.506 0-7.997.18-10.701.462a10.48 10.48 0 00-2.448.557 10.3 10.3 0 00-2.223 1.12 10.331 10.331 0 00-1.285 1.026 8.634 8.634 0 00-.568.587 9.018 9.018 0 00-1.367 2.005 9.96 9.96 0 00-.331.732 8.68 8.68 0 00-.461 1.532 8.934 8.934 0 00-.127.786c-.297 2.562-.488 5.87-.488 10.137 0-4.268-.19-7.575-.487-10.137a8.616 8.616 0 00-.127-.786 8.68 8.68 0 00-.461-1.532 9.554 9.554 0 00-1.182-2.105 9.54 9.54 0 00-1.084-1.219 8.57 8.57 0 00-.62-.538 9.502 9.502 0 00-1.372-.92 10.3 10.3 0 00-3.134-1.125 10.7 10.7 0 00-.83-.12c-2.704-.281-6.195-.462-10.701-.462 4.506 0 7.997-.18 10.701-.461a10.343 10.343 0 001.649-.306 10.045 10.045 0 001.571-.565 10.299 10.299 0 001.45-.806 10.117 10.117 0 001.286-1.027c.199-.188.389-.382.568-.587a9.133 9.133 0 00.972-1.3 9.554 9.554 0 00.726-1.436c.101-.249.188-.5.265-.757a8.934 8.934 0 00.323-1.562c.297-2.561.487-5.869.487-10.137-.002 4.268.191 7.576.488 10.137z" fill="#646B5C"/></g></svg>